0
SECTION
2
HEADER
9
$INSUNITS
70
4
9
$ACADVER
1
AC1014
9
$HANDSEED
5
FFFF
0
ENDSEC
0
SECTION
2
TABLES
0
TABLE
2
VPORT
5
8
100
AcDbSymbolTable
0
ENDTAB
0
TABLE
2
LTYPE
5
5
100
AcDbSymbolTable
0
LTYPE
5
14
100
AcDbSymbolTableRecord
100
AcDbLinetypeTableRecord
2
BYBLOCK
70
0
0
LTYPE
5
15
100
AcDbSymbolTableRecord
100
AcDbLinetypeTableRecord
2
BYLAYER
70
0
0
ENDTAB
0
TABLE
2
LAYER
5
2
100
AcDbSymbolTable
70
2
0
LAYER
5
50
100
AcDbSymbolTableRecord
100
AcDbLayerTableRecord
2
0
70
0
6
CONTINUOUS
0
ENDTAB
0
TABLE
2
STYLE
5
3
100
AcDbSymbolTable
70
1
0
STYLE
5
11
100
AcDbSymbolTableRecord
100
AcDbTextStyleTableRecord
2
STANDARD
70
0
0
ENDTAB
0
TABLE
2
VIEW
5
6
100
AcDbSymbolTable
70
0
0
ENDTAB
0
TABLE
2
UCS
5
7
100
AcDbSymbolTable
70
0
0
ENDTAB
0
TABLE
2
APPID
5
9
100
AcDbSymbolTable
70
2
0
APPID
5
12
100
AcDbSymbolTableRecord
100
AcDbRegAppTableRecord
2
ACAD
70
0
0
ENDTAB
0
TABLE
2
DIMSTYLE
5
A
100
AcDbSymbolTable
70
1
0
ENDTAB
0
TABLE
2
BLOCK_RECORD
5
1
100
AcDbSymbolTable
70
1
0
BLOCK_RECORD
5
1F
100
AcDbSymbolTableRecord
100
AcDbBlockTableRecord
2
*MODEL_SPACE
0
BLOCK_RECORD
5
1B
100
AcDbSymbolTableRecord
100
AcDbBlockTableRecord
2
*PAPER_SPACE
0
ENDTAB
0
ENDSEC
0
SECTION
2
BLOCKS
0
BLOCK
5
20
100
AcDbEntity
100
AcDbBlockBegin
2
*MODEL_SPACE
0
ENDBLK
5
21
100
AcDbEntity
100
AcDbBlockEnd
0
BLOCK
5
1C
100
AcDbEntity
100
AcDbBlockBegin
2
*PAPER_SPACE
0
ENDBLK
5
1D
100
AcDbEntity
100
AcDbBlockEnd
0
ENDSEC
0
SECTION
2
ENTITIES
0
CIRCLE
5
100
100
AcDbEntity
8
0
100
AcDbCircle
10
0
20
0
30
0
40
36
0
LWPOLYLINE
5
101
100
AcDbEntity
8
0
100
AcDbPolyline
90
31
70
1
43
0.0
10
49.783962194389687
20
73.957624974176639
10
34.282287492714232
20
30.817604778225185
42
2.0170444964382352
10
20.546593969675733
20
-41.265451363644175
10
44.925202853812856
20
-92.771906372991864
42
-0.11322312286186054
10
-1.7763568394002505e-14
20
-103.07715781653764
10
-24.752708233629697
20
-103.07715781653766
42
0.41421356237309531
10
-34.752708233629697
20
-113.07715781653766
10
-34.75270823362969
20
-115.47711341073185
10
-34.75270823362969
20
-119.47711341073186
10
-49.75270823362969
20
-119.47711341073186
10
-49.75270823362969
20
-115.47711341073185
10
-69.75270823362969
20
-115.47711341073185
10
-69.75270823362969
20
-119.47711341073186
10
-100
20
-119.47711341073186
10
-100
20
-115.47711341073185
10
-120
20
-115.47711341073185
10
-120
20
-119.47711341073186
10
-135
20
-119.47711341073186
10
-135
20
-115.47711341073185
10
-139
20
-115.47711341073185
10
-139
20
-100.47711341073185
10
-143.19999999999999
20
-100.47711341073185
10
-143.19999999999999
20
-85.477113410731846
10
-139
20
-85.477113410731846
10
-139
20
-70.477113410731846
10
-143.19999999999999
20
-70.47711341073186
10
-143.19999999999999
20
-55.47711341073186
10
-139
20
-55.477113410731853
10
-139
20
-40.477113410731853
10
-134.80000000000001
20
-40.477113410731853
10
-73.925793820901447
20
49.831217038548743
42
-0.41402639186716911
0
LWPOLYLINE
5
102
100
AcDbEntity
8
0
100
AcDbPolyline
90
4
70
1
43
0.0
10
14.20000000000001
20
76.856241239154087
10
10.000000000000011
20
76.856241239154087
10
10.000000000000009
20
66.856241239154087
10
14.20000000000001
20
66.856241239154087
0
LINE
5
103
100
AcDbEntity
8
0
100
AcDbLine
10
10.000000000000011
20
56.856241239154087
30
0
11
14.20000000000001
21
56.856241239154087
31
0
0
LINE
5
104
100
AcDbEntity
8
0
100
AcDbLine
10
14.20000000000001
20
56.856241239154087
30
0
11
14.20000000000001
21
46.856241239154087
31
0
0
LINE
5
105
100
AcDbEntity
8
0
100
AcDbLine
10
14.20000000000001
20
46.856241239154087
30
0
11
10.000000000000011
21
46.856241239154087
31
0
0
LINE
5
106
100
AcDbEntity
8
0
100
AcDbLine
10
10.000000000000011
20
46.856241239154087
30
0
11
10.000000000000011
21
56.856241239154087
31
0
0
LINE
5
107
100
AcDbEntity
8
0
100
AcDbLine
10
10.000000000000011
20
-46.856241239154087
30
0
11
14.20000000000001
21
-46.856241239154087
31
0
0
LINE
5
108
100
AcDbEntity
8
0
100
AcDbLine
10
14.20000000000001
20
-46.856241239154087
30
0
11
14.20000000000001
21
-56.856241239154102
31
0
0
LINE
5
109
100
AcDbEntity
8
0
100
AcDbLine
10
14.20000000000001
20
-56.856241239154102
30
0
11
10.000000000000011
21
-56.856241239154102
31
0
0
LINE
5
110
100
AcDbEntity
8
0
100
AcDbLine
10
10.000000000000011
20
-56.856241239154102
30
0
11
10.000000000000011
21
-46.856241239154087
31
0
0
LWPOLYLINE
5
111
100
AcDbEntity
8
0
100
AcDbPolyline
90
4
70
1
43
0.0
10
14.200000000000188
20
-86.856241239153889
10
10.000000000000105
20
-86.856241239153917
10
10.000000000000105
20
-96.85624123915396
10
14.200000000000365
20
-96.85624123915396
0
LINE
5
112
100
AcDbEntity
8
0
100
AcDbLine
10
-14.19999999999999
20
76.856241239154087
30
0
11
-9.9999999999999893
21
76.856241239154087
31
0
0
LINE
5
113
100
AcDbEntity
8
0
100
AcDbLine
10
-9.9999999999999893
20
76.856241239154087
30
0
11
-9.9999999999999858
21
66.856241239154087
31
0
0
LINE
5
114
100
AcDbEntity
8
0
100
AcDbLine
10
-9.9999999999999858
20
66.856241239154087
30
0
11
-14.19999999999999
21
66.856241239154073
31
0
0
LINE
5
115
100
AcDbEntity
8
0
100
AcDbLine
10
-14.19999999999999
20
66.856241239154073
30
0
11
-14.19999999999999
21
76.856241239154087
31
0
0
LINE
5
116
100
AcDbEntity
8
0
100
AcDbLine
10
-14.19999999999999
20
56.856241239154087
30
0
11
-9.9999999999999893
21
56.856241239154087
31
0
0
LINE
5
117
100
AcDbEntity
8
0
100
AcDbLine
10
-9.9999999999999893
20
56.856241239154087
30
0
11
-9.9999999999999893
21
46.856241239154087
31
0
0
LINE
5
118
100
AcDbEntity
8
0
100
AcDbLine
10
-9.9999999999999893
20
46.856241239154087
30
0
11
-14.19999999999999
21
46.856241239154066
31
0
0
LINE
5
119
100
AcDbEntity
8
0
100
AcDbLine
10
-14.19999999999999
20
46.856241239154066
30
0
11
-14.19999999999999
21
56.856241239154087
31
0
0
LINE
5
120
100
AcDbEntity
8
0
100
AcDbLine
10
-9.9999999999999893
20
-56.856241239154087
30
0
11
-14.19999999999999
21
-56.856241239154102
31
0
0
LINE
5
121
100
AcDbEntity
8
0
100
AcDbLine
10
-14.19999999999999
20
-56.856241239154102
30
0
11
-14.19999999999999
21
-46.856241239154087
31
0
0
LINE
5
122
100
AcDbEntity
8
0
100
AcDbLine
10
-14.19999999999999
20
-86.856241239154102
30
0
11
-9.9999999999999893
21
-86.856241239154102
31
0
0
LINE
5
123
100
AcDbEntity
8
0
100
AcDbLine
10
-9.9999999999999893
20
-86.856241239154102
30
0
11
-9.9999999999999893
21
-96.85624123915396
31
0
0
LINE
5
124
100
AcDbEntity
8
0
100
AcDbLine
10
-9.9999999999999893
20
-96.85624123915396
30
0
11
-14.19999999999999
21
-96.85624123915396
31
0
0
LINE
5
125
100
AcDbEntity
8
0
100
AcDbLine
10
-14.19999999999999
20
-96.85624123915396
30
0
11
-14.19999999999999
21
-86.856241239154102
31
0
0
LINE
5
126
100
AcDbEntity
8
0
100
AcDbLine
10
-9.9999999999999893
20
-46.856241239154087
30
0
11
-9.9999999999999893
21
-56.856241239154087
31
0
0
LINE
5
127
100
AcDbEntity
8
0
100
AcDbLine
10
-14.19999999999999
20
-46.856241239154087
30
0
11
-9.9999999999999893
21
-46.856241239154087
31
0
0
LINE
5
128
100
AcDbEntity
8
0
100
AcDbLine
10
9.9920072216264089e-15
20
46.856241239154087
30
0
11
0
21
0
31
0
0
LINE
5
129
100
AcDbEntity
8
0
100
AcDbLine
10
9.992007221626412e-15
20
-46.856241239154087
30
0
11
0
21
0
31
0
0
LINE
5
130
100
AcDbEntity
8
0
100
AcDbLine
10
-14.19999999999999
20
66.856241239154073
30
0
11
-14.19999999999999
21
56.856241239154087
31
0
0
LINE
5
131
100
AcDbEntity
8
0
100
AcDbLine
10
-9.9999999999999893
20
46.856241239154087
30
0
11
10.000000000000011
21
46.856241239154087
31
0
0
LINE
5
132
100
AcDbEntity
8
0
100
AcDbLine
10
-9.9999999999999893
20
-46.856241239154087
30
0
11
10.000000000000011
21
-46.856241239154087
31
0
0
LINE
5
133
100
AcDbEntity
8
0
100
AcDbLine
10
-14.19999999999999
20
-56.856241239154102
30
0
11
-14.19999999999999
21
-86.856241239154102
31
0
0
LWPOLYLINE
5
134
100
AcDbEntity
8
0
100
AcDbPolyline
90
4
70
1
43
0.0
10
-90.199999999999989
20
-70.177113410731849
10
-110.19999999999999
20
-70.177113410731849
42
-0.99999999999999989
10
-110.19999999999999
20
-66.777113410731857
10
-90.199999999999989
20
-66.777113410731857
42
-0.99999999999999989
0
LINE
5
135
100
AcDbEntity
8
0
100
AcDbLine
10
-110.19999999999999
20
-68.477113410731846
30
0
11
-90.199999999999989
21
-68.477113410731846
31
0
0
LWPOLYLINE
5
136
100
AcDbEntity
8
0
100
AcDbPolyline
90
4
70
1
43
0.0
10
-50.199999999999996
20
-70.177113410731849
10
-70.199999999999989
20
-70.177113410731849
42
-0.99999999999999989
10
-70.199999999999989
20
-66.777113410731857
10
-50.199999999999996
20
-66.777113410731857
42
-0.99999999999999989
0
LINE
5
137
100
AcDbEntity
8
0
100
AcDbLine
10
-70.199999999999989
20
-68.477113410731846
30
0
11
-50.199999999999996
21
-68.477113410731846
31
0
0
LWPOLYLINE
5
138
100
AcDbEntity
8
0
100
AcDbPolyline
90
4
70
1
43
0.0
10
-90.199999999999989
20
-25.177113410731849
10
-110.19999999999999
20
-25.177113410731849
42
-0.99999999999999989
10
-110.19999999999999
20
-21.77711341073185
10
-90.199999999999989
20
-21.77711341073185
42
-0.99999999999999989
0
LINE
5
139
100
AcDbEntity
8
0
100
AcDbLine
10
-110.19999999999999
20
-23.477113410731853
30
0
11
-90.199999999999989
21
-23.477113410731853
31
0
0
LWPOLYLINE
5
140
100
AcDbEntity
8
0
100
AcDbPolyline
90
4
70
1
43
0.0
10
-50.199999999999996
20
-25.177113410731849
10
-70.199999999999989
20
-25.177113410731849
42
-0.99999999999999989
10
-70.199999999999989
20
-21.77711341073185
10
-50.199999999999996
20
-21.77711341073185
42
-0.99999999999999989
0
LINE
5
141
100
AcDbEntity
8
0
100
AcDbLine
10
-70.199999999999989
20
-23.477113410731853
30
0
11
-50.199999999999996
21
-23.477113410731853
31
0
0
LINE
5
142
100
AcDbEntity
8
0
100
AcDbLine
10
-43.000000640749931
20
2.1000000000000001
30
0
11
-53.000000789761543
21
2.1000000000000001
31
0
0
LINE
5
143
100
AcDbEntity
8
0
100
AcDbLine
10
-53.000000789761543
20
2.1000000000000001
30
0
11
-53.000000789761543
21
-2.1000000000000001
31
0
0
LINE
5
144
100
AcDbEntity
8
0
100
AcDbLine
10
-53.000000789761543
20
-2.1000000000000001
30
0
11
-43.000000640749931
21
-2.1000000000000001
31
0
0
LINE
5
145
100
AcDbEntity
8
0
100
AcDbLine
10
-43.000000640749931
20
-2.1000000000000001
30
0
11
-43.000000640749931
21
2.1000000000000001
31
0
0
LINE
5
146
100
AcDbEntity
8
0
100
AcDbLine
10
-43.000000640749931
20
2.1000000000000001
30
0
11
-53.000000789761543
21
-2.1000000000000001
31
0
0
LINE
5
147
100
AcDbEntity
8
0
100
AcDbLine
10
-53.000000789761543
20
2.1000000000000001
30
0
11
-43.000000640749931
21
-2.1000000000000001
31
0
0
ENDSEC
0
SECTION
2
OBJECTS
0
DICTIONARY
5
C
100
AcDbDictionary
3
ACAD_GROUP
350
D
3
ACAD_MLINESTYLE
350
17
0
DICTIONARY
5
D
100
AcDbDictionary
0
DICTIONARY
5
1A
330
C
100
AcDbDictionary
0
DICTIONARY
5
17
100
AcDbDictionary
0
ENDSEC
0
EOF
