0
SECTION
2
HEADER
9
$INSUNITS
70
4
9
$ACADVER
1
AC1014
9
$HANDSEED
5
FFFF
0
ENDSEC
0
SECTION
2
TABLES
0
TABLE
2
VPORT
5
8
100
AcDbSymbolTable
0
ENDTAB
0
TABLE
2
LTYPE
5
5
100
AcDbSymbolTable
0
LTYPE
5
14
100
AcDbSymbolTableRecord
100
AcDbLinetypeTableRecord
2
BYBLOCK
70
0
0
LTYPE
5
15
100
AcDbSymbolTableRecord
100
AcDbLinetypeTableRecord
2
BYLAYER
70
0
0
ENDTAB
0
TABLE
2
LAYER
5
2
100
AcDbSymbolTable
70
2
0
LAYER
5
50
100
AcDbSymbolTableRecord
100
AcDbLayerTableRecord
2
0
70
0
6
CONTINUOUS
0
ENDTAB
0
TABLE
2
STYLE
5
3
100
AcDbSymbolTable
70
1
0
STYLE
5
11
100
AcDbSymbolTableRecord
100
AcDbTextStyleTableRecord
2
STANDARD
70
0
0
ENDTAB
0
TABLE
2
VIEW
5
6
100
AcDbSymbolTable
70
0
0
ENDTAB
0
TABLE
2
UCS
5
7
100
AcDbSymbolTable
70
0
0
ENDTAB
0
TABLE
2
APPID
5
9
100
AcDbSymbolTable
70
2
0
APPID
5
12
100
AcDbSymbolTableRecord
100
AcDbRegAppTableRecord
2
ACAD
70
0
0
ENDTAB
0
TABLE
2
DIMSTYLE
5
A
100
AcDbSymbolTable
70
1
0
ENDTAB
0
TABLE
2
BLOCK_RECORD
5
1
100
AcDbSymbolTable
70
1
0
BLOCK_RECORD
5
1F
100
AcDbSymbolTableRecord
100
AcDbBlockTableRecord
2
*MODEL_SPACE
0
BLOCK_RECORD
5
1B
100
AcDbSymbolTableRecord
100
AcDbBlockTableRecord
2
*PAPER_SPACE
0
ENDTAB
0
ENDSEC
0
SECTION
2
BLOCKS
0
BLOCK
5
20
100
AcDbEntity
100
AcDbBlockBegin
2
*MODEL_SPACE
0
ENDBLK
5
21
100
AcDbEntity
100
AcDbBlockEnd
0
BLOCK
5
1C
100
AcDbEntity
100
AcDbBlockBegin
2
*PAPER_SPACE
0
ENDBLK
5
1D
100
AcDbEntity
100
AcDbBlockEnd
0
ENDSEC
0
SECTION
2
ENTITIES
0
LINE
5
100
100
AcDbEntity
8
0
100
AcDbLine
10
-34.999999850984317
20
23.999999580623484
30
0
11
15.000000148948578
21
23.999999580623484
31
0
0
LINE
5
101
100
AcDbEntity
8
0
100
AcDbLine
10
20.000000149007011
20
18.999999580565049
30
0
11
20.00000014901239
21
-26.000000419373347
31
0
0
LINE
5
102
100
AcDbEntity
8
0
100
AcDbLine
10
15.000000149001714
20
-31.000000419376509
30
0
11
-34.99999985098605
21
-31.000000419376512
31
0
0
LINE
5
103
100
AcDbEntity
8
0
100
AcDbLine
10
-39.999999850991266
20
-26.000000419371609
30
0
11
-39.999999850987834
21
18.999999580624042
31
0
0
ARC
5
104
100
AcDbEntity
8
0
100
AcDbCircle
10
-34.999999850984324
20
18.999999580624038
30
0
40
4.9999999999994449
100
AcDbArc
50
89.999999999999929
51
180
0
ARC
5
105
100
AcDbEntity
8
0
100
AcDbCircle
10
15.000000148948578
20
18.999999580565046
30
0
40
5.0000000000584333
100
AcDbArc
50
0
51
90
0
ARC
5
106
100
AcDbEntity
8
0
100
AcDbCircle
10
15.00000014900446
20
-26.000000419373347
30
0
40
5.0000000000031619
100
AcDbArc
50
-90.000000000031449
51
0
0
ARC
5
107
100
AcDbEntity
8
0
100
AcDbCircle
10
-34.999999850986356
20
-26.000000419371606
30
0
40
5.0000000000049072
100
AcDbArc
50
180
51
270.00000000000352
0
LWPOLYLINE
5
108
100
AcDbEntity
8
0
100
AcDbPolyline
90
4
70
1
43
0.0
10
-27.499999851010948
20
10.499999580623481
10
-31.69999985100911
20
10.499999580623484
10
-31.699999851012134
20
2.4999995806234834
10
-27.499999850980078
20
2.4999995806234865
0
LWPOLYLINE
5
109
100
AcDbEntity
8
0
100
AcDbPolyline
90
4
70
1
43
0.0
10
-27.49999985092774
20
-9.5000004193765122
10
-31.699999850988561
20
-9.5000004193765175
10
-31.699999850979413
20
-17.500000419376512
10
-27.499999850931424
20
-17.500000419376505
0
LWPOLYLINE
5
110
100
AcDbEntity
8
0
100
AcDbPolyline
90
4
70
1
43
0.0
10
11.700000149098337
20
-9.5000004193765335
10
7.5000001490133812
20
-9.5000004193765299
10
7.5000001490075636
20
-17.50000041937647
10
11.700000149109847
20
-17.500000419376466
0
LWPOLYLINE
5
111
100
AcDbEntity
8
0
100
AcDbPolyline
90
4
70
1
43
0.0
10
11.700000149056727
20
2.4999995806234248
10
7.500000149035241
20
2.499999580623431
10
7.5000001490311483
20
10.499999580623371
10
11.700000149030094
20
10.49999958062336
0
LINE
5
112
100
AcDbEntity
8
0
100
AcDbLine
10
-31.69999985100911
20
10.499999580623484
30
0
11
-39.999999850990882
21
10.499999580623474
31
0
0
LINE
5
113
100
AcDbEntity
8
0
100
AcDbLine
10
11.700000149030094
20
10.49999958062336
30
0
11
20.000000149006482
21
10.499999580623376
31
0
0
LINE
5
114
100
AcDbEntity
8
0
100
AcDbLine
10
-30.000000447034843
20
-26.000000387430198
30
0
11
-30.000000447034843
21
-26.002441839761175
31
0
0
CIRCLE
5
115
100
AcDbEntity
8
0
100
AcDbCircle
10
-29.999999850988388
20
18.999999612569738
30
0
40
1.7000000000000002
0
CIRCLE
5
116
100
AcDbEntity
8
0
100
AcDbCircle
10
-29.999999850988388
20
-26.000000387430262
30
0
40
1.7000000000000002
0
LINE
5
117
100
AcDbEntity
8
0
100
AcDbLine
10
-29.999999850988388
20
18.999999612569738
30
0
11
-29.999999850988388
21
-26.000000387430262
31
0
0
CIRCLE
5
118
100
AcDbEntity
8
0
100
AcDbCircle
10
10.000000149011612
20
18.999999548675088
30
0
40
1.7000000000000002
0
CIRCLE
5
119
100
AcDbEntity
8
0
100
AcDbCircle
10
10.000000149011612
20
-26.000000387430262
30
0
40
1.7000000000000002
0
LINE
5
120
100
AcDbEntity
8
0
100
AcDbLine
10
10.000000149011612
20
23.999999580621338
30
0
11
10.000000149011612
21
18.999999548675088
31
0
0
LINE
5
121
100
AcDbEntity
8
0
100
AcDbLine
10
10.000000149011612
20
18.999999548675088
30
0
11
20.000000149007011
21
18.999999580565049
31
0
0
LINE
5
122
100
AcDbEntity
8
0
100
AcDbLine
10
10.000000149011612
20
18.999999548675088
30
0
11
10.000000149011612
21
-26.000000387430262
31
0
0
LINE
5
123
100
AcDbEntity
8
0
100
AcDbLine
10
10.000000149011612
20
-26.000000387430262
30
0
11
-29.999999850988388
21
-26.000000387430262
31
0
0
LINE
5
124
100
AcDbEntity
8
0
100
AcDbLine
10
-29.999999850988388
20
18.999999612569738
30
0
11
10.000000149011612
21
18.999999548675088
31
0
0
LINE
5
125
100
AcDbEntity
8
0
100
AcDbLine
10
-29.999999850988388
20
18.999999612569738
30
0
11
-39.999999850987834
21
18.999999580624042
31
0
0
LINE
5
126
100
AcDbEntity
8
0
100
AcDbLine
10
10.000000149011612
20
-26.000000387430262
30
0
11
10.000000149011612
21
-31.000000419376516
31
0
0
LINE
5
127
100
AcDbEntity
8
0
100
AcDbLine
10
-27.499999851010948
20
10.499999580623481
30
0
11
-27.499999851010948
21
23.999999580625627
31
0
0
LINE
5
128
100
AcDbEntity
8
0
100
AcDbLine
10
-27.499999850931424
20
-17.500000419376505
30
0
11
-27.499999850931424
21
-31.000000419378658
31
0
0
ENDSEC
0
SECTION
2
OBJECTS
0
DICTIONARY
5
C
100
AcDbDictionary
3
ACAD_GROUP
350
D
3
ACAD_MLINESTYLE
350
17
0
DICTIONARY
5
D
100
AcDbDictionary
0
DICTIONARY
5
1A
330
C
100
AcDbDictionary
0
DICTIONARY
5
17
100
AcDbDictionary
0
ENDSEC
0
EOF
