0
SECTION
2
HEADER
9
$INSUNITS
70
4
9
$ACADVER
1
AC1014
9
$HANDSEED
5
FFFF
0
ENDSEC
0
SECTION
2
TABLES
0
TABLE
2
VPORT
5
8
100
AcDbSymbolTable
0
ENDTAB
0
TABLE
2
LTYPE
5
5
100
AcDbSymbolTable
0
LTYPE
5
14
100
AcDbSymbolTableRecord
100
AcDbLinetypeTableRecord
2
BYBLOCK
70
0
0
LTYPE
5
15
100
AcDbSymbolTableRecord
100
AcDbLinetypeTableRecord
2
BYLAYER
70
0
0
ENDTAB
0
TABLE
2
LAYER
5
2
100
AcDbSymbolTable
70
2
0
LAYER
5
50
100
AcDbSymbolTableRecord
100
AcDbLayerTableRecord
2
0
70
0
6
CONTINUOUS
0
ENDTAB
0
TABLE
2
STYLE
5
3
100
AcDbSymbolTable
70
1
0
STYLE
5
11
100
AcDbSymbolTableRecord
100
AcDbTextStyleTableRecord
2
STANDARD
70
0
0
ENDTAB
0
TABLE
2
VIEW
5
6
100
AcDbSymbolTable
70
0
0
ENDTAB
0
TABLE
2
UCS
5
7
100
AcDbSymbolTable
70
0
0
ENDTAB
0
TABLE
2
APPID
5
9
100
AcDbSymbolTable
70
2
0
APPID
5
12
100
AcDbSymbolTableRecord
100
AcDbRegAppTableRecord
2
ACAD
70
0
0
ENDTAB
0
TABLE
2
DIMSTYLE
5
A
100
AcDbSymbolTable
70
1
0
ENDTAB
0
TABLE
2
BLOCK_RECORD
5
1
100
AcDbSymbolTable
70
1
0
BLOCK_RECORD
5
1F
100
AcDbSymbolTableRecord
100
AcDbBlockTableRecord
2
*MODEL_SPACE
0
BLOCK_RECORD
5
1B
100
AcDbSymbolTableRecord
100
AcDbBlockTableRecord
2
*PAPER_SPACE
0
ENDTAB
0
ENDSEC
0
SECTION
2
BLOCKS
0
BLOCK
5
20
100
AcDbEntity
100
AcDbBlockBegin
2
*MODEL_SPACE
0
ENDBLK
5
21
100
AcDbEntity
100
AcDbBlockEnd
0
BLOCK
5
1C
100
AcDbEntity
100
AcDbBlockBegin
2
*PAPER_SPACE
0
ENDBLK
5
1D
100
AcDbEntity
100
AcDbBlockEnd
0
ENDSEC
0
SECTION
2
ENTITIES
0
LINE
5
100
100
AcDbEntity
8
0
100
AcDbLine
10
19.644537
20
-9936.2530000000006
30
0
11
19.613287
21
-9936.1474999999991
31
0
0
LINE
5
101
100
AcDbEntity
8
0
100
AcDbLine
10
19.031234000000001
20
-9936.5030000000006
30
0
11
19.109364000000003
21
-9936.5810000000019
31
0
0
LINE
5
102
100
AcDbEntity
8
0
100
AcDbLine
10
9.8281259999999993
20
-9914.1717000000026
30
0
11
9.8281259999999993
21
-9914.2810000000009
31
0
0
LINE
5
103
100
AcDbEntity
8
0
100
AcDbLine
10
0.71094900000000005
20
-9927.2520000000004
30
0
11
0.82423000000000002
21
-9927.2620000000006
31
0
0
LINE
5
104
100
AcDbEntity
8
0
100
AcDbLine
10
1.214842
20
-9923.5457000000006
30
0
11
1.296872
21
-9923.6196999999993
31
0
0
LINE
5
105
100
AcDbEntity
8
0
100
AcDbLine
10
3.4296970000000004
20
-9932.7610000000004
30
0
11
3.5273529999999997
21
-9932.8703999999998
31
0
0
LINE
5
106
100
AcDbEntity
8
0
100
AcDbLine
10
8.0859529999999999
20
-9937.4752000000008
30
0
11
8.3320469999999993
21
-9937.5805999999993
31
0
0
LINE
5
107
100
AcDbEntity
8
0
100
AcDbLine
10
1.1406370000000001
20
-9924.6159000000007
30
0
11
1.0390740000000001
21
-9924.6589000000004
31
0
0
LINE
5
108
100
AcDbEntity
8
0
100
AcDbLine
10
2.398441
20
-9932.1154000000006
30
0
11
2.3125009999999997
21
-9932.1854000000003
31
0
0
LINE
5
109
100
AcDbEntity
8
0
100
AcDbLine
10
8.6640630000000005
20
-9914.6563000000024
30
0
11
8.5976570000000017
21
-9914.5663000000022
31
0
0
LINE
5
110
100
AcDbEntity
8
0
100
AcDbLine
10
1.4999959999999999
20
-9929.1910000000007
30
0
11
1.621089
21
-9929.2610000000022
31
0
0
LINE
5
111
100
AcDbEntity
8
0
100
AcDbLine
10
4.0976509999999999
20
-9917.8870000000006
30
0
11
3.9921820000000001
21
-9917.848
31
0
0
LINE
5
112
100
AcDbEntity
8
0
100
AcDbLine
10
21.101573000000005
20
-9917.4758000000002
30
0
11
21.062512999999999
21
-9917.3430000000008
31
0
0
LINE
5
113
100
AcDbEntity
8
0
100
AcDbLine
10
14.253894000000003
20
-9938.2656999999999
30
0
11
14.261694
21
-9938.1563000000006
31
0
0
LINE
5
114
100
AcDbEntity
8
0
100
AcDbLine
10
22.332035999999999
20
-9933.1262999999999
30
0
11
22.378906000000001
21
-9932.9896000000008
31
0
0
LINE
5
115
100
AcDbEntity
8
0
100
AcDbLine
10
3.9921820000000001
20
-9917.848
30
0
11
3.8945260000000004
21
-9917.8009999999995
31
0
0
LINE
5
116
100
AcDbEntity
8
0
100
AcDbLine
10
24.531238000000002
20
-9927.9595000000008
30
0
11
24.539038000000005
21
-9927.8150000000005
31
0
0
LINE
5
117
100
AcDbEntity
8
0
100
AcDbLine
10
11.535167
20
-9937.7324000000008
30
0
11
11.621107000000002
21
-9937.841800000002
31
0
0
LINE
5
118
100
AcDbEntity
8
0
100
AcDbLine
10
24.054694000000005
20
-9930.9410000000007
30
0
11
24.164069000000001
21
-9930.9570000000003
31
0
0
LINE
5
119
100
AcDbEntity
8
0
100
AcDbLine
10
1.1718709999999999
20
-9922.8238999999994
30
0
11
1.0624959999999999
21
-9922.8119000000006
31
0
0
LINE
5
120
100
AcDbEntity
8
0
100
AcDbLine
10
25.046861000000003
20
-9924.6870999999992
30
0
11
24.937486
21
-9924.6561000000002
31
0
0
LINE
5
121
100
AcDbEntity
8
0
100
AcDbLine
10
4.6093699999999993
20
-9917.8050000000003
30
0
11
4.4843700000000002
21
-9917.8709999999992
31
0
0
LINE
5
122
100
AcDbEntity
8
0
100
AcDbLine
10
19.277335000000001
20
-9915.2438000000002
30
0
11
19.179675
21
-9915.3058000000019
31
0
0
LINE
5
123
100
AcDbEntity
8
0
100
AcDbLine
10
6.3906390000000002
20
-9935.9307000000008
30
0
11
6.382829000000001
21
-9936.0400000000009
31
0
0
LINE
5
124
100
AcDbEntity
8
0
100
AcDbLine
10
21.257822000000001
20
-9935.2878999999994
30
0
11
21.230482000000002
21
-9935.1785
31
0
0
LINE
5
125
100
AcDbEntity
8
0
100
AcDbLine
10
10.328125999999999
20
-9913.8330000000005
30
0
11
10.203126000000001
21
-9913.8130000000001
31
0
0
LINE
5
126
100
AcDbEntity
8
0
100
AcDbLine
10
6.2851730000000003
20
-9936.3564999999999
30
0
11
6.2773630000000002
21
-9936.4696999999996
31
0
0
LINE
5
127
100
AcDbEntity
8
0
100
AcDbLine
10
19.699207000000001
20
-9936.4678000000004
30
0
11
19.691407000000002
21
-9936.3546000000006
31
0
0
LINE
5
128
100
AcDbEntity
8
0
100
AcDbLine
10
6.3047010000000014
20
-9935.6610999999994
30
0
11
6.3632949999999999
21
-9935.7900000000009
31
0
0
LINE
5
129
100
AcDbEntity
8
0
100
AcDbLine
10
21.062512999999999
20
-9917.3430000000008
30
0
11
21.058613000000005
21
-9917.1983999999993
31
0
0
LINE
5
130
100
AcDbEntity
8
0
100
AcDbLine
10
8.5429839999999988
20
-9937.5066000000006
30
0
11
8.5976719999999993
21
-9937.4086000000007
31
0
0
LINE
5
131
100
AcDbEntity
8
0
100
AcDbLine
10
25.164057
20
-9928.7711999999992
30
0
11
25.140617000000006
21
-9928.6461999999992
31
0
0
LINE
5
132
100
AcDbEntity
8
0
100
AcDbLine
10
3.0507759999999999
20
-9919.3839000000007
30
0
11
2.9414009999999999
21
-9919.3739000000005
31
0
0
LINE
5
133
100
AcDbEntity
8
0
100
AcDbLine
10
23.339832000000001
20
-9931.7147000000004
30
0
11
23.332032000000002
21
-9931.5740999999998
31
0
0
LINE
5
134
100
AcDbEntity
8
0
100
AcDbLine
10
25.371079000000005
20
-9927.2070000000003
30
0
11
25.425769000000003
21
-9927.0977000000003
31
0
0
LINE
5
135
100
AcDbEntity
8
0
100
AcDbLine
10
0.71094900000000005
20
-9924.7199000000001
30
0
11
0.60548000000000002
21
-9924.7629000000015
31
0
0
LINE
5
136
100
AcDbEntity
8
0
100
AcDbLine
10
12.589836000000002
20
-9937.8116000000009
30
0
11
12.710930000000003
21
-9937.7415999999994
31
0
0
LINE
5
137
100
AcDbEntity
8
0
100
AcDbLine
10
21.121113000000001
20
-9916.9874999999993
30
0
11
21.167983
21
-9916.8894999999993
31
0
0
LINE
5
138
100
AcDbEntity
8
0
100
AcDbLine
10
3.6445410000000007
20
-9933.4055000000008
30
0
11
3.601572
21
-9933.5110000000004
31
0
0
LINE
5
139
100
AcDbEntity
8
0
100
AcDbLine
10
18.175768999999999
20
-9936.4850000000006
30
0
11
18.296863000000002
21
-9936.4069999999992
31
0
0
LINE
5
140
100
AcDbEntity
8
0
100
AcDbLine
10
4.9140720000000009
20
-9934.6329000000005
30
0
11
4.9179820000000003
21
-9934.7734999999993
31
0
0
LINE
5
141
100
AcDbEntity
8
0
100
AcDbLine
10
19.585957999999998
20
-9916.0450999999994
30
0
11
19.593757999999998
21
-9915.9357
31
0
0
LINE
5
142
100
AcDbEntity
8
0
100
AcDbLine
10
1.4999910000000003
20
-9922.7808999999997
30
0
11
1.3906160000000001
21
-9922.8078999999998
31
0
0
LINE
5
143
100
AcDbEntity
8
0
100
AcDbLine
10
1.8124880000000001
20
-9930.1478999999999
30
0
11
1.7382680000000001
21
-9930.2338999999993
31
0
0
LINE
5
144
100
AcDbEntity
8
0
100
AcDbLine
10
2.6367259999999999
20
-9920.2551000000003
30
0
11
2.6445259999999999
21
-9920.3958000000021
31
0
0
LINE
5
145
100
AcDbEntity
8
0
100
AcDbLine
10
1.121092
20
-9923.4837000000007
30
0
11
1.214842
21
-9923.5457000000006
31
0
0
LINE
5
146
100
AcDbEntity
8
0
100
AcDbLine
10
10.742183000000001
20
-9914.3765000000003
30
0
11
10.624996000000003
21
-9914.2985000000008
31
0
0
LINE
5
147
100
AcDbEntity
8
0
100
AcDbLine
10
8.8281410000000005
20
-9937.1705999999995
30
0
11
8.9531410000000005
21
-9937.1116000000002
31
0
0
LINE
5
148
100
AcDbEntity
8
0
100
AcDbLine
10
1.4453120000000004
20
-9924.0102999999999
30
0
11
1.4375120000000003
21
-9924.1509999999998
31
0
0
LINE
5
149
100
AcDbEntity
8
0
100
AcDbLine
10
1.3984280000000002
20
-9930.6399999999994
30
0
11
1.5038970000000003
21
-9930.8899999999994
31
0
0
LINE
5
150
100
AcDbEntity
8
0
100
AcDbLine
10
23.144532999999999
20
-9919.3539999999994
30
0
11
23.035157999999999
21
-9919.3729999999996
31
0
0
LINE
5
151
100
AcDbEntity
8
0
100
AcDbLine
10
8.9531410000000005
20
-9937.1116000000002
30
0
11
9.0937660000000005
21
-9937.0846000000001
31
0
0
LINE
5
152
100
AcDbEntity
8
0
100
AcDbLine
10
12.589833000000002
20
-9914.1677999999993
30
0
11
12.484365
21
-9914.0697999999993
31
0
0
LINE
5
153
100
AcDbEntity
8
0
100
AcDbLine
10
1.3906160000000001
20
-9922.8078999999998
30
0
11
1.2812410000000001
21
-9922.8238999999994
31
0
0
LINE
5
154
100
AcDbEntity
8
0
100
AcDbLine
10
15.773425000000001
20
-9913.8119999999999
30
0
11
15.652331000000002
21
-9913.8320000000003
31
0
0
LINE
5
155
100
AcDbEntity
8
0
100
AcDbLine
10
23.433582000000005
20
-9931.9454999999998
30
0
11
23.378892
21
-9931.8515000000007
31
0
0
LINE
5
156
100
AcDbEntity
8
0
100
AcDbLine
10
10.492201000000001
20
-9937.8564000000006
30
0
11
10.554701
21
-9937.7664000000004
31
0
0
LINE
5
157
100
AcDbEntity
8
0
100
AcDbLine
10
4.980467
20
-9916.4019000000008
30
0
11
4.777342
21
-9916.5737000000008
31
0
0
LINE
5
158
100
AcDbEntity
8
0
100
AcDbLine
10
24.808575000000005
20
-9925.5807000000004
30
0
11
24.906235000000002
21
-9925.4791999999998
31
0
0
LINE
5
159
100
AcDbEntity
8
0
100
AcDbLine
10
13.632797
20
-9913.7723000000005
30
0
11
13.597637000000001
21
-9913.8778000000002
31
0
0
LINE
5
160
100
AcDbEntity
8
0
100
AcDbLine
10
21.257823000000005
20
-9916.6861000000026
30
0
11
21.199233
21
-9916.5727999999999
31
0
0
LINE
5
161
100
AcDbEntity
8
0
100
AcDbLine
10
24.578133999999999
20
-9930.5169000000005
30
0
11
24.500004000000004
21
-9930.4308999999994
31
0
0
LINE
5
162
100
AcDbEntity
8
0
100
AcDbLine
10
16.472641000000003
20
-9937.1726999999992
30
0
11
16.601547
21
-9937.1136999999999
31
0
0
LINE
5
163
100
AcDbEntity
8
0
100
AcDbLine
10
25.140617000000006
20
-9923.3168999999998
30
0
11
25.164057
21
-9923.1957999999995
31
0
0
LINE
5
164
100
AcDbEntity
8
0
100
AcDbLine
10
0.94921399999999989
20
-9929.1329999999998
30
0
11
1.0624959999999999
21
-9929.1599999999999
31
0
0
LINE
5
165
100
AcDbEntity
8
0
100
AcDbLine
10
14.261694
20
-9938.1563000000006
30
0
11
14.277324
21
-9938.0470000000023
31
0
0
LINE
5
166
100
AcDbEntity
8
0
100
AcDbLine
10
13.714827
20
-9913.5650000000005
30
0
11
13.656237000000001
21
-9913.6630000000005
31
0
0
LINE
5
167
100
AcDbEntity
8
0
100
AcDbLine
10
1.921864
20
-9921.0288999999993
30
0
11
1.8124890000000002
21
-9921.0129000000015
31
0
0
LINE
5
168
100
AcDbEntity
8
0
100
AcDbLine
10
9.8437660000000005
20
-9938.0339000000004
30
0
11
9.9414219999999993
21
-9938.1039000000019
31
0
0
LINE
5
169
100
AcDbEntity
8
0
100
AcDbLine
10
8.0000009999999993
20
-9914.5859
30
0
11
7.9882820000000008
21
-9914.6991999999991
31
0
0
LINE
5
170
100
AcDbEntity
8
0
100
AcDbLine
10
15.35155
20
-9937.6826000000001
30
0
11
15.425770000000004
21
-9937.7646000000004
31
0
0
LINE
5
171
100
AcDbEntity
8
0
100
AcDbLine
10
6.9453320000000005
20
-9936.5048999999999
30
0
11
7.0351760000000008
21
-9936.4388999999992
31
0
0
LINE
5
172
100
AcDbEntity
8
0
100
AcDbLine
10
1.5898319999999999
20
-9920.9919000000009
30
0
11
1.503892
21
-9921.0818999999992
31
0
0
LINE
5
173
100
AcDbEntity
8
0
100
AcDbLine
10
1.0390740000000001
20
-9924.6589000000004
30
0
11
0.92969899999999994
21
-9924.6898999999994
31
0
0
LINE
5
174
100
AcDbEntity
8
0
100
AcDbLine
10
1.3750020000000003
20
-9923.7368999999999
30
0
11
1.4257819999999999
21
-9923.8696999999993
31
0
0
LINE
5
175
100
AcDbEntity
8
0
100
AcDbLine
10
9.6210939999999994
20
-9914.7263000000003
30
0
11
9.5039069999999999
21
-9914.8083000000006
31
0
0
LINE
5
176
100
AcDbEntity
8
0
100
AcDbLine
10
0.94921399999999989
20
-9922.8389000000025
30
0
11
0.87890400000000024
21
-9922.9369000000006
31
0
0
LINE
5
177
100
AcDbEntity
8
0
100
AcDbLine
10
13.265618000000002
20
-9937.7415999999994
30
0
11
13.386711
21
-9937.8116000000009
31
0
0
LINE
5
178
100
AcDbEntity
8
0
100
AcDbLine
10
24.386724999999998
20
-9920.9891000000025
30
0
11
24.273444000000005
21
-9920.9791000000005
31
0
0
LINE
5
179
100
AcDbEntity
8
0
100
AcDbLine
10
23.835944000000001
20
-9930.9529999999995
30
0
11
23.945319000000001
21
-9930.9410000000007
31
0
0
LINE
5
180
100
AcDbEntity
8
0
100
AcDbLine
10
16.148423999999999
20
-9914.2800999999999
30
0
11
16.148423999999999
21
-9914.1707000000006
31
0
0
LINE
5
181
100
AcDbEntity
8
0
100
AcDbLine
10
14.816394000000003
20
-9937.5436000000009
30
0
11
14.960925
21
-9937.5336000000025
31
0
0
LINE
5
182
100
AcDbEntity
8
0
100
AcDbLine
10
2.6210909999999998
20
-9931.4354999999996
30
0
11
2.6445310000000006
21
-9931.5761000000002
31
0
0
LINE
5
183
100
AcDbEntity
8
0
100
AcDbLine
10
12.484368000000002
20
-9937.9056
30
0
11
12.589836000000002
21
-9937.8116000000009
31
0
0
LINE
5
184
100
AcDbEntity
8
0
100
AcDbLine
10
0.83593400000000018
20
-9928.6481999999996
30
0
11
0.81249400000000005
21
-9928.7731999999996
31
0
0
LINE
5
185
100
AcDbEntity
8
0
100
AcDbLine
10
0.87890400000000024
20
-9929.0349999999999
30
0
11
0.94921399999999989
21
-9929.1329999999998
31
0
0
LINE
5
186
100
AcDbEntity
8
0
100
AcDbLine
10
1.5898370000000004
20
-9930.9760000000006
30
0
11
1.7031189999999998
21
-9930.9860000000008
31
0
0
LINE
5
187
100
AcDbEntity
8
0
100
AcDbLine
10
16.035143999999999
20
-9913.8739999999998
30
0
11
15.773425000000001
21
-9913.8119999999999
31
0
0
LINE
5
188
100
AcDbEntity
8
0
100
AcDbLine
10
3.6445260000000008
20
-9918.5673000000006
30
0
11
3.6601510000000004
21
-9918.7078999999994
31
0
0
LINE
5
189
100
AcDbEntity
8
0
100
AcDbLine
10
21.058612
20
-9934.7716
30
0
11
21.062511999999998
21
-9934.6309999999994
31
0
0
LINE
5
190
100
AcDbEntity
8
0
100
AcDbLine
10
17.234363000000002
20
-9914.733400000001
30
0
11
17.148423000000001
21
-9914.8034000000007
31
0
0
LINE
5
191
100
AcDbEntity
8
0
100
AcDbLine
10
5.9921860000000002
20
-9916.5928999999996
30
0
11
5.855467
21
-9916.6399000000001
31
0
0
LINE
5
192
100
AcDbEntity
8
0
100
AcDbLine
10
17.957017
20
-9914.8076999999994
30
0
11
17.988267
21
-9914.6983
31
0
0
LINE
5
193
100
AcDbEntity
8
0
100
AcDbLine
10
22.609387000000002
20
-9918.0895000000019
30
0
11
22.570326999999999
21
-9917.9722999999994
31
0
0
LINE
5
194
100
AcDbEntity
8
0
100
AcDbLine
10
23.585944000000005
20
-9931.0779999999995
30
0
11
23.703132
21
-9931
31
0
0
LINE
5
195
100
AcDbEntity
8
0
100
AcDbLine
10
25.265611000000003
20
-9927.25
30
0
11
25.371079000000005
21
-9927.2070000000003
31
0
0
LINE
5
196
100
AcDbEntity
8
0
100
AcDbLine
10
2.5663960000000001
20
-9920.6692000000003
30
0
11
2.4921759999999997
21
-9920.7864000000009
31
0
0
LINE
5
197
100
AcDbEntity
8
0
100
AcDbLine
10
19.691407999999999
20
-9915.6193000000003
30
0
11
19.699207999999999
21
-9915.5060000000012
31
0
0
LINE
5
198
100
AcDbEntity
8
0
100
AcDbLine
10
1.6210840000000002
20
-9922.7109
30
0
11
1.4999910000000003
21
-9922.7808999999997
31
0
0
LINE
5
199
100
AcDbEntity
8
0
100
AcDbLine
10
14.679676000000001
20
-9914.3965000000007
30
0
11
14.550770000000002
21
-9914.3345000000008
31
0
0
LINE
5
200
100
AcDbEntity
8
0
100
AcDbLine
10
1.5702930000000002
20
-9921.594000000001
30
0
11
1.6601330000000003
21
-9921.6599999999999
31
0
0
LINE
5
201
100
AcDbEntity
8
0
100
AcDbLine
10
5.0976550000000014
20
-9916.3629000000001
30
0
11
4.980467
21
-9916.4019000000008
31
0
0
LINE
5
202
100
AcDbEntity
8
0
100
AcDbLine
10
23.726562000000001
20
-9919.6875
30
0
11
23.707032000000005
21
-9919.5663999999997
31
0
0
LINE
5
203
100
AcDbEntity
8
0
100
AcDbLine
10
9.5039219999999993
20
-9937.1746000000003
30
0
11
9.6211089999999988
21
-9937.2566000000006
31
0
0
LINE
5
204
100
AcDbEntity
8
0
100
AcDbLine
10
5.0976699999999999
20
-9935.6139000000003
30
0
11
5.2031390000000002
21
-9935.5668999999998
31
0
0
LINE
5
205
100
AcDbEntity
8
0
100
AcDbLine
10
1.296872
20
-9923.6196999999993
30
0
11
1.3750020000000003
21
-9923.7368999999999
31
0
0
LINE
5
206
100
AcDbEntity
8
0
100
AcDbLine
10
22.332037000000003
20
-9918.8477000000021
30
0
11
22.316407000000002
21
-9918.7070000000003
31
0
0
LINE
5
207
100
AcDbEntity
8
0
100
AcDbLine
10
20.878920000000001
20
-9935.6119999999992
30
0
11
20.996107000000002
21
-9935.5730000000003
31
0
0
LINE
5
208
100
AcDbEntity
8
0
100
AcDbLine
10
1.871073
20
-9921.9488999999994
30
0
11
1.8984130000000001
21
-9922.0895999999993
31
0
0
LINE
5
209
100
AcDbEntity
8
0
100
AcDbLine
10
9.7851719999999993
20
-9937.4832000000024
30
0
11
9.8125160000000005
21
-9937.5925000000007
31
0
0
LINE
5
210
100
AcDbEntity
8
0
100
AcDbLine
10
22.375006000000003
20
-9933.5090999999993
30
0
11
22.332035999999999
21
-9933.4035999999996
31
0
0
LINE
5
211
100
AcDbEntity
8
0
100
AcDbLine
10
23.585944000000005
20
-9920.8870999999999
30
0
11
23.484382
21
-9920.7855
31
0
0
LINE
5
212
100
AcDbEntity
8
0
100
AcDbLine
10
8.0859380000000023
20
-9914.4958999999999
30
0
11
8.0000009999999993
21
-9914.5859
31
0
0
LINE
5
213
100
AcDbEntity
8
0
100
AcDbLine
10
21.121112000000004
20
-9934.9865000000009
30
0
11
21.082052000000001
21
-9934.8810000000012
31
0
0
LINE
5
214
100
AcDbEntity
8
0
100
AcDbLine
10
24.472664999999999
20
-9921.0791000000027
30
0
11
24.386724999999998
21
-9920.9891000000025
31
0
0
LINE
5
215
100
AcDbEntity
8
0
100
AcDbLine
10
1.7265580000000003
20
-9929.3549999999996
30
0
11
1.8085880000000001
21
-9929.4722000000002
31
0
0
LINE
5
216
100
AcDbEntity
8
0
100
AcDbLine
10
24.082034
20
-9929.7397000000001
30
0
11
24.109373999999999
21
-9929.5990999999995
31
0
0
LINE
5
217
100
AcDbEntity
8
0
100
AcDbLine
10
1.402352
20
-9927.6803
30
0
11
1.4375120000000003
21
-9927.8169999999991
31
0
0
LINE
5
218
100
AcDbEntity
8
0
100
AcDbLine
10
25.164057
20
-9923.1957999999995
30
0
11
25.101557000000003
21
-9922.9341000000004
31
0
0
LINE
5
219
100
AcDbEntity
8
0
100
AcDbLine
10
4.2070410000000003
20
-9934.0668000000005
30
0
11
4.3476660000000003
21
-9934.0668000000005
31
0
0
LINE
5
220
100
AcDbEntity
8
0
100
AcDbLine
10
14.550770000000002
20
-9914.3345000000008
30
0
11
14.441395000000004
21
-9914.2484999999997
31
0
0
LINE
5
221
100
AcDbEntity
8
0
100
AcDbLine
10
23.703132
20
-9931
30
0
11
23.835944000000001
21
-9930.9529999999995
31
0
0
LINE
5
222
100
AcDbEntity
8
0
100
AcDbLine
10
19.757826999999999
20
-9935.5460000000003
30
0
11
19.863295999999998
21
-9935.4520000000011
31
0
0
LINE
5
223
100
AcDbEntity
8
0
100
AcDbLine
10
23.945319000000001
20
-9921.0260999999991
30
0
11
23.835944000000001
21
-9921.0161000000007
31
0
0
LINE
5
224
100
AcDbEntity
8
0
100
AcDbLine
10
1.402323
20
-9921.4529999999995
30
0
11
1.4765429999999999
21
-9921.5390000000007
31
0
0
LINE
5
225
100
AcDbEntity
8
0
100
AcDbLine
10
24.355462000000003
20
-9929.259
30
0
11
24.476556000000002
21
-9929.1890000000021
31
0
0
LINE
5
226
100
AcDbEntity
8
0
100
AcDbLine
10
1.027342
20
-9928.5352000000021
30
0
11
0.92187400000000008
21
-9928.5741999999991
31
0
0
LINE
5
227
100
AcDbEntity
8
0
100
AcDbLine
10
17.644532999999999
20
-9914.3934000000008
30
0
11
17.519532999999999
21
-9914.3934000000008
31
0
0
LINE
5
228
100
AcDbEntity
8
0
100
AcDbLine
10
13.128896000000001
20
-9914.2767999999996
30
0
11
12.988271000000003
21
-9914.2927999999993
31
0
0
LINE
5
229
100
AcDbEntity
8
0
100
AcDbLine
10
23.351564000000003
20
-9919.2759999999998
30
0
11
23.250001999999999
21
-9919.3230000000003
31
0
0
LINE
5
230
100
AcDbEntity
8
0
100
AcDbLine
10
2.2734310000000004
20
-9931.0020000000004
30
0
11
2.390619
21
-9931.0799999999999
31
0
0
LINE
5
231
100
AcDbEntity
8
0
100
AcDbLine
10
21.082052999999998
20
-9917.0930000000008
30
0
11
21.121113000000001
21
-9916.9874999999993
31
0
0
LINE
5
232
100
AcDbEntity
8
0
100
AcDbLine
10
24.937486
20
-9924.6561000000002
30
0
11
24.835923000000001
21
-9924.6131000000023
31
0
0
LINE
5
233
100
AcDbEntity
8
0
100
AcDbLine
10
3.6601660000000003
20
-9933.2649000000001
30
0
11
3.6445410000000007
21
-9933.4055000000008
31
0
0
LINE
5
234
100
AcDbEntity
8
0
100
AcDbLine
10
14.101549
20
-9938.4301000000014
30
0
11
14.210924
21
-9938.3750999999993
31
0
0
LINE
5
235
100
AcDbEntity
8
0
100
AcDbLine
10
11.621091999999999
20
-9914.1401000000005
30
0
11
11.535152
21
-9914.2495000000017
31
0
0
LINE
5
236
100
AcDbEntity
8
0
100
AcDbLine
10
17.980466
20
-9937.3873000000003
30
0
11
17.988265999999999
21
-9937.2701000000015
31
0
0
LINE
5
237
100
AcDbEntity
8
0
100
AcDbLine
10
6.6992380000000011
20
-9936.7279000000017
30
0
11
6.796895000000001
21
-9936.6689000000006
31
0
0
LINE
5
238
100
AcDbEntity
8
0
100
AcDbLine
10
1.703114
20
-9920.9819000000025
30
0
11
1.5898319999999999
21
-9920.9919000000009
31
0
0
LINE
5
239
100
AcDbEntity
8
0
100
AcDbLine
10
22.398451000000001
20
-9934.2049000000006
30
0
11
22.570326000000001
21
-9934.0018000000018
31
0
0
LINE
5
240
100
AcDbEntity
8
0
100
AcDbLine
10
22.546876000000001
20
-9932.7590999999993
30
0
11
22.660157000000002
21
-9932.6771000000008
31
0
0
LINE
5
241
100
AcDbEntity
8
0
100
AcDbLine
10
7.9882970000000011
20
-9937.2720000000008
30
0
11
8.0000160000000005
21
-9937.3891999999996
31
0
0
LINE
5
242
100
AcDbEntity
8
0
100
AcDbLine
10
1.921869
20
-9930.9429999999993
30
0
11
2.031244
21
-9930.9429999999993
31
0
0
LINE
5
243
100
AcDbEntity
8
0
100
AcDbLine
10
21.769542000000005
20
-9917.9091000000008
30
0
11
21.628917000000001
21
-9917.9091000000008
31
0
0
LINE
5
244
100
AcDbEntity
8
0
100
AcDbLine
10
1.1406370000000001
20
-9927.3559999999998
30
0
11
1.2500120000000001
21
-9927.4419999999991
31
0
0
LINE
5
245
100
AcDbEntity
8
0
100
AcDbLine
10
4.9140569999999997
20
-9917.3438999999998
30
0
11
4.8749950000000002
21
-9917.4766999999993
31
0
0
LINE
5
246
100
AcDbEntity
8
0
100
AcDbLine
10
1.8984130000000001
20
-9922.0895999999993
30
0
11
1.8945130000000001
21
-9922.2302
31
0
0
LINE
5
247
100
AcDbEntity
8
0
100
AcDbLine
10
24.476556000000002
20
-9929.1890000000021
30
0
11
24.585930999999999
21
-9929.1620000000003
31
0
0
LINE
5
248
100
AcDbEntity
8
0
100
AcDbLine
10
14.10155
20
-9913.5490000000009
30
0
11
13.835925
21
-9913.5259999999998
31
0
0
LINE
5
249
100
AcDbEntity
8
0
100
AcDbLine
10
6.8671920000000011
20
-9915.3927000000003
30
0
11
6.7968800000000007
21
-9915.3066999999992
31
0
0
LINE
5
250
100
AcDbEntity
8
0
100
AcDbLine
10
10.437511000000001
20
-9937.9544000000005
30
0
11
10.492201000000001
21
-9937.8564000000006
31
0
0
LINE
5
251
100
AcDbEntity
8
0
100
AcDbLine
10
24.914056000000002
20
-9922.8091000000004
30
0
11
24.804680999999999
21
-9922.8210999999992
31
0
0
LINE
5
252
100
AcDbEntity
8
0
100
AcDbLine
10
23.499992000000006
20
-9932.0355
30
0
11
23.433582000000005
21
-9931.9454999999998
31
0
0
LINE
5
253
100
AcDbEntity
8
0
100
AcDbLine
10
23.250001999999999
20
-9919.3230000000003
30
0
11
23.144532999999999
21
-9919.3539999999994
31
0
0
LINE
5
254
100
AcDbEntity
8
0
100
AcDbLine
10
3.4140570000000006
20
-9918.1957999999995
30
0
11
3.4882760000000008
21
-9918.2777999999998
31
0
0
LINE
5
255
100
AcDbEntity
8
0
100
AcDbLine
10
11.667977
20
-9937.9434000000001
30
0
11
11.699227
21
-9938.0488999999998
31
0
0
LINE
5
256
100
AcDbEntity
8
0
100
AcDbLine
10
20.503922000000003
20
-9916.5959999999995
30
0
11
20.402359000000004
21
-9916.6389999999992
31
0
0
LINE
5
257
100
AcDbEntity
8
0
100
AcDbLine
10
21.769541
20
-9934.0648999999994
30
0
11
21.878916
21
-9934.0879000000004
31
0
0
LINE
5
258
100
AcDbEntity
8
0
100
AcDbLine
10
18.941395
20
-9915.5357999999997
30
0
11
18.847645
21
-9915.5907999999999
31
0
0
LINE
5
259
100
AcDbEntity
8
0
100
AcDbLine
10
24.949207999999999
20
-9923.4298999999992
30
0
11
25.054677000000002
21
-9923.3909000000003
31
0
0
LINE
5
260
100
AcDbEntity
8
0
100
AcDbLine
10
12.425778000000001
20
-9938.0036
30
0
11
12.484368000000002
21
-9937.9056
31
0
0
LINE
5
261
100
AcDbEntity
8
0
100
AcDbLine
10
14.441394000000001
20
-9937.7306000000008
30
0
11
14.550769000000001
21
-9937.6406000000006
31
0
0
LINE
5
262
100
AcDbEntity
8
0
100
AcDbLine
10
3.992197
20
-9934.1247999999996
30
0
11
4.0976660000000003
21
-9934.0897999999997
31
0
0
LINE
5
263
100
AcDbEntity
8
0
100
AcDbLine
10
1.4023280000000002
20
-9930.5188999999991
30
0
11
1.3984280000000002
21
-9930.6399999999994
31
0
0
LINE
5
264
100
AcDbEntity
8
0
100
AcDbLine
10
22.285170999999998
20
-9917.7111000000004
30
0
11
22.175796000000002
21
-9917.7381000000023
31
0
0
LINE
5
265
100
AcDbEntity
8
0
100
AcDbLine
10
0.92969899999999994
20
-9927.2780000000021
30
0
11
1.0390740000000001
21
-9927.3090000000011
31
0
0
LINE
5
266
100
AcDbEntity
8
0
100
AcDbLine
10
18.847643999999999
20
-9936.3780000000006
30
0
11
18.941393999999999
21
-9936.4370000000017
31
0
0
LINE
5
267
100
AcDbEntity
8
0
100
AcDbLine
10
5.855467
20
-9916.6399000000001
30
0
11
5.714842
21
-9916.6559000000016
31
0
0
LINE
5
268
100
AcDbEntity
8
0
100
AcDbLine
10
22.082045999999998
20
-9917.8001000000004
30
0
11
21.984385999999997
21
-9917.8471000000009
31
0
0
LINE
5
269
100
AcDbEntity
8
0
100
AcDbLine
10
12.140627000000002
20
-9938.4549999999999
30
0
11
12.260371951723297
21
-9938.4164341612031
31
0
0
LINE
5
270
100
AcDbEntity
8
0
100
AcDbLine
10
20.121108
20
-9935.3349999999991
30
0
11
20.261733
21
-9935.3189999999995
31
0
0
LINE
5
271
100
AcDbEntity
8
0
100
AcDbLine
10
0.92187400000000008
20
-9923.3937000000005
30
0
11
1.027342
21
-9923.4326999999994
31
0
0
LINE
5
272
100
AcDbEntity
8
0
100
AcDbLine
10
1.503892
20
-9921.0818999999992
30
0
11
1.398423
21
-9921.3279999999995
31
0
0
LINE
5
273
100
AcDbEntity
8
0
100
AcDbLine
10
24.738264999999998
20
-9925.7057000000004
30
0
11
24.808575000000005
21
-9925.5807000000004
31
0
0
LINE
5
274
100
AcDbEntity
8
0
100
AcDbLine
10
11.425777000000002
20
-9914.3354999999992
30
0
11
11.296871000000001
21
-9914.3974999999991
31
0
0
LINE
5
275
100
AcDbEntity
8
0
100
AcDbLine
10
6.578145000000001
20
-9936.7119000000002
30
0
11
6.6992380000000011
21
-9936.7279000000017
31
0
0
LINE
5
276
100
AcDbEntity
8
0
100
AcDbLine
10
3.4882910000000007
20
-9933.6990000000005
30
0
11
3.414072
21
-9933.7810000000009
31
0
0
LINE
5
277
100
AcDbEntity
8
0
100
AcDbLine
10
20.402359000000004
20
-9916.6389999999992
30
0
11
20.261734000000004
21
-9916.6550000000007
31
0
0
LINE
5
278
100
AcDbEntity
8
0
100
AcDbLine
10
1.0624959999999999
20
-9929.1599999999999
30
0
11
1.1718709999999999
21
-9929.148000000001
31
0
0
LINE
5
279
100
AcDbEntity
8
0
100
AcDbLine
10
7.8007860000000004
20
-9915.4847000000009
30
0
11
7.6796920000000002
21
-9915.5627000000004
31
0
0
LINE
5
280
100
AcDbEntity
8
0
100
AcDbLine
10
22.488287000000003
20
-9918.2769000000008
30
0
11
22.566417000000001
21
-9918.1949000000004
31
0
0
LINE
5
281
100
AcDbEntity
8
0
100
AcDbLine
10
0.60548000000000002
20
-9924.7629000000015
30
0
11
0.55079
21
-9924.8723000000027
31
0
0
LINE
5
282
100
AcDbEntity
8
0
100
AcDbLine
10
0.82423000000000002
20
-9924.7098999999998
30
0
11
0.71094900000000005
21
-9924.7199000000001
31
0
0
LINE
5
283
100
AcDbEntity
8
0
100
AcDbLine
10
21.496103000000005
20
-9934.1039000000001
30
0
11
21.628916
21
-9934.0648999999994
31
0
0
LINE
5
284
100
AcDbEntity
8
0
100
AcDbLine
10
1.027342
20
-9923.4326999999994
30
0
11
1.121092
21
-9923.4837000000007
31
0
0
LINE
5
285
100
AcDbEntity
8
0
100
AcDbLine
10
12.988271000000003
20
-9914.2927999999993
30
0
11
12.847646000000001
21
-9914.2767999999996
31
0
0
LINE
5
286
100
AcDbEntity
8
0
100
AcDbLine
10
3.6445260000000008
20
-9918.8485999999994
30
0
11
3.5976510000000008
21
-9918.9814000000006
31
0
0
LINE
5
287
100
AcDbEntity
8
0
100
AcDbLine
10
0.92969899999999994
20
-9924.6898999999994
30
0
11
0.82423000000000002
21
-9924.7098999999998
31
0
0
LINE
5
288
100
AcDbEntity
8
0
100
AcDbLine
10
5.3750140000000002
20
-9935.4308999999994
30
0
11
5.4726700000000008
21
-9935.3798999999999
31
0
0
LINE
5
289
100
AcDbEntity
8
0
100
AcDbLine
10
17.148422
20
-9937.1687000000002
30
0
11
17.234362000000001
21
-9937.2427000000025
31
0
0
LINE
5
290
100
AcDbEntity
8
0
100
AcDbLine
10
0.60548000000000002
20
-9927.2090000000007
30
0
11
0.71094900000000005
21
-9927.2520000000004
31
0
0
LINE
5
291
100
AcDbEntity
8
0
100
AcDbLine
10
1.812494
20
-9930.9590000000007
30
0
11
1.921869
21
-9930.9429999999993
31
0
0
LINE
5
292
100
AcDbEntity
8
0
100
AcDbLine
10
1.7382630000000001
20
-9921.7380000000012
30
0
11
1.8124830000000003
21
-9921.8199999999997
31
0
0
LINE
5
293
100
AcDbEntity
8
0
100
AcDbLine
10
12.261714999999999
20
-9913.5650000000005
30
0
11
12.140622
21
-9913.5259999999998
31
0
0
LINE
5
294
100
AcDbEntity
8
0
100
AcDbLine
10
2.8320260000000004
20
-9919.3549000000003
30
0
11
2.7265570000000001
21
-9919.3238999999994
31
0
0
LINE
5
295
100
AcDbEntity
8
0
100
AcDbLine
10
17.980467000000001
20
-9914.5849999999991
30
0
11
17.890626999999999
21
-9914.4950000000026
31
0
0
LINE
5
296
100
AcDbEntity
8
0
100
AcDbLine
10
6.6992230000000008
20
-9915.2446999999993
30
0
11
6.5781300000000007
21
-9915.2646999999997
31
0
0
LINE
5
297
100
AcDbEntity
8
0
100
AcDbLine
10
22.660157999999999
20
-9919.2970000000023
30
0
11
22.546876999999999
21
-9919.2109999999993
31
0
0
LINE
5
298
100
AcDbEntity
8
0
100
AcDbLine
10
10.875011000000001
20
-9937.5553999999993
30
0
11
11.015636000000002
21
-9937.5354000000007
31
0
0
LINE
5
299
100
AcDbEntity
8
0
100
AcDbLine
10
14.960925
20
-9937.5336000000025
30
0
11
15.101550000000001
21
-9937.5535999999993
31
0
0
LINE
5
300
100
AcDbEntity
8
0
100
AcDbLine
10
22.082045000000004
20
-9934.1739000000016
30
0
11
22.175795000000001
21
-9934.2329000000027
31
0
0
LINE
5
301
100
AcDbEntity
8
0
100
AcDbLine
10
24.855458000000002
20
-9923.4809000000005
30
0
11
24.949207999999999
21
-9923.4298999999992
31
0
0
LINE
5
302
100
AcDbEntity
8
0
100
AcDbLine
10
6.382829000000001
20
-9936.0400000000009
30
0
11
6.3632980000000003
21
-9936.1494000000002
31
0
0
LINE
5
303
100
AcDbEntity
8
0
100
AcDbLine
10
4.4843700000000002
20
-9917.8709999999992
30
0
11
4.3476509999999999
21
-9917.9099999999999
31
0
0
LINE
5
304
100
AcDbEntity
8
0
100
AcDbLine
10
24.574198000000003
20
-9927.6782999999996
30
0
11
24.640608000000004
21
-9927.5493999999999
31
0
0
LINE
5
305
100
AcDbEntity
8
0
100
AcDbLine
10
2.3124959999999999
20
-9919.7864000000009
30
0
11
2.3984360000000002
21
-9919.8564000000006
31
0
0
LINE
5
306
100
AcDbEntity
8
0
100
AcDbLine
10
7.6796920000000002
20
-9915.5627000000004
30
0
11
7.5468800000000016
21
-9915.6136999999999
31
0
0
LINE
5
307
100
AcDbEntity
8
0
100
AcDbLine
10
1.7031189999999998
20
-9930.9860000000008
30
0
11
1.812494
21
-9930.9590000000007
31
0
0
LINE
5
308
100
AcDbEntity
8
0
100
AcDbLine
10
1.6601330000000003
20
-9921.6599999999999
30
0
11
1.7382630000000001
21
-9921.7380000000012
31
0
0
LINE
5
309
100
AcDbEntity
8
0
100
AcDbLine
10
19.179673999999999
20
-9936.6669999999995
30
0
11
19.277334000000003
21
-9936.7260000000006
31
0
0
LINE
5
310
100
AcDbEntity
8
0
100
AcDbLine
10
25.425769000000003
20
-9924.8693999999996
30
0
11
25.371079000000005
21
-9924.7561000000005
31
0
0
LINE
5
311
100
AcDbEntity
8
0
100
AcDbLine
10
24.914056000000002
20
-9929.1579999999994
30
0
11
25.027337000000003
21
-9929.1309999999994
31
0
0
LINE
5
312
100
AcDbEntity
8
0
100
AcDbLine
10
19.613287
20
-9936.1474999999991
30
0
11
19.593757
21
-9936.0382000000009
31
0
0
LINE
5
313
100
AcDbEntity
8
0
100
AcDbLine
10
9.7148589999999988
20
-9937.3621000000003
30
0
11
9.7851719999999993
21
-9937.4832000000024
31
0
0
LINE
5
314
100
AcDbEntity
8
0
100
AcDbLine
10
1.4765429999999999
20
-9921.5390000000007
30
0
11
1.5702930000000002
21
-9921.594000000001
31
0
0
LINE
5
315
100
AcDbEntity
8
0
100
AcDbLine
10
22.570326999999999
20
-9917.9722999999994
30
0
11
22.398451999999999
21
-9917.7691000000013
31
0
0
LINE
5
316
100
AcDbEntity
8
0
100
AcDbLine
10
6.3320480000000012
20
-9936.2548999999999
30
0
11
6.2851730000000003
21
-9936.3564999999999
31
0
0
LINE
5
317
100
AcDbEntity
8
0
100
AcDbLine
10
17.949207000000001
20
-9915.1358
30
0
11
17.937487000000001
21
-9915.0264000000025
31
0
0
LINE
5
318
100
AcDbEntity
8
0
100
AcDbLine
10
9.9414219999999993
20
-9938.1039000000019
30
0
11
10.203141
21
-9938.1659
31
0
0
LINE
5
319
100
AcDbEntity
8
0
100
AcDbLine
10
1.3906209999999999
20
-9929.1640000000007
30
0
11
1.4999959999999999
21
-9929.1910000000007
31
0
0
LINE
5
320
100
AcDbEntity
8
0
100
AcDbLine
10
1.8984179999999999
20
-9929.8822999999993
30
0
11
1.8710779999999998
21
-9930.0190000000002
31
0
0
LINE
5
321
100
AcDbEntity
8
0
100
AcDbLine
10
8.0000160000000005
20
-9937.3891999999996
30
0
11
8.0859529999999999
21
-9937.4752000000008
31
0
0
LINE
5
322
100
AcDbEntity
8
0
100
AcDbLine
10
20.996108000000003
20
-9916.4010000000017
30
0
11
20.878920999999998
21
-9916.3619999999992
31
0
0
LINE
5
323
100
AcDbEntity
8
0
100
AcDbLine
10
11.699222000000001
20
-9913.9292000000005
30
0
11
11.664061999999999
21
-9914.0346000000009
31
0
0
LINE
5
324
100
AcDbEntity
8
0
100
AcDbLine
10
5.4726550000000005
20
-9916.5969000000005
30
0
11
5.3749990000000007
21
-9916.5458999999992
31
0
0
LINE
5
325
100
AcDbEntity
8
0
100
AcDbLine
10
11.714857
20
-9938.1581999999999
30
0
11
11.722657000000002
21
-9938.2675999999992
31
0
0
LINE
5
326
100
AcDbEntity
8
0
100
AcDbLine
10
1.867178
20
-9929.6010999999999
30
0
11
1.8945180000000001
21
-9929.7417000000005
31
0
0
LINE
5
327
100
AcDbEntity
8
0
100
AcDbLine
10
19.628896999999998
20
-9936.5694000000003
30
0
11
19.699207000000001
21
-9936.4678000000004
31
0
0
LINE
5
328
100
AcDbEntity
8
0
100
AcDbLine
10
19.109364000000003
20
-9936.5810000000019
30
0
11
19.179673999999999
21
-9936.6669999999995
31
0
0
LINE
5
329
100
AcDbEntity
8
0
100
AcDbLine
10
1.3750020000000003
20
-9928.2311000000009
30
0
11
1.296872
21
-9928.3521999999994
31
0
0
LINE
5
330
100
AcDbEntity
8
0
100
AcDbLine
10
9.8164069999999999
20
-9914.0623000000014
30
0
11
9.8281259999999993
21
-9914.1717000000026
31
0
0
LINE
5
331
100
AcDbEntity
8
0
100
AcDbLine
10
10.437496000000001
20
-9914.0244999999995
30
0
11
10.398436
21
-9913.9230000000007
31
0
0
LINE
5
332
100
AcDbEntity
8
0
100
AcDbLine
10
2.492181
20
-9931.1815999999999
30
0
11
2.5664009999999999
21
-9931.3027000000002
31
0
0
LINE
5
333
100
AcDbEntity
8
0
100
AcDbLine
10
1.398423
20
-9921.3279999999995
30
0
11
1.402323
21
-9921.4529999999995
31
0
0
LINE
5
334
100
AcDbEntity
8
0
100
AcDbLine
10
0.97657400000000005
20
-9926.5488999999998
30
0
11
0.87891400000000008
21
-9926.5959000000003
31
0
0
LINE
5
335
100
AcDbEntity
8
0
100
AcDbLine
10
16.035142999999998
20
-9938.1021000000001
30
0
11
16.132802999999999
21
-9938.0321000000004
31
0
0
LINE
5
336
100
AcDbEntity
8
0
100
AcDbLine
10
1.2773540000000003
20
-9925.8413999999993
30
0
11
1.2929840000000001
21
-9925.9860000000008
31
0
0
LINE
5
337
100
AcDbEntity
8
0
100
AcDbLine
10
16.882797
20
-9937.0827000000008
30
0
11
17.023422
21
-9937.1097000000009
31
0
0
LINE
5
338
100
AcDbEntity
8
0
100
AcDbLine
10
22.378906000000001
20
-9932.9896000000008
30
0
11
22.449216
21
-9932.8685000000005
31
0
0
LINE
5
339
100
AcDbEntity
8
0
100
AcDbLine
10
4.7187640000000002
20
-9935.2896999999994
30
0
11
4.7773570000000003
21
-9935.3991000000005
31
0
0
LINE
5
340
100
AcDbEntity
8
0
100
AcDbLine
10
11.875002000000002
20
-9938.4320000000007
30
0
11
12.140627000000002
21
-9938.4549999999999
31
0
0
LINE
5
341
100
AcDbEntity
8
0
100
AcDbLine
10
25.371079000000005
20
-9924.7561000000005
30
0
11
25.265611000000003
21
-9924.7170999999998
31
0
0
LINE
5
342
100
AcDbEntity
8
0
100
AcDbLine
10
14.355454999999999
20
-9914.1391000000003
30
0
11
14.312485000000002
21
-9914.0337
31
0
0
LINE
5
343
100
AcDbEntity
8
0
100
AcDbLine
10
17.999986
20
-9936.7037
30
0
11
18.074206
21
-9936.5866000000005
31
0
0
LINE
5
344
100
AcDbEntity
8
0
100
AcDbLine
10
20.261733
20
-9935.3189999999995
30
0
11
20.402358
21
-9935.3349999999991
31
0
0
LINE
5
345
100
AcDbEntity
8
0
100
AcDbLine
10
10.328141000000002
20
-9938.1458999999995
30
0
11
10.398451
21
-9938.0599000000002
31
0
0
LINE
5
346
100
AcDbEntity
8
0
100
AcDbLine
10
1.2500120000000001
20
-9924.5298999999995
30
0
11
1.1406370000000001
21
-9924.6159000000007
31
0
0
LINE
5
347
100
AcDbEntity
8
0
100
AcDbLine
10
0.81249400000000005
20
-9923.1985999999997
30
0
11
0.83593400000000018
21
-9923.3197
31
0
0
LINE
5
348
100
AcDbEntity
8
0
100
AcDbLine
10
25.097645
20
-9926.5930000000008
30
0
11
24.999985000000002
21
-9926.5460000000003
31
0
0
LINE
5
349
100
AcDbEntity
8
0
100
AcDbLine
10
8.0390669999999993
20
-9915.0272999999997
30
0
11
8.0273479999999999
21
-9915.1366999999991
31
0
0
LINE
5
350
100
AcDbEntity
8
0
100
AcDbLine
10
2.4101659999999998
20
-9932.6309999999994
30
0
11
2.5117279999999997
21
-9932.7050000000017
31
0
0
LINE
5
351
100
AcDbEntity
8
0
100
AcDbLine
10
21.367198000000002
20
-9917.8040999999994
30
0
11
21.257823000000005
21
-9917.7140999999992
31
0
0
LINE
5
352
100
AcDbEntity
8
0
100
AcDbLine
10
12.378908000000003
20
-9938.1016
30
0
11
12.425778000000001
21
-9938.0036
31
0
0
LINE
5
353
100
AcDbEntity
8
0
100
AcDbLine
10
6.3632980000000003
20
-9936.1494000000002
30
0
11
6.3320480000000012
21
-9936.2548999999999
31
0
0
LINE
5
354
100
AcDbEntity
8
0
100
AcDbLine
10
9.3750009999999993
20
-9914.8633000000009
30
0
11
9.2343759999999993
21
-9914.8942999999999
31
0
0
LINE
5
355
100
AcDbEntity
8
0
100
AcDbLine
10
4.7187450000000002
20
-9917.7150000000001
30
0
11
4.6093699999999993
21
-9917.8050000000003
31
0
0
LINE
5
356
100
AcDbEntity
8
0
100
AcDbLine
10
1.296872
20
-9928.3521999999994
30
0
11
1.214842
21
-9928.4222000000009
31
0
0
LINE
5
357
100
AcDbEntity
8
0
100
AcDbLine
10
7.4062700000000001
20
-9936.3348999999998
30
0
11
7.5468950000000001
21
-9936.3579000000009
31
0
0
LINE
5
358
100
AcDbEntity
8
0
100
AcDbLine
10
10.398451
20
-9938.0599000000002
30
0
11
10.437511000000001
21
-9937.9544000000005
31
0
0
LINE
5
359
100
AcDbEntity
8
0
100
AcDbLine
10
16.132804
20
-9913.9480000000003
30
0
11
16.035143999999999
21
-9913.8739999999998
31
0
0
LINE
5
360
100
AcDbEntity
8
0
100
AcDbLine
10
6.3476610000000013
20
-9915.4053000000004
30
0
11
6.2773479999999999
21
-9915.5069000000003
31
0
0
LINE
5
361
100
AcDbEntity
8
0
100
AcDbLine
10
9.8125160000000005
20
-9937.5925000000007
30
0
11
9.8281410000000022
21
-9937.7019
31
0
0
LINE
5
362
100
AcDbEntity
8
0
100
AcDbLine
10
18.429676000000001
20
-9915.6128000000008
30
0
11
18.296864000000003
21
-9915.5617999999995
31
0
0
LINE
5
363
100
AcDbEntity
8
0
100
AcDbLine
10
19.585957000000001
20
-9935.9287999999997
30
0
11
19.613296999999999
21
-9935.7882000000027
31
0
0
LINE
5
364
100
AcDbEntity
8
0
100
AcDbLine
10
18.710926000000001
20
-9915.6298000000024
30
0
11
18.570301000000001
21
-9915.6398000000008
31
0
0
LINE
5
365
100
AcDbEntity
8
0
100
AcDbLine
10
11.722652
20
-9913.7103999999999
30
0
11
11.714852
21
-9913.8237000000008
31
0
0
LINE
5
366
100
AcDbEntity
8
0
100
AcDbLine
10
22.449216
20
-9932.8685000000005
30
0
11
22.546876000000001
21
-9932.7590999999993
31
0
0
LINE
5
367
100
AcDbEntity
8
0
100
AcDbLine
10
0.56641000000000008
20
-9925.2551000000003
30
0
11
0.66406999999999994
21
-9925.3171000000002
31
0
0
LINE
5
368
100
AcDbEntity
8
0
100
AcDbLine
10
4.8554820000000003
20
-9934.9884000000002
30
0
11
4.8086070000000003
21
-9935.0864000000001
31
0
0
LINE
5
369
100
AcDbEntity
8
0
100
AcDbLine
10
9.812501000000001
20
-9914.3904000000002
30
0
11
9.7851569999999999
21
-9914.4997999999996
31
0
0
LINE
5
370
100
AcDbEntity
8
0
100
AcDbLine
10
17.378903000000001
20
-9914.5653999999995
30
0
11
17.312493
21
-9914.6553999999996
31
0
0
LINE
5
371
100
AcDbEntity
8
0
100
AcDbLine
10
21.878916
20
-9934.0879000000004
30
0
11
21.984385
21
-9934.1229000000003
31
0
0
LINE
5
372
100
AcDbEntity
8
0
100
AcDbLine
10
19.757828000000003
20
-9916.4240000000027
30
0
11
19.671887999999999
21
-9916.3107
31
0
0
LINE
5
373
100
AcDbEntity
8
0
100
AcDbLine
10
11.765627
20
-9938.3770000000004
30
0
11
11.875002000000002
21
-9938.4320000000007
31
0
0
LINE
5
374
100
AcDbEntity
8
0
100
AcDbLine
10
19.628898
20
-9915.4045000000006
30
0
11
19.398429
21
-9915.2638000000006
31
0
0
LINE
5
375
100
AcDbEntity
8
0
100
AcDbLine
10
20.691421999999999
20
-9916.4830000000002
30
0
11
20.601582000000001
21
-9916.5450000000019
31
0
0
LINE
5
376
100
AcDbEntity
8
0
100
AcDbLine
10
17.312493
20
-9914.6553999999996
30
0
11
17.234363000000002
21
-9914.733400000001
31
0
0
LINE
5
377
100
AcDbEntity
8
0
100
AcDbLine
10
23.726562000000001
20
-9932.2775000000001
30
0
11
23.664062000000001
21
-9932.1834999999992
31
0
0
LINE
5
378
100
AcDbEntity
8
0
100
AcDbLine
10
8.953126000000001
20
-9914.8633000000009
30
0
11
8.8281259999999993
21
-9914.8042999999998
31
0
0
LINE
5
379
100
AcDbEntity
8
0
100
AcDbLine
10
17.023423000000001
20
-9914.8624
30
0
11
16.882798000000001
21
-9914.8934000000008
31
0
0
LINE
5
380
100
AcDbEntity
8
0
100
AcDbLine
10
2.8320410000000003
20
-9932.6170000000002
30
0
11
2.9414160000000003
21
-9932.5930000000008
31
0
0
LINE
5
381
100
AcDbEntity
8
0
100
AcDbLine
10
21.878917000000001
20
-9917.8860999999997
30
0
11
21.769542000000005
21
-9917.9091000000008
31
0
0
LINE
5
382
100
AcDbEntity
8
0
100
AcDbLine
10
15.101551000000002
20
-9914.4264999999996
30
0
11
14.960926000000001
21
-9914.4454999999998
31
0
0
LINE
5
383
100
AcDbEntity
8
0
100
AcDbLine
10
3.5976660000000003
20
-9932.9915000000001
30
0
11
3.6445410000000007
21
-9933.1281999999992
31
0
0
LINE
5
384
100
AcDbEntity
8
0
100
AcDbLine
10
9.0937509999999993
20
-9914.8942999999999
30
0
11
8.953126000000001
21
-9914.8633000000009
31
0
0
LINE
5
385
100
AcDbEntity
8
0
100
AcDbLine
10
25.410149000000004
20
-9925.2522000000008
30
0
11
25.449209000000003
21
-9925.1350000000002
31
0
0
LINE
5
386
100
AcDbEntity
8
0
100
AcDbLine
10
22.285170000000001
20
-9934.2598999999991
30
0
11
22.398451000000001
21
-9934.2049000000006
31
0
0
LINE
5
387
100
AcDbEntity
8
0
100
AcDbLine
10
2.3125009999999997
20
-9932.1854000000003
30
0
11
2.253911
21
-9932.2793999999994
31
0
0
LINE
5
388
100
AcDbEntity
8
0
100
AcDbLine
10
10.554686
20
-9914.2165000000005
30
0
11
10.488275999999999
21
-9914.1224999999995
31
0
0
LINE
5
389
100
AcDbEntity
8
0
100
AcDbLine
10
11.160167000000001
20
-9937.5454000000009
30
0
11
11.296886000000001
21
-9937.5804000000026
31
0
0
LINE
5
390
100
AcDbEntity
8
0
100
AcDbLine
10
16.742173000000001
20
-9914.8934000000008
30
0
11
16.601548000000001
21
-9914.8624
31
0
0
LINE
5
391
100
AcDbEntity
8
0
100
AcDbLine
10
20.121109000000001
20
-9916.6389999999992
30
0
11
19.984390999999999
21
-9916.5920000000006
31
0
0
LINE
5
392
100
AcDbEntity
8
0
100
AcDbLine
10
2.2695409999999998
20
-9932.4043999999994
30
0
11
2.4101659999999998
21
-9932.6309999999994
31
0
0
LINE
5
393
100
AcDbEntity
8
0
100
AcDbLine
10
8.3320319999999999
20
-9914.3942999999999
30
0
11
8.0859380000000023
21
-9914.4958999999999
31
0
0
LINE
5
394
100
AcDbEntity
8
0
100
AcDbLine
10
7.9882820000000008
20
-9914.6991999999991
30
0
11
8.0195319999999999
21
-9914.8086000000003
31
0
0
LINE
5
395
100
AcDbEntity
8
0
100
AcDbLine
10
5.2031390000000002
20
-9935.5668999999998
30
0
11
5.2851699999999999
21
-9935.4928999999993
31
0
0
LINE
5
396
100
AcDbEntity
8
0
100
AcDbLine
10
4.8085920000000009
20
-9916.8904000000002
30
0
11
4.855467
21
-9916.9884000000002
31
0
0
LINE
5
397
100
AcDbEntity
8
0
100
AcDbLine
10
24.695306000000002
20
-9929.1460000000006
30
0
11
24.804680999999999
21
-9929.1460000000006
31
0
0
LINE
5
398
100
AcDbEntity
8
0
100
AcDbLine
10
3.5781200000000002
20
-9917.7700000000004
30
0
11
3.4062450000000002
21
-9917.9732000000004
31
0
0
LINE
5
399
100
AcDbEntity
8
0
100
AcDbLine
10
23.566408000000003
20
-9919.3359999999993
30
0
11
23.464845000000004
21
-9919.2659999999996
31
0
0
LINE
5
400
100
AcDbEntity
8
0
100
AcDbLine
10
1.214842
20
-9928.4222000000009
30
0
11
1.121092
21
-9928.4842000000008
31
0
0
LINE
5
401
100
AcDbEntity
8
0
100
AcDbLine
10
21.367197000000001
20
-9934.1699000000008
30
0
11
21.496103000000005
21
-9934.1039000000001
31
0
0
LINE
5
402
100
AcDbEntity
8
0
100
AcDbLine
10
24.167964000000005
20
-9922.4969000000019
30
0
11
24.109373999999999
21
-9922.3680000000022
31
0
0
LINE
5
403
100
AcDbEntity
8
0
100
AcDbLine
10
7.1289259999999999
20
-9936.3798999999999
30
0
11
7.265645000000001
21
-9936.3449000000001
31
0
0
LINE
5
404
100
AcDbEntity
8
0
100
AcDbLine
10
14.312484000000001
20
-9937.9415000000008
30
0
11
14.355454000000002
21
-9937.8399000000009
31
0
0
LINE
5
405
100
AcDbEntity
8
0
100
AcDbLine
10
24.640608000000004
20
-9927.5493999999999
30
0
11
24.726548000000005
21
-9927.4400000000023
31
0
0
LINE
5
406
100
AcDbEntity
8
0
100
AcDbLine
10
12.710927000000002
20
-9914.2338
30
0
11
12.589833000000002
21
-9914.1677999999993
31
0
0
LINE
5
407
100
AcDbEntity
8
0
100
AcDbLine
10
21.257823000000005
20
-9917.7140999999992
30
0
11
21.167983
21
-9917.6008000000002
31
0
0
LINE
5
408
100
AcDbEntity
8
0
100
AcDbLine
10
20.601582000000001
20
-9916.5450000000019
30
0
11
20.503922000000003
21
-9916.5959999999995
31
0
0
LINE
5
409
100
AcDbEntity
8
0
100
AcDbLine
10
23.707032000000005
20
-9932.4025000000001
30
0
11
23.726562000000001
21
-9932.2775000000001
31
0
0
LINE
5
410
100
AcDbEntity
8
0
100
AcDbLine
10
9.8281410000000022
20
-9937.7019
30
0
11
9.8281410000000022
21
-9937.8112999999994
31
0
0
LINE
5
411
100
AcDbEntity
8
0
100
AcDbLine
10
18.074207000000001
20
-9915.3858
30
0
11
17.999987000000001
21
-9915.2685999999994
31
0
0
LINE
5
412
100
AcDbEntity
8
0
100
AcDbLine
10
16.148423000000001
20
-9937.8094000000019
30
0
11
16.148423000000001
21
-9937.7000000000007
31
0
0
LINE
5
413
100
AcDbEntity
8
0
100
AcDbLine
10
13.65624
20
-9938.3125
30
0
11
13.714829999999999
21
-9938.4141
31
0
0
LINE
5
414
100
AcDbEntity
8
0
100
AcDbLine
10
24.316414000000002
20
-9921.6571999999996
30
0
11
24.406254000000001
21
-9921.5912000000008
31
0
0
LINE
5
415
100
AcDbEntity
8
0
100
AcDbLine
10
25.449209000000003
20
-9925.1350000000002
30
0
11
25.425769000000003
21
-9924.8693999999996
31
0
0
LINE
5
416
100
AcDbEntity
8
0
100
AcDbLine
10
1.2929840000000001
20
-9925.9860000000008
30
0
11
1.2773540000000003
21
-9926.1265999999996
31
0
0
LINE
5
417
100
AcDbEntity
8
0
100
AcDbLine
10
25.203114000000006
20
-9925.3341999999993
30
0
11
25.312489000000006
21
-9925.3142000000007
31
0
0
LINE
5
418
100
AcDbEntity
8
0
100
AcDbLine
10
5.2851550000000005
20
-9916.4838999999993
30
0
11
5.2031239999999999
21
-9916.4058999999997
31
0
0
LINE
5
419
100
AcDbEntity
8
0
100
AcDbLine
10
7.4062550000000016
20
-9915.6406999999999
30
0
11
7.2656300000000007
21
-9915.6306999999997
31
0
0
LINE
5
420
100
AcDbEntity
8
0
100
AcDbLine
10
2.4765709999999999
20
-9932.0373999999993
30
0
11
2.398441
21
-9932.1154000000006
31
0
0
LINE
5
421
100
AcDbEntity
8
0
100
AcDbLine
10
2.253911
20
-9932.2793999999994
30
0
11
2.2695409999999998
21
-9932.4043999999994
31
0
0
LINE
5
422
100
AcDbEntity
8
0
100
AcDbLine
10
24.500004000000004
20
-9930.4308999999994
30
0
11
24.406254000000001
21
-9930.3719000000001
31
0
0
LINE
5
423
100
AcDbEntity
8
0
100
AcDbLine
10
6.7968800000000007
20
-9915.3066999999992
30
0
11
6.6992230000000008
21
-9915.2446999999993
31
0
0
LINE
5
424
100
AcDbEntity
8
0
100
AcDbLine
10
14.679675000000001
20
-9937.5786000000007
30
0
11
14.816394000000003
21
-9937.5436000000009
31
0
0
LINE
5
425
100
AcDbEntity
8
0
100
AcDbLine
10
3.5781350000000001
20
-9934.2067999999999
30
0
11
3.6914160000000007
21
-9934.2618000000002
31
0
0
LINE
5
426
100
AcDbEntity
8
0
100
AcDbLine
10
12.260371951723297
20
-9938.4164341612031
30
0
11
12.320308000000002
21
-9938.3125
31
0
0
LINE
5
427
100
AcDbEntity
8
0
100
AcDbLine
10
23.410162
20
-9931.3006999999998
30
0
11
23.484382
21
-9931.1795999999995
31
0
0
LINE
5
428
100
AcDbEntity
8
0
100
AcDbLine
10
17.890626000000005
20
-9937.4732999999997
30
0
11
17.980466
21
-9937.3873000000003
31
0
0
LINE
5
429
100
AcDbEntity
8
0
100
AcDbLine
10
24.999985000000002
20
-9925.4202000000005
30
0
11
25.097645
21
-9925.369200000001
31
0
0
LINE
5
430
100
AcDbEntity
8
0
100
AcDbLine
10
8.0195319999999999
20
-9914.8086000000003
30
0
11
8.0351569999999999
21
-9914.9140000000007
31
0
0
LINE
5
431
100
AcDbEntity
8
0
100
AcDbLine
10
3.0507909999999998
20
-9932.5930000000008
30
0
11
3.1914160000000003
21
-9932.6200000000026
31
0
0
LINE
5
432
100
AcDbEntity
8
0
100
AcDbLine
10
13.265615
20
-9914.2338
30
0
11
13.128896000000001
21
-9914.2767999999996
31
0
0
LINE
5
433
100
AcDbEntity
8
0
100
AcDbLine
10
2.6250100000000005
20
-9932.6949999999997
30
0
11
2.726572
21
-9932.6479999999992
31
0
0
LINE
5
434
100
AcDbEntity
8
0
100
AcDbLine
10
21.628917000000001
20
-9917.9091000000008
30
0
11
21.496104000000003
21
-9917.8701000000001
31
0
0
LINE
5
435
100
AcDbEntity
8
0
100
AcDbLine
10
8.0351569999999999
20
-9914.9140000000007
30
0
11
8.0390669999999993
21
-9915.0272999999997
31
0
0
LINE
5
436
100
AcDbEntity
8
0
100
AcDbLine
10
0.81249400000000005
20
-9928.7731999999996
30
0
11
0.87890400000000024
21
-9929.0349999999999
31
0
0
LINE
5
437
100
AcDbEntity
8
0
100
AcDbLine
10
1.8085830000000003
20
-9922.4997000000003
30
0
11
1.7265529999999998
21
-9922.6169000000009
31
0
0
LINE
5
438
100
AcDbEntity
8
0
100
AcDbLine
10
1.8945130000000001
20
-9922.2302
30
0
11
1.867173
21
-9922.3708000000006
31
0
0
LINE
5
439
100
AcDbEntity
8
0
100
AcDbLine
10
23.664062000000001
20
-9919.7855
30
0
11
23.726562000000001
21
-9919.6875
31
0
0
LINE
5
440
100
AcDbEntity
8
0
100
AcDbLine
10
4.7773570000000003
20
-9935.3991000000005
30
0
11
4.9804820000000003
21
-9935.5748999999996
31
0
0
LINE
5
441
100
AcDbEntity
8
0
100
AcDbLine
10
1.5038970000000003
20
-9930.8899999999994
30
0
11
1.5898370000000004
21
-9930.9760000000006
31
0
0
LINE
5
442
100
AcDbEntity
8
0
100
AcDbLine
10
5.7148570000000012
20
-9935.3209000000024
30
0
11
5.8554820000000003
21
-9935.3369000000002
31
0
0
LINE
5
443
100
AcDbEntity
8
0
100
AcDbLine
10
24.695306000000002
20
-9922.8210999999992
30
0
11
24.585930999999999
21
-9922.8051000000014
31
0
0
LINE
5
444
100
AcDbEntity
8
0
100
AcDbLine
10
16.164054
20
-9914.3894
30
0
11
16.148423999999999
21
-9914.2800999999999
31
0
0
LINE
5
445
100
AcDbEntity
8
0
100
AcDbLine
10
7.9765820000000005
20
-9936.7056000000011
30
0
11
8.0273630000000011
21
-9936.8384000000005
31
0
0
LINE
5
446
100
AcDbEntity
8
0
100
AcDbLine
10
23.410162
20
-9920.6682999999994
30
0
11
23.355472000000002
21
-9920.5355000000018
31
0
0
LINE
5
447
100
AcDbEntity
8
0
100
AcDbLine
10
24.105474000000001
20
-9930.0169999999998
30
0
11
24.078134000000002
21
-9929.8803000000007
31
0
0
LINE
5
448
100
AcDbEntity
8
0
100
AcDbLine
10
24.273444000000005
20
-9920.9791000000005
30
0
11
24.164069000000001
21
-9921.0100999999995
31
0
0
LINE
5
449
100
AcDbEntity
8
0
100
AcDbLine
10
1.2773540000000003
20
-9926.1265999999996
30
0
11
1.238294
21
-9926.2633000000005
31
0
0
LINE
5
450
100
AcDbEntity
8
0
100
AcDbLine
10
12.378905
20
-9913.8778000000002
30
0
11
12.343745000000002
21
-9913.7723000000005
31
0
0
LINE
5
451
100
AcDbEntity
8
0
100
AcDbLine
10
25.425769000000003
20
-9927.0977000000003
30
0
11
25.449209000000003
21
-9926.8281000000006
31
0
0
LINE
5
452
100
AcDbEntity
8
0
100
AcDbLine
10
13.835923999999999
20
-9938.4531000000025
30
0
11
14.101549
21
-9938.4301000000014
31
0
0
LINE
5
453
100
AcDbEntity
8
0
100
AcDbLine
10
7.8008010000000008
20
-9936.4868999999999
30
0
11
7.9023630000000011
21
-9936.5884000000005
31
0
0
LINE
5
454
100
AcDbEntity
8
0
100
AcDbLine
10
1.8124830000000003
20
-9921.8199999999997
30
0
11
1.871073
21
-9921.9488999999994
31
0
0
LINE
5
455
100
AcDbEntity
8
0
100
AcDbLine
10
17.890626999999999
20
-9914.4950000000026
30
0
11
17.644532999999999
21
-9914.3934000000008
31
0
0
LINE
5
456
100
AcDbEntity
8
0
100
AcDbLine
10
6.2851580000000009
20
-9915.6201999999994
30
0
11
6.332033
21
-9915.7217000000001
31
0
0
LINE
5
457
100
AcDbEntity
8
0
100
AcDbLine
10
8.7422029999999999
20
-9937.2446
30
0
11
8.8281410000000005
21
-9937.1705999999995
31
0
0
LINE
5
458
100
AcDbEntity
8
0
100
AcDbLine
10
2.3906139999999998
20
-9920.8878999999997
30
0
11
2.2734259999999997
21
-9920.9658999999992
31
0
0
LINE
5
459
100
AcDbEntity
8
0
100
AcDbLine
10
2.5117130000000003
20
-9919.2669000000005
30
0
11
2.4101509999999999
21
-9919.3369000000002
31
0
0
LINE
5
460
100
AcDbEntity
8
0
100
AcDbLine
10
24.906235000000002
20
-9925.4791999999998
30
0
11
24.999985000000002
21
-9925.4202000000005
31
0
0
LINE
5
461
100
AcDbEntity
8
0
100
AcDbLine
10
16.261704000000002
20
-9914.6198999999997
30
0
11
16.191393999999999
21
-9914.4987999999994
31
0
0
LINE
5
462
100
AcDbEntity
8
0
100
AcDbLine
10
22.609385999999997
20
-9933.8845999999994
30
0
11
22.566416
21
-9933.7790999999997
31
0
0
LINE
5
463
100
AcDbEntity
8
0
100
AcDbLine
10
1.4257819999999999
20
-9923.8696999999993
30
0
11
1.4453120000000004
21
-9924.0102999999999
31
0
0
LINE
5
464
100
AcDbEntity
8
0
100
AcDbLine
10
0.82423000000000002
20
-9927.2620000000006
30
0
11
0.92969899999999994
21
-9927.2780000000021
31
0
0
LINE
5
465
100
AcDbEntity
8
0
100
AcDbLine
10
20.878920999999998
20
-9916.3619999999992
30
0
11
20.773451999999999
21
-9916.4050000000007
31
0
0
LINE
5
466
100
AcDbEntity
8
0
100
AcDbLine
10
10.625011000000002
20
-9937.6844000000001
30
0
11
10.742198
21
-9937.6064000000006
31
0
0
LINE
5
467
100
AcDbEntity
8
0
100
AcDbLine
10
0.55079
20
-9924.8723000000027
30
0
11
0.52734999999999999
21
-9925.1378999999997
31
0
0
LINE
5
468
100
AcDbEntity
8
0
100
AcDbLine
10
24.999985000000002
20
-9926.5460000000003
30
0
11
24.906235000000002
21
-9926.4869999999992
31
0
0
LINE
5
469
100
AcDbEntity
8
0
100
AcDbLine
10
17.999987000000001
20
-9915.2685999999994
30
0
11
17.949207000000001
21
-9915.1358
31
0
0
LINE
5
470
100
AcDbEntity
8
0
100
AcDbLine
10
0.83593400000000018
20
-9923.3197
30
0
11
0.92187400000000008
21
-9923.3937000000005
31
0
0
LINE
5
471
100
AcDbEntity
8
0
100
AcDbLine
10
2.390619
20
-9931.0799999999999
30
0
11
2.492181
21
-9931.1815999999999
31
0
0
LINE
5
472
100
AcDbEntity
8
0
100
AcDbLine
10
2.6445310000000006
20
-9931.5761000000002
30
0
11
2.6367310000000006
21
-9931.7167000000009
31
0
0
LINE
5
473
100
AcDbEntity
8
0
100
AcDbLine
10
22.425785999999999
20
-9933.6070999999993
30
0
11
22.375006000000003
21
-9933.5090999999993
31
0
0
LINE
5
474
100
AcDbEntity
8
0
100
AcDbLine
10
8.3320469999999993
20
-9937.5805999999993
30
0
11
8.4570469999999993
21
-9937.5805999999993
31
0
0
LINE
5
475
100
AcDbEntity
8
0
100
AcDbLine
10
25.265611000000003
20
-9924.7170999999998
30
0
11
25.152329000000005
21
-9924.7070999999996
31
0
0
LINE
5
476
100
AcDbEntity
8
0
100
AcDbLine
10
22.660157000000002
20
-9932.6771000000008
30
0
11
22.785157000000002
21
-9932.6180999999997
31
0
0
LINE
5
477
100
AcDbEntity
8
0
100
AcDbLine
10
6.3476759999999999
20
-9936.5712999999996
30
0
11
6.578145000000001
21
-9936.7119000000002
31
0
0
LINE
5
478
100
AcDbEntity
8
0
100
AcDbLine
10
8.0273479999999999
20
-9915.1366999999991
30
0
11
7.9765670000000011
21
-9915.2695000000003
31
0
0
LINE
5
479
100
AcDbEntity
8
0
100
AcDbLine
10
18.710925
20
-9936.3430000000008
30
0
11
18.847643999999999
21
-9936.3780000000006
31
0
0
LINE
5
480
100
AcDbEntity
8
0
100
AcDbLine
10
14.816395000000002
20
-9914.4354999999996
30
0
11
14.679676000000001
21
-9914.3965000000007
31
0
0
LINE
5
481
100
AcDbEntity
8
0
100
AcDbLine
10
23.144532000000005
20
-9932.6151000000009
30
0
11
23.250001000000001
21
-9932.6460999999999
31
0
0
LINE
5
482
100
AcDbEntity
8
0
100
AcDbLine
10
24.601548000000001
20
-9923.7340999999997
30
0
11
24.679678000000003
21
-9923.6169000000009
31
0
0
LINE
5
483
100
AcDbEntity
8
0
100
AcDbLine
10
8.5429689999999994
20
-9914.4722999999994
30
0
11
8.4570319999999999
21
-9914.3942999999999
31
0
0
LINE
5
484
100
AcDbEntity
8
0
100
AcDbLine
10
24.238284
20
-9930.2319000000007
30
0
11
24.164064
21
-9930.1458999999995
31
0
0
LINE
5
485
100
AcDbEntity
8
0
100
AcDbLine
10
24.726548000000005
20
-9927.4400000000023
30
0
11
24.835923000000001
21
-9927.3539999999994
31
0
0
LINE
5
486
100
AcDbEntity
8
0
100
AcDbLine
10
21.984385
20
-9934.1229000000003
30
0
11
22.082045000000004
21
-9934.1739000000016
31
0
0
LINE
5
487
100
AcDbEntity
8
0
100
AcDbLine
10
2.6367310000000006
20
-9931.7167000000009
30
0
11
2.6015709999999999
21
-9931.8534
31
0
0
LINE
5
488
100
AcDbEntity
8
0
100
AcDbLine
10
9.7851569999999999
20
-9914.4997999999996
30
0
11
9.7148439999999994
21
-9914.6208999999999
31
0
0
LINE
5
489
100
AcDbEntity
8
0
100
AcDbLine
10
2.476566
20
-9919.9344000000001
30
0
11
2.5429760000000003
21
-9920.0203999999994
31
0
0
LINE
5
490
100
AcDbEntity
8
0
100
AcDbLine
10
15.652331000000002
20
-9913.8320000000003
30
0
11
15.578111
21
-9913.9220000000005
31
0
0
LINE
5
491
100
AcDbEntity
8
0
100
AcDbLine
10
24.937486
20
-9927.3070000000007
30
0
11
25.046861000000003
21
-9927.2759999999998
31
0
0
LINE
5
492
100
AcDbEntity
8
0
100
AcDbLine
10
15.101550000000001
20
-9937.5535999999993
30
0
11
15.234363000000002
21
-9937.6046000000006
31
0
0
LINE
5
493
100
AcDbEntity
8
0
100
AcDbLine
10
3.5507910000000003
20
-9933.6090000000004
30
0
11
3.4882910000000007
21
-9933.6990000000005
31
0
0
LINE
5
494
100
AcDbEntity
8
0
100
AcDbLine
10
14.960926000000001
20
-9914.4454999999998
30
0
11
14.816395000000002
21
-9914.4354999999996
31
0
0
LINE
5
495
100
AcDbEntity
8
0
100
AcDbLine
10
22.449217000000004
20
-9919.1055000000015
30
0
11
22.378907000000005
21
-9918.9804999999997
31
0
0
LINE
5
496
100
AcDbEntity
8
0
100
AcDbLine
10
16.472642
20
-9914.8073999999997
30
0
11
16.355454000000002
21
-9914.7253999999994
31
0
0
LINE
5
497
100
AcDbEntity
8
0
100
AcDbLine
10
13.835925
20
-9913.5259999999998
30
0
11
13.714827
21
-9913.5650000000005
31
0
0
LINE
5
498
100
AcDbEntity
8
0
100
AcDbLine
10
4.3476509999999999
20
-9917.9099999999999
30
0
11
4.2070260000000008
21
-9917.9099999999999
31
0
0
LINE
5
499
100
AcDbEntity
8
0
100
AcDbLine
10
3.1914010000000004
20
-9919.3569000000007
30
0
11
3.0507759999999999
21
-9919.3839000000007
31
0
0
LINE
5
500
100
AcDbEntity
8
0
100
AcDbLine
10
6.2773630000000002
20
-9936.4696999999996
30
0
11
6.3476759999999999
21
-9936.5712999999996
31
0
0
LINE
5
501
100
AcDbEntity
8
0
100
AcDbLine
10
25.312489000000006
20
-9925.3142000000007
30
0
11
25.410149000000004
21
-9925.2522000000008
31
0
0
LINE
5
502
100
AcDbEntity
8
0
100
AcDbLine
10
22.570326000000001
20
-9934.0018000000018
30
0
11
22.609385999999997
21
-9933.8845999999994
31
0
0
LINE
5
503
100
AcDbEntity
8
0
100
AcDbLine
10
1.867173
20
-9922.3708000000006
30
0
11
1.8085830000000003
21
-9922.4997000000003
31
0
0
LINE
5
504
100
AcDbEntity
8
0
100
AcDbLine
10
0.52734999999999999
20
-9925.1378999999997
30
0
11
0.56641000000000008
21
-9925.2551000000003
31
0
0
LINE
5
505
100
AcDbEntity
8
0
100
AcDbLine
10
6.3632800000000014
20
-9916.1826999999994
30
0
11
6.3046860000000002
21
-9916.3116000000009
31
0
0
LINE
5
506
100
AcDbEntity
8
0
100
AcDbLine
10
12.343745000000002
20
-9913.7723000000005
30
0
11
12.320305000000003
21
-9913.6630000000005
31
0
0
LINE
5
507
100
AcDbEntity
8
0
100
AcDbLine
10
21.058613000000005
20
-9917.1983999999993
30
0
11
21.082052999999998
21
-9917.0930000000008
31
0
0
LINE
5
508
100
AcDbEntity
8
0
100
AcDbLine
10
19.613298
20
-9916.1818000000003
30
0
11
19.585957999999998
21
-9916.0450999999994
31
0
0
LINE
5
509
100
AcDbEntity
8
0
100
AcDbLine
10
24.316414000000002
20
-9930.3099000000002
30
0
11
24.238284
21
-9930.2319000000007
31
0
0
LINE
5
510
100
AcDbEntity
8
0
100
AcDbLine
10
0.77344499999999994
20
-9925.3371000000006
30
0
11
0.87891400000000008
21
-9925.3721000000005
31
0
0
LINE
5
511
100
AcDbEntity
8
0
100
AcDbLine
10
21.199232000000002
20
-9935.3971999999994
30
0
11
21.257822000000001
21
-9935.2878999999994
31
0
0
LINE
5
512
100
AcDbEntity
8
0
100
AcDbLine
10
6.3828139999999998
20
-9915.9366000000009
30
0
11
6.3906240000000007
21
-9916.0460000000021
31
0
0
LINE
5
513
100
AcDbEntity
8
0
100
AcDbLine
10
2.6249950000000006
20
-9919.2769000000008
30
0
11
2.5117130000000003
21
-9919.2669000000005
31
0
0
LINE
5
514
100
AcDbEntity
8
0
100
AcDbLine
10
23.703132
20
-9920.9650999999994
30
0
11
23.585944000000005
21
-9920.8870999999999
31
0
0
LINE
5
515
100
AcDbEntity
8
0
100
AcDbLine
10
1.7265529999999998
20
-9922.6169000000009
30
0
11
1.6210840000000002
21
-9922.7109
31
0
0
LINE
5
516
100
AcDbEntity
8
0
100
AcDbLine
10
1.4257819999999999
20
-9928.1021999999994
30
0
11
1.3750020000000003
21
-9928.2311000000009
31
0
0
LINE
5
517
100
AcDbEntity
8
0
100
AcDbLine
10
8.6640779999999999
20
-9937.3225999999995
30
0
11
8.7422029999999999
21
-9937.2446
31
0
0
LINE
5
518
100
AcDbEntity
8
0
100
AcDbLine
10
11.296871000000001
20
-9914.3974999999991
30
0
11
11.160152
21
-9914.4364999999998
31
0
0
LINE
5
519
100
AcDbEntity
8
0
100
AcDbLine
10
3.3164160000000003
20
-9932.6790000000001
30
0
11
3.4296970000000004
21
-9932.7610000000004
31
0
0
LINE
5
520
100
AcDbEntity
8
0
100
AcDbLine
10
3.4062450000000002
20
-9917.9732000000004
30
0
11
3.3671820000000001
21
-9918.0903999999991
31
0
0
LINE
5
521
100
AcDbEntity
8
0
100
AcDbLine
10
1.121092
20
-9928.4842000000008
30
0
11
1.027342
21
-9928.5352000000021
31
0
0
LINE
5
522
100
AcDbEntity
8
0
100
AcDbLine
10
23.664062000000001
20
-9932.1834999999992
30
0
11
23.578122
21
-9932.1134999999995
31
0
0
LINE
5
523
100
AcDbEntity
8
0
100
AcDbLine
10
22.375007
20
-9918.4649000000009
30
0
11
22.425787
21
-9918.3669000000009
31
0
0
LINE
5
524
100
AcDbEntity
8
0
100
AcDbLine
10
17.234362000000001
20
-9937.2427000000025
30
0
11
17.312492000000002
21
-9937.3207000000002
31
0
0
LINE
5
525
100
AcDbEntity
8
0
100
AcDbLine
10
2.2695259999999999
20
-9919.5673000000006
30
0
11
2.2499959999999999
21
-9919.6883999999991
31
0
0
LINE
5
526
100
AcDbEntity
8
0
100
AcDbLine
10
4.7461070000000003
20
-9935.1803999999993
30
0
11
4.7187640000000002
21
-9935.2896999999994
31
0
0
LINE
5
527
100
AcDbEntity
8
0
100
AcDbLine
10
14.253895000000004
20
-9913.7095000000008
30
0
11
14.210925000000001
21
-9913.6039999999994
31
0
0
LINE
5
528
100
AcDbEntity
8
0
100
AcDbLine
10
5.5781239999999999
20
-9916.6399000000001
30
0
11
5.4726550000000005
21
-9916.5969000000005
31
0
0
LINE
5
529
100
AcDbEntity
8
0
100
AcDbLine
10
8.0273630000000011
20
-9936.8384000000005
30
0
11
8.0390820000000005
21
-9936.9477999999999
31
0
0
LINE
5
530
100
AcDbEntity
8
0
100
AcDbLine
10
22.425787
20
-9918.3669000000009
30
0
11
22.488287000000003
21
-9918.2769000000008
31
0
0
LINE
5
531
100
AcDbEntity
8
0
100
AcDbLine
10
25.203114000000006
20
-9926.6280000000006
30
0
11
25.097645
21
-9926.5930000000008
31
0
0
LINE
5
532
100
AcDbEntity
8
0
100
AcDbLine
10
7.6797070000000014
20
-9936.4089000000022
30
0
11
7.8008010000000008
21
-9936.4868999999999
31
0
0
LINE
5
533
100
AcDbEntity
8
0
100
AcDbLine
10
4.6093849999999996
20
-9934.1718000000001
30
0
11
4.7187599999999996
21
-9934.2618000000002
31
0
0
LINE
5
534
100
AcDbEntity
8
0
100
AcDbLine
10
24.167964000000005
20
-9929.4701999999997
30
0
11
24.249994000000004
21
-9929.3529999999992
31
0
0
LINE
5
535
100
AcDbEntity
8
0
100
AcDbLine
10
5.714842
20
-9916.6559000000016
30
0
11
5.5781239999999999
21
-9916.6399000000001
31
0
0
LINE
5
536
100
AcDbEntity
8
0
100
AcDbLine
10
14.210925000000001
20
-9913.6039999999994
30
0
11
14.10155
21
-9913.5490000000009
31
0
0
LINE
5
537
100
AcDbEntity
8
0
100
AcDbLine
10
4.7187489999999999
20
-9916.6869999999999
30
0
11
4.746092
21
-9916.7963999999993
31
0
0
LINE
5
538
100
AcDbEntity
8
0
100
AcDbLine
10
14.277324
20
-9938.0470000000023
30
0
11
14.312484000000001
21
-9937.9415000000008
31
0
0
LINE
5
539
100
AcDbEntity
8
0
100
AcDbLine
10
23.378892
20
-9920.1175000000003
30
0
11
23.433582000000005
21
-9920.0195000000003
31
0
0
LINE
5
540
100
AcDbEntity
8
0
100
AcDbLine
10
21.230483000000003
20
-9916.7955000000002
30
0
11
21.257823000000005
21
-9916.6861000000026
31
0
0
LINE
5
541
100
AcDbEntity
8
0
100
AcDbLine
10
1.339852
20
-9924.4166000000005
30
0
11
1.2500120000000001
21
-9924.5298999999995
31
0
0
LINE
5
542
100
AcDbEntity
8
0
100
AcDbLine
10
8.0390820000000005
20
-9936.9477999999999
30
0
11
8.0351719999999993
21
-9937.0571999999993
31
0
0
LINE
5
543
100
AcDbEntity
8
0
100
AcDbLine
10
15.488271000000001
20
-9914.1214999999993
30
0
11
15.421861
21
-9914.2155000000002
31
0
0
LINE
5
544
100
AcDbEntity
8
0
100
AcDbLine
10
16.148423999999999
20
-9914.1707000000006
30
0
11
16.160144000000003
21
-9914.0612999999994
31
0
0
LINE
5
545
100
AcDbEntity
8
0
100
AcDbLine
10
16.160142999999998
20
-9937.9187999999995
30
0
11
16.148423000000001
21
-9937.8094000000019
31
0
0
LINE
5
546
100
AcDbEntity
8
0
100
AcDbLine
10
9.2343759999999993
20
-9914.8942999999999
30
0
11
9.0937509999999993
21
-9914.8942999999999
31
0
0
LINE
5
547
100
AcDbEntity
8
0
100
AcDbLine
10
11.015636000000002
20
-9937.5354000000007
30
0
11
11.160167000000001
21
-9937.5454000000009
31
0
0
LINE
5
548
100
AcDbEntity
8
0
100
AcDbLine
10
9.0937660000000005
20
-9937.0846000000001
30
0
11
9.2343910000000005
21
-9937.0846000000001
31
0
0
LINE
5
549
100
AcDbEntity
8
0
100
AcDbLine
10
12.320305000000003
20
-9913.6630000000005
30
0
11
12.261714999999999
21
-9913.5650000000005
31
0
0
LINE
5
550
100
AcDbEntity
8
0
100
AcDbLine
10
9.8281410000000022
20
-9937.8112999999994
30
0
11
9.8164219999999993
21
-9937.9207000000006
31
0
0
LINE
5
551
100
AcDbEntity
8
0
100
AcDbLine
10
24.406254000000001
20
-9930.3719000000001
30
0
11
24.316414000000002
21
-9930.3099000000002
31
0
0
LINE
5
552
100
AcDbEntity
8
0
100
AcDbLine
10
24.539038000000005
20
-9924.1481999999996
30
0
11
24.531238000000002
21
-9924.0074999999997
31
0
0
LINE
5
553
100
AcDbEntity
8
0
100
AcDbLine
10
23.464845000000004
20
-9919.2659999999996
30
0
11
23.351564000000003
21
-9919.2759999999998
31
0
0
LINE
5
554
100
AcDbEntity
8
0
100
AcDbLine
10
15.539050000000001
20
-9937.9526000000005
30
0
11
15.578110000000001
21
-9938.0581000000002
31
0
0
LINE
5
555
100
AcDbEntity
8
0
100
AcDbLine
10
24.835923000000001
20
-9927.3539999999994
30
0
11
24.937486
21
-9927.3070000000007
31
0
0
LINE
5
556
100
AcDbEntity
8
0
100
AcDbLine
10
13.597637000000001
20
-9913.8778000000002
30
0
11
13.550767
21
-9913.9758000000002
31
0
0
LINE
5
557
100
AcDbEntity
8
0
100
AcDbLine
10
7.5468800000000016
20
-9915.6136999999999
30
0
11
7.4062550000000016
21
-9915.6406999999999
31
0
0
LINE
5
558
100
AcDbEntity
8
0
100
AcDbLine
10
3.8945410000000003
20
-9934.1758000000009
30
0
11
3.992197
21
-9934.1247999999996
31
0
0
LINE
5
559
100
AcDbEntity
8
0
100
AcDbLine
10
16.355454000000002
20
-9914.7253999999994
30
0
11
16.261704000000002
21
-9914.6198999999997
31
0
0
LINE
5
560
100
AcDbEntity
8
0
100
AcDbLine
10
22.316407000000002
20
-9918.7070000000003
30
0
11
22.332037000000003
21
-9918.5663999999997
31
0
0
LINE
5
561
100
AcDbEntity
8
0
100
AcDbLine
10
3.367197
20
-9933.8865000000005
30
0
11
3.4062600000000005
21
-9934.0036999999993
31
0
0
LINE
5
562
100
AcDbEntity
8
0
100
AcDbLine
10
17.937487000000001
20
-9915.0264000000025
30
0
11
17.941386999999999
21
-9914.9132000000009
31
0
0
LINE
5
563
100
AcDbEntity
8
0
100
AcDbLine
10
6.9453170000000011
20
-9915.4707000000017
30
0
11
6.8671920000000011
21
-9915.3927000000003
31
0
0
LINE
5
564
100
AcDbEntity
8
0
100
AcDbLine
10
18.074206
20
-9936.5866000000005
30
0
11
18.175768999999999
21
-9936.4850000000006
31
0
0
LINE
5
565
100
AcDbEntity
8
0
100
AcDbLine
10
23.707032000000005
20
-9919.5663999999997
30
0
11
23.566408000000003
21
-9919.3359999999993
31
0
0
LINE
5
566
100
AcDbEntity
8
0
100
AcDbLine
10
3.4296820000000006
20
-9919.2119000000002
30
0
11
3.3164010000000004
21
-9919.2978999999996
31
0
0
LINE
5
567
100
AcDbEntity
8
0
100
AcDbLine
10
2.726572
20
-9932.6479999999992
30
0
11
2.8320410000000003
21
-9932.6170000000002
31
0
0
LINE
5
568
100
AcDbEntity
8
0
100
AcDbLine
10
2.601566
20
-9920.1183999999994
30
0
11
2.6367259999999999
21
-9920.2551000000003
31
0
0
LINE
5
569
100
AcDbEntity
8
0
100
AcDbLine
10
15.234364000000003
20
-9914.3755000000019
30
0
11
15.101551000000002
21
-9914.4264999999996
31
0
0
LINE
5
570
100
AcDbEntity
8
0
100
AcDbLine
10
2.4101509999999999
20
-9919.3369000000002
30
0
11
2.2695259999999999
21
-9919.5673000000006
31
0
0
LINE
5
571
100
AcDbEntity
8
0
100
AcDbLine
10
22.175796000000002
20
-9917.7381000000023
30
0
11
22.082045999999998
21
-9917.8001000000004
31
0
0
LINE
5
572
100
AcDbEntity
8
0
100
AcDbLine
10
2.1406139999999998
20
-9921.0169000000005
30
0
11
2.0312389999999998
21
-9921.0288999999993
31
0
0
LINE
5
573
100
AcDbEntity
8
0
100
AcDbLine
10
24.355462000000003
20
-9922.7080999999998
30
0
11
24.249994000000004
21
-9922.6141000000007
31
0
0
LINE
5
574
100
AcDbEntity
8
0
100
AcDbLine
10
20.261734000000004
20
-9916.6550000000007
30
0
11
20.121109000000001
21
-9916.6389999999992
31
0
0
LINE
5
575
100
AcDbEntity
8
0
100
AcDbLine
10
2.031244
20
-9930.9429999999993
30
0
11
2.140619
21
-9930.9549999999999
31
0
0
LINE
5
576
100
AcDbEntity
8
0
100
AcDbLine
10
15.773424
20
-9938.1641
30
0
11
16.035142999999998
21
-9938.1021000000001
31
0
0
LINE
5
577
100
AcDbEntity
8
0
100
AcDbLine
10
14.277325000000001
20
-9913.9282000000003
30
0
11
14.261695000000003
21
-9913.8227000000006
31
0
0
LINE
5
578
100
AcDbEntity
8
0
100
AcDbLine
10
1.570298
20
-9930.3739000000005
30
0
11
1.476548
21
-9930.4328999999998
31
0
0
LINE
5
579
100
AcDbEntity
8
0
100
AcDbLine
10
3.6601510000000004
20
-9918.7078999999994
30
0
11
3.6445260000000008
21
-9918.8485999999994
31
0
0
LINE
5
580
100
AcDbEntity
8
0
100
AcDbLine
10
23.835944000000001
20
-9921.0161000000007
30
0
11
23.703132
21
-9920.9650999999994
31
0
0
LINE
5
581
100
AcDbEntity
8
0
100
AcDbLine
10
0.77344499999999994
20
-9926.6309000000001
30
0
11
0.66406999999999994
21
-9926.6538999999993
31
0
0
LINE
5
582
100
AcDbEntity
8
0
100
AcDbLine
10
24.640608000000004
20
-9924.4138000000003
30
0
11
24.574198000000003
21
-9924.2888000000003
31
0
0
LINE
5
583
100
AcDbEntity
8
0
100
AcDbLine
10
25.054677000000002
20
-9928.5722000000005
30
0
11
24.949207999999999
21
-9928.5331999999999
31
0
0
LINE
5
584
100
AcDbEntity
8
0
100
AcDbLine
10
19.179675
20
-9915.3058000000019
30
0
11
19.109365
21
-9915.3917999999994
31
0
0
LINE
5
585
100
AcDbEntity
8
0
100
AcDbLine
10
0.56641000000000008
20
-9926.7129000000004
30
0
11
0.52734999999999999
21
-9926.8300999999992
31
0
0
LINE
5
586
100
AcDbEntity
8
0
100
AcDbLine
10
24.585930999999999
20
-9922.8051000000014
30
0
11
24.476556000000002
21
-9922.7780999999995
31
0
0
LINE
5
587
100
AcDbEntity
8
0
100
AcDbLine
10
1.8945180000000001
20
-9929.7417000000005
30
0
11
1.8984179999999999
21
-9929.8822999999993
31
0
0
LINE
5
588
100
AcDbEntity
8
0
100
AcDbLine
10
5.5781390000000011
20
-9935.3369000000002
30
0
11
5.7148570000000012
21
-9935.3209000000024
31
0
0
LINE
5
589
100
AcDbEntity
8
0
100
AcDbLine
10
16.160144000000003
20
-9914.0612999999994
30
0
11
16.132804
21
-9913.9480000000003
31
0
0
LINE
5
590
100
AcDbEntity
8
0
100
AcDbLine
10
8.4570469999999993
20
-9937.5805999999993
30
0
11
8.5429839999999988
21
-9937.5066000000006
31
0
0
LINE
5
591
100
AcDbEntity
8
0
100
AcDbLine
10
24.078134000000002
20
-9929.8803000000007
30
0
11
24.082034
21
-9929.7397000000001
31
0
0
LINE
5
592
100
AcDbEntity
8
0
100
AcDbLine
10
4.9804820000000003
20
-9935.5748999999996
30
0
11
5.0976699999999999
21
-9935.6139000000003
31
0
0
LINE
5
593
100
AcDbEntity
8
0
100
AcDbLine
10
13.386708
20
-9914.1677999999993
30
0
11
13.265615
21
-9914.2338
31
0
0
LINE
5
594
100
AcDbEntity
8
0
100
AcDbLine
10
15.421861
20
-9914.2155000000002
30
0
11
15.351551000000001
21
-9914.2975000000006
31
0
0
LINE
5
595
100
AcDbEntity
8
0
100
AcDbLine
10
13.656237000000001
20
-9913.6630000000005
30
0
11
13.632797
21
-9913.7723000000005
31
0
0
LINE
5
596
100
AcDbEntity
8
0
100
AcDbLine
10
19.671887999999999
20
-9916.3107
30
0
11
19.613298
21
-9916.1818000000003
31
0
0
LINE
5
597
100
AcDbEntity
8
0
100
AcDbLine
10
16.148423000000001
20
-9937.7000000000007
30
0
11
16.164052999999999
21
-9937.5907000000007
31
0
0
LINE
5
598
100
AcDbEntity
8
0
100
AcDbLine
10
4.2070260000000008
20
-9917.9099999999999
30
0
11
4.0976509999999999
21
-9917.8870000000006
31
0
0
LINE
5
599
100
AcDbEntity
8
0
100
AcDbLine
10
3.8945260000000004
20
-9917.8009999999995
30
0
11
3.8007760000000008
21
-9917.7389999999996
31
0
0
LINE
5
600
100
AcDbEntity
8
0
100
AcDbLine
10
10.203126000000001
20
-9913.8130000000001
30
0
11
9.9414069999999999
21
-9913.875
31
0
0
LINE
5
601
100
AcDbEntity
8
0
100
AcDbLine
10
1.4375120000000003
20
-9924.1509999999998
30
0
11
1.402352
21
-9924.2916000000005
31
0
0
LINE
5
602
100
AcDbEntity
8
0
100
AcDbLine
10
2.9414009999999999
20
-9919.3739000000005
30
0
11
2.8320260000000004
21
-9919.3549000000003
31
0
0
LINE
5
603
100
AcDbEntity
8
0
100
AcDbLine
10
4.3476660000000003
20
-9934.0668000000005
30
0
11
4.4843849999999996
21
-9934.1057999999994
31
0
0
LINE
5
604
100
AcDbEntity
8
0
100
AcDbLine
10
18.847645
20
-9915.5907999999999
30
0
11
18.710926000000001
21
-9915.6298000000024
31
0
0
LINE
5
605
100
AcDbEntity
8
0
100
AcDbLine
10
1.621089
20
-9929.2610000000022
30
0
11
1.7265580000000003
21
-9929.3549999999996
31
0
0
LINE
5
606
100
AcDbEntity
8
0
100
AcDbLine
10
24.699205000000003
20
-9925.8385999999991
30
0
11
24.738264999999998
21
-9925.7057000000004
31
0
0
LINE
5
607
100
AcDbEntity
8
0
100
AcDbLine
10
8.0195469999999993
20
-9937.1666000000005
30
0
11
7.9882970000000011
21
-9937.2720000000008
31
0
0
LINE
5
608
100
AcDbEntity
8
0
100
AcDbLine
10
24.164064
20
-9921.8172000000013
30
0
11
24.238284
21
-9921.7312000000002
31
0
0
LINE
5
609
100
AcDbEntity
8
0
100
AcDbLine
10
11.296886000000001
20
-9937.5804000000026
30
0
11
11.425792
21
-9937.6424000000006
31
0
0
LINE
5
610
100
AcDbEntity
8
0
100
AcDbLine
10
1.2500120000000001
20
-9927.4419999999991
30
0
11
1.339852
21
-9927.5514000000003
31
0
0
LINE
5
611
100
AcDbEntity
8
0
100
AcDbLine
10
1.6601380000000001
20
-9930.3119000000006
30
0
11
1.570298
21
-9930.3739000000005
31
0
0
LINE
5
612
100
AcDbEntity
8
0
100
AcDbLine
10
19.109365
20
-9915.3917999999994
30
0
11
19.031235000000002
21
-9915.4698000000008
31
0
0
LINE
5
613
100
AcDbEntity
8
0
100
AcDbLine
10
24.249994000000004
20
-9929.3529999999992
30
0
11
24.355462000000003
21
-9929.259
31
0
0
LINE
5
614
100
AcDbEntity
8
0
100
AcDbLine
10
25.027337000000003
20
-9922.8361000000004
30
0
11
24.914056000000002
21
-9922.8091000000004
31
0
0
LINE
5
615
100
AcDbEntity
8
0
100
AcDbLine
10
11.425792
20
-9937.6424000000006
30
0
11
11.535167
21
-9937.7324000000008
31
0
0
LINE
5
616
100
AcDbEntity
8
0
100
AcDbLine
10
23.332032000000002
20
-9931.5740999999998
30
0
11
23.355472000000002
21
-9931.4334999999992
31
0
0
LINE
5
617
100
AcDbEntity
8
0
100
AcDbLine
10
11.015621000000003
20
-9914.4465
30
0
11
10.874996000000001
21
-9914.4274999999998
31
0
0
LINE
5
618
100
AcDbEntity
8
0
100
AcDbLine
10
0.66406999999999994
20
-9925.3171000000002
30
0
11
0.77344499999999994
21
-9925.3371000000006
31
0
0
LINE
5
619
100
AcDbEntity
8
0
100
AcDbLine
10
24.472664999999999
20
-9930.8880000000008
30
0
11
24.578133999999999
21
-9930.6380000000008
31
0
0
LINE
5
620
100
AcDbEntity
8
0
100
AcDbLine
10
17.988265999999999
20
-9937.2701000000015
30
0
11
17.957016000000003
21
-9937.1646999999994
31
0
0
LINE
5
621
100
AcDbEntity
8
0
100
AcDbLine
10
2.3984360000000002
20
-9919.8564000000006
30
0
11
2.476566
21
-9919.9344000000001
31
0
0
LINE
5
622
100
AcDbEntity
8
0
100
AcDbLine
10
24.808575000000005
20
-9926.3814999999995
30
0
11
24.738264999999998
21
-9926.2603999999992
31
0
0
LINE
5
623
100
AcDbEntity
8
0
100
AcDbLine
10
11.722657000000002
20
-9938.2675999999992
30
0
11
11.765627
21
-9938.3770000000004
31
0
0
LINE
5
624
100
AcDbEntity
8
0
100
AcDbLine
10
22.488285999999999
20
-9933.6970999999994
30
0
11
22.425785999999999
21
-9933.6070999999993
31
0
0
LINE
5
625
100
AcDbEntity
8
0
100
AcDbLine
10
12.988274000000002
20
-9937.6866000000009
30
0
11
13.128899000000001
21
-9937.6985999999997
31
0
0
LINE
5
626
100
AcDbEntity
8
0
100
AcDbLine
10
24.386724999999998
20
-9930.974000000002
30
0
11
24.472664999999999
21
-9930.8880000000008
31
0
0
LINE
5
627
100
AcDbEntity
8
0
100
AcDbLine
10
10.742198
20
-9937.6064000000006
30
0
11
10.875011000000001
21
-9937.5553999999993
31
0
0
LINE
5
628
100
AcDbEntity
8
0
100
AcDbLine
10
23.250001000000001
20
-9932.6460999999999
30
0
11
23.351562999999999
21
-9932.6931000000004
31
0
0
LINE
5
629
100
AcDbEntity
8
0
100
AcDbLine
10
1.238294
20
-9926.2633000000005
30
0
11
1.1679839999999999
21
-9926.3844000000026
31
0
0
LINE
5
630
100
AcDbEntity
8
0
100
AcDbLine
10
24.476556000000002
20
-9922.7780999999995
30
0
11
24.355462000000003
21
-9922.7080999999998
31
0
0
LINE
5
631
100
AcDbEntity
8
0
100
AcDbLine
10
12.425775000000002
20
-9913.9758000000002
30
0
11
12.378905
21
-9913.8778000000002
31
0
0
LINE
5
632
100
AcDbEntity
8
0
100
AcDbLine
10
11.535152
20
-9914.2495000000017
30
0
11
11.425777000000002
21
-9914.3354999999992
31
0
0
LINE
5
633
100
AcDbEntity
8
0
100
AcDbLine
10
24.699205000000003
20
-9926.1237000000001
30
0
11
24.683575000000001
21
-9925.9830999999995
31
0
0
LINE
5
634
100
AcDbEntity
8
0
100
AcDbLine
10
6.1132950000000008
20
-9935.4539000000004
30
0
11
6.2226699999999999
21
-9935.5478999999996
31
0
0
LINE
5
635
100
AcDbEntity
8
0
100
AcDbLine
10
15.539051000000001
20
-9914.0234999999993
30
0
11
15.488271000000001
21
-9914.1214999999993
31
0
0
LINE
5
636
100
AcDbEntity
8
0
100
AcDbLine
10
24.574198000000003
20
-9924.2888000000003
30
0
11
24.539038000000005
21
-9924.1481999999996
31
0
0
LINE
5
637
100
AcDbEntity
8
0
100
AcDbLine
10
24.761708000000002
20
-9928.4202000000005
30
0
11
24.679678000000003
21
-9928.3502000000008
31
0
0
LINE
5
638
100
AcDbEntity
8
0
100
AcDbLine
10
24.585930999999999
20
-9929.1620000000003
30
0
11
24.695306000000002
21
-9929.1460000000006
31
0
0
LINE
5
639
100
AcDbEntity
8
0
100
AcDbLine
10
20.402358
20
-9935.3349999999991
30
0
11
20.503920999999998
21
-9935.3780000000006
31
0
0
LINE
5
640
100
AcDbEntity
8
0
100
AcDbLine
10
13.60155
20
-9938.1016
30
0
11
13.636710000000001
21
-9938.2070000000003
31
0
0
LINE
5
641
100
AcDbEntity
8
0
100
AcDbLine
10
22.316406000000001
20
-9933.2630000000026
30
0
11
22.332035999999999
21
-9933.1262999999999
31
0
0
LINE
5
642
100
AcDbEntity
8
0
100
AcDbLine
10
16.132802999999999
20
-9938.0321000000004
30
0
11
16.160142999999998
21
-9937.9187999999995
31
0
0
LINE
5
643
100
AcDbEntity
8
0
100
AcDbLine
10
21.628916
20
-9934.0648999999994
30
0
11
21.769541
21
-9934.0648999999994
31
0
0
LINE
5
644
100
AcDbEntity
8
0
100
AcDbLine
10
12.343748000000001
20
-9938.2070000000003
30
0
11
12.378908000000003
21
-9938.1016
31
0
0
LINE
5
645
100
AcDbEntity
8
0
100
AcDbLine
10
8.5976719999999993
20
-9937.4086000000007
30
0
11
8.6640779999999999
21
-9937.3225999999995
31
0
0
LINE
5
646
100
AcDbEntity
8
0
100
AcDbLine
10
23.339832000000001
20
-9920.2541999999994
30
0
11
23.378892
21
-9920.1175000000003
31
0
0
LINE
5
647
100
AcDbEntity
8
0
100
AcDbLine
10
14.312485000000002
20
-9914.0337
30
0
11
14.277325000000001
21
-9913.9282000000003
31
0
0
LINE
5
648
100
AcDbEntity
8
0
100
AcDbLine
10
14.261695000000003
20
-9913.8227000000006
30
0
11
14.253895000000004
21
-9913.7095000000008
31
0
0
LINE
5
649
100
AcDbEntity
8
0
100
AcDbLine
10
24.531238000000002
20
-9924.0074999999997
30
0
11
24.550768000000001
21
-9923.8669000000009
31
0
0
LINE
5
650
100
AcDbEntity
8
0
100
AcDbLine
10
0.87891400000000008
20
-9926.5959000000003
30
0
11
0.77344499999999994
21
-9926.6309000000001
31
0
0
LINE
5
651
100
AcDbEntity
8
0
100
AcDbLine
10
11.765622
20
-9913.6049999999996
30
0
11
11.722652
21
-9913.7103999999999
31
0
0
LINE
5
652
100
AcDbEntity
8
0
100
AcDbLine
10
1.4375120000000003
20
-9927.8169999999991
30
0
11
1.4453120000000004
21
-9927.9614999999994
31
0
0
LINE
5
653
100
AcDbEntity
8
0
100
AcDbLine
10
24.500004000000004
20
-9921.5362000000005
30
0
11
24.578133999999999
21
-9921.4501999999993
31
0
0
LINE
5
654
100
AcDbEntity
8
0
100
AcDbLine
10
6.3632949999999999
20
-9935.7900000000009
30
0
11
6.3906390000000002
21
-9935.9307000000008
31
0
0
LINE
5
655
100
AcDbEntity
8
0
100
AcDbLine
10
6.2773479999999999
20
-9915.5069000000003
30
0
11
6.2851580000000009
21
-9915.6201999999994
31
0
0
LINE
5
656
100
AcDbEntity
8
0
100
AcDbLine
10
22.785158000000003
20
-9919.3559999999998
30
0
11
22.660157999999999
21
-9919.2970000000023
31
0
0
LINE
5
657
100
AcDbEntity
8
0
100
AcDbLine
10
13.714829999999999
20
-9938.4141
30
0
11
13.835923999999999
21
-9938.4531000000025
31
0
0
LINE
5
658
100
AcDbEntity
8
0
100
AcDbLine
10
19.984389999999998
20
-9935.3819999999996
30
0
11
20.121108
21
-9935.3349999999991
31
0
0
LINE
5
659
100
AcDbEntity
8
0
100
AcDbLine
10
0.92187400000000008
20
-9928.5741999999991
30
0
11
0.83593400000000018
21
-9928.6481999999996
31
0
0
LINE
5
660
100
AcDbEntity
8
0
100
AcDbLine
10
19.699207999999999
20
-9915.5060000000012
30
0
11
19.628898
21
-9915.4045000000006
31
0
0
LINE
5
661
100
AcDbEntity
8
0
100
AcDbLine
10
5.2851699999999999
20
-9935.4928999999993
30
0
11
5.3750140000000002
21
-9935.4308999999994
31
0
0
LINE
5
662
100
AcDbEntity
8
0
100
AcDbLine
10
1.8710779999999998
20
-9930.0190000000002
30
0
11
1.8124880000000001
21
-9930.1478999999999
31
0
0
LINE
5
663
100
AcDbEntity
8
0
100
AcDbLine
10
4.8945449999999999
20
-9934.8829000000005
30
0
11
4.8554820000000003
21
-9934.9884000000002
31
0
0
LINE
5
664
100
AcDbEntity
8
0
100
AcDbLine
10
4.7187599999999996
20
-9934.2618000000002
30
0
11
4.8086029999999997
21
-9934.3712000000014
31
0
0
LINE
5
665
100
AcDbEntity
8
0
100
AcDbLine
10
19.593757
20
-9936.0382000000009
30
0
11
19.585957000000001
21
-9935.9287999999997
31
0
0
LINE
5
666
100
AcDbEntity
8
0
100
AcDbLine
10
1.238294
20
-9925.7085999999999
30
0
11
1.2773540000000003
21
-9925.8413999999993
31
0
0
LINE
5
667
100
AcDbEntity
8
0
100
AcDbLine
10
19.277334000000003
20
-9936.7260000000006
30
0
11
19.398428000000003
21
-9936.7099999999991
31
0
0
LINE
5
668
100
AcDbEntity
8
0
100
AcDbLine
10
3.3164010000000004
20
-9919.2978999999996
30
0
11
3.1914010000000004
21
-9919.3569000000007
31
0
0
LINE
5
669
100
AcDbEntity
8
0
100
AcDbLine
10
3.6914160000000007
20
-9934.2618000000002
30
0
11
3.8007910000000007
21
-9934.2348000000002
31
0
0
LINE
5
670
100
AcDbEntity
8
0
100
AcDbLine
10
8.7421880000000005
20
-9914.7343000000001
30
0
11
8.6640630000000005
21
-9914.6563000000024
31
0
0
LINE
5
671
100
AcDbEntity
8
0
100
AcDbLine
10
24.804680999999999
20
-9922.8210999999992
30
0
11
24.695306000000002
21
-9922.8210999999992
31
0
0
LINE
5
672
100
AcDbEntity
8
0
100
AcDbLine
10
0.87891400000000008
20
-9925.3721000000005
30
0
11
0.97657400000000005
21
-9925.4231
31
0
0
LINE
5
673
100
AcDbEntity
8
0
100
AcDbLine
10
13.492176999999998
20
-9914.0697999999993
30
0
11
13.386708
21
-9914.1677999999993
31
0
0
LINE
5
674
100
AcDbEntity
8
0
100
AcDbLine
10
24.539038000000005
20
-9927.8150000000005
30
0
11
24.574198000000003
21
-9927.6782999999996
31
0
0
LINE
5
675
100
AcDbEntity
8
0
100
AcDbLine
10
24.949207999999999
20
-9928.5331999999999
30
0
11
24.855458000000002
21
-9928.4822000000004
31
0
0
LINE
5
676
100
AcDbEntity
8
0
100
AcDbLine
10
19.863295999999998
20
-9935.4520000000011
30
0
11
19.984389999999998
21
-9935.3819999999996
31
0
0
LINE
5
677
100
AcDbEntity
8
0
100
AcDbLine
10
2.5117279999999997
20
-9932.7050000000017
30
0
11
2.6250100000000005
21
-9932.6949999999997
31
0
0
LINE
5
678
100
AcDbEntity
8
0
100
AcDbLine
10
17.941386999999999
20
-9914.9132000000009
30
0
11
17.957017
21
-9914.8076999999994
31
0
0
LINE
5
679
100
AcDbEntity
8
0
100
AcDbLine
10
9.5039069999999999
20
-9914.8083000000006
30
0
11
9.3750009999999993
21
-9914.8633000000009
31
0
0
LINE
5
680
100
AcDbEntity
8
0
100
AcDbLine
10
3.8007760000000008
20
-9917.7389999999996
30
0
11
3.6914010000000008
21
-9917.7119999999995
31
0
0
LINE
5
681
100
AcDbEntity
8
0
100
AcDbLine
10
20.996107000000002
20
-9935.5730000000003
30
0
11
21.199232000000002
21
-9935.3971999999994
31
0
0
LINE
5
682
100
AcDbEntity
8
0
100
AcDbLine
10
0.52734999999999999
20
-9926.8300999999992
30
0
11
0.55079
21
-9927.0997000000007
31
0
0
LINE
5
683
100
AcDbEntity
8
0
100
AcDbLine
10
24.550768000000001
20
-9923.8669000000009
30
0
11
24.601548000000001
21
-9923.7340999999997
31
0
0
LINE
5
684
100
AcDbEntity
8
0
100
AcDbLine
10
11.714852
20
-9913.8237000000008
30
0
11
11.699222000000001
21
-9913.9292000000005
31
0
0
LINE
5
685
100
AcDbEntity
8
0
100
AcDbLine
10
17.957016000000003
20
-9937.1646999999994
30
0
11
17.941385999999998
21
-9937.0553
31
0
0
LINE
5
686
100
AcDbEntity
8
0
100
AcDbLine
10
2.4921759999999997
20
-9920.7864000000009
30
0
11
2.3906139999999998
21
-9920.8878999999997
31
0
0
LINE
5
687
100
AcDbEntity
8
0
100
AcDbLine
10
22.332037000000003
20
-9918.5663999999997
30
0
11
22.375007
21
-9918.4649000000009
31
0
0
LINE
5
688
100
AcDbEntity
8
0
100
AcDbLine
10
2.0312389999999998
20
-9921.0288999999993
30
0
11
1.921864
21
-9921.0288999999993
31
0
0
LINE
5
689
100
AcDbEntity
8
0
100
AcDbLine
10
12.484365
20
-9914.0697999999993
30
0
11
12.425775000000002
21
-9913.9758000000002
31
0
0
LINE
5
690
100
AcDbEntity
8
0
100
AcDbLine
10
16.882798000000001
20
-9914.8934000000008
30
0
11
16.742173000000001
21
-9914.8934000000008
31
0
0
LINE
5
691
100
AcDbEntity
8
0
100
AcDbLine
10
0.55079
20
-9927.0997000000007
30
0
11
0.60548000000000002
21
-9927.2090000000007
31
0
0
LINE
5
692
100
AcDbEntity
8
0
100
AcDbLine
10
5.9922010000000006
20
-9935.3839000000007
30
0
11
6.1132950000000008
21
-9935.4539000000004
31
0
0
LINE
5
693
100
AcDbEntity
8
0
100
AcDbLine
10
5.3749990000000007
20
-9916.5458999999992
30
0
11
5.2851550000000005
21
-9916.4838999999993
31
0
0
LINE
5
694
100
AcDbEntity
8
0
100
AcDbLine
10
4.4843849999999996
20
-9934.1057999999994
30
0
11
4.6093849999999996
21
-9934.1718000000001
31
0
0
LINE
5
695
100
AcDbEntity
8
0
100
AcDbLine
10
4.8086070000000003
20
-9935.0864000000001
30
0
11
4.7461070000000003
21
-9935.1803999999993
31
0
0
LINE
5
696
100
AcDbEntity
8
0
100
AcDbLine
10
18.5703
20
-9936.3330000000005
30
0
11
18.710925
21
-9936.3430000000008
31
0
0
LINE
5
697
100
AcDbEntity
8
0
100
AcDbLine
10
14.441395000000004
20
-9914.2484999999997
30
0
11
14.355454999999999
21
-9914.1391000000003
31
0
0
LINE
5
698
100
AcDbEntity
8
0
100
AcDbLine
10
1.0390740000000001
20
-9927.3090000000011
30
0
11
1.1406370000000001
21
-9927.3559999999998
31
0
0
LINE
5
699
100
AcDbEntity
8
0
100
AcDbLine
10
14.550769000000001
20
-9937.6406000000006
30
0
11
14.679675000000001
21
-9937.5786000000007
31
0
0
LINE
5
700
100
AcDbEntity
8
0
100
AcDbLine
10
2.140619
20
-9930.9549999999999
30
0
11
2.2734310000000004
21
-9931.0020000000004
31
0
0
LINE
5
701
100
AcDbEntity
8
0
100
AcDbLine
10
20.691421000000002
20
-9935.491
30
0
11
20.773451000000001
21
-9935.5650000000023
31
0
0
LINE
5
702
100
AcDbEntity
8
0
100
AcDbLine
10
2.9414160000000003
20
-9932.5930000000008
30
0
11
3.0507909999999998
21
-9932.5930000000008
31
0
0
LINE
5
703
100
AcDbEntity
8
0
100
AcDbLine
10
10.874996000000001
20
-9914.4274999999998
30
0
11
10.742183000000001
21
-9914.3765000000003
31
0
0
LINE
5
704
100
AcDbEntity
8
0
100
AcDbLine
10
1.339852
20
-9927.5514000000003
30
0
11
1.402352
21
-9927.6803
31
0
0
LINE
5
705
100
AcDbEntity
8
0
100
AcDbLine
10
24.761708000000002
20
-9923.5429000000004
30
0
11
24.855458000000002
21
-9923.4809000000005
31
0
0
LINE
5
706
100
AcDbEntity
8
0
100
AcDbLine
10
3.3671820000000001
20
-9918.0903999999991
30
0
11
3.4140570000000006
21
-9918.1957999999995
31
0
0
LINE
5
707
100
AcDbEntity
8
0
100
AcDbLine
10
7.9023630000000011
20
-9936.5884000000005
30
0
11
7.9765820000000005
21
-9936.7056000000011
31
0
0
LINE
5
708
100
AcDbEntity
8
0
100
AcDbLine
10
17.941385999999998
20
-9937.0553
30
0
11
17.937486
21
-9936.9459000000006
31
0
0
LINE
5
709
100
AcDbEntity
8
0
100
AcDbLine
10
23.578122
20
-9932.1134999999995
30
0
11
23.499992000000006
21
-9932.0355
31
0
0
LINE
5
710
100
AcDbEntity
8
0
100
AcDbLine
10
15.652330000000001
20
-9938.1440999999995
30
0
11
15.773424
21
-9938.1641
31
0
0
LINE
5
711
100
AcDbEntity
8
0
100
AcDbLine
10
6.796895000000001
20
-9936.6689000000006
30
0
11
6.8672070000000005
21
-9936.5828999999994
31
0
0
LINE
5
712
100
AcDbEntity
8
0
100
AcDbLine
10
2.6015709999999999
20
-9931.8534
30
0
11
2.5429810000000002
21
-9931.9473999999991
31
0
0
LINE
5
713
100
AcDbEntity
8
0
100
AcDbLine
10
1.4453120000000004
20
-9927.9614999999994
30
0
11
1.4257819999999999
21
-9928.1021999999994
31
0
0
LINE
5
714
100
AcDbEntity
8
0
100
AcDbLine
10
17.644532000000002
20
-9937.5787
30
0
11
17.890626000000005
21
-9937.4732999999997
31
0
0
LINE
5
715
100
AcDbEntity
8
0
100
AcDbLine
10
24.906235000000002
20
-9926.4869999999992
30
0
11
24.808575000000005
21
-9926.3814999999995
31
0
0
LINE
5
716
100
AcDbEntity
8
0
100
AcDbLine
10
18.429675
20
-9936.3559999999998
30
0
11
18.5703
21
-9936.3330000000005
31
0
0
LINE
5
717
100
AcDbEntity
8
0
100
AcDbLine
10
11.664061999999999
20
-9914.0346000000009
30
0
11
11.621091999999999
21
-9914.1401000000005
31
0
0
LINE
5
718
100
AcDbEntity
8
0
100
AcDbLine
10
13.550770000000004
20
-9938.0036
30
0
11
13.60155
21
-9938.1016
31
0
0
LINE
5
719
100
AcDbEntity
8
0
100
AcDbLine
10
23.378892
20
-9931.8515000000007
30
0
11
23.339832000000001
21
-9931.7147000000004
31
0
0
LINE
5
720
100
AcDbEntity
8
0
100
AcDbLine
10
3.1914160000000003
20
-9932.6200000000026
30
0
11
3.3164160000000003
21
-9932.6790000000001
31
0
0
LINE
5
721
100
AcDbEntity
8
0
100
AcDbLine
10
2.621086
20
-9920.5364000000009
30
0
11
2.5663960000000001
21
-9920.6692000000003
31
0
0
LINE
5
722
100
AcDbEntity
8
0
100
AcDbLine
10
10.624996000000003
20
-9914.2985000000008
30
0
11
10.554686
21
-9914.2165000000005
31
0
0
LINE
5
723
100
AcDbEntity
8
0
100
AcDbLine
10
13.550767
20
-9913.9758000000002
30
0
11
13.492176999999998
21
-9914.0697999999993
31
0
0
LINE
5
724
100
AcDbEntity
8
0
100
AcDbLine
10
2.2499959999999999
20
-9919.6883999999991
30
0
11
2.3124959999999999
21
-9919.7864000000009
31
0
0
LINE
5
725
100
AcDbEntity
8
0
100
AcDbLine
10
25.097645
20
-9925.369200000001
30
0
11
25.203114000000006
21
-9925.3341999999993
31
0
0
LINE
5
726
100
AcDbEntity
8
0
100
AcDbLine
10
9.2343910000000005
20
-9937.0846000000001
30
0
11
9.3750160000000005
21
-9937.1155999999992
31
0
0
LINE
5
727
100
AcDbEntity
8
0
100
AcDbLine
10
2.6445259999999999
20
-9920.3958000000021
30
0
11
2.621086
21
-9920.5364000000009
31
0
0
LINE
5
728
100
AcDbEntity
8
0
100
AcDbLine
10
7.1289110000000013
20
-9915.5917000000009
30
0
11
7.0351610000000004
21
-9915.5367000000006
31
0
0
LINE
5
729
100
AcDbEntity
8
0
100
AcDbLine
10
12.847646000000001
20
-9914.2767999999996
30
0
11
12.710927000000002
21
-9914.2338
31
0
0
LINE
5
730
100
AcDbEntity
8
0
100
AcDbLine
10
1.0703240000000001
20
-9925.4820999999993
30
0
11
1.1679839999999999
21
-9925.5835999999999
31
0
0
LINE
5
731
100
AcDbEntity
8
0
100
AcDbLine
10
5.8554820000000003
20
-9935.3369000000002
30
0
11
5.9922010000000006
21
-9935.3839000000007
31
0
0
LINE
5
732
100
AcDbEntity
8
0
100
AcDbLine
10
17.378902
20
-9937.4066999999995
30
0
11
17.433592000000001
21
-9937.5046999999995
31
0
0
LINE
5
733
100
AcDbEntity
8
0
100
AcDbLine
10
1.1718709999999999
20
-9929.148000000001
30
0
11
1.2812460000000001
21
-9929.148000000001
31
0
0
LINE
5
734
100
AcDbEntity
8
0
100
AcDbLine
10
1.8124890000000002
20
-9921.0129000000015
30
0
11
1.703114
21
-9920.9819000000025
31
0
0
LINE
5
735
100
AcDbEntity
8
0
100
AcDbLine
10
16.355453000000001
20
-9937.2546999999995
30
0
11
16.472641000000003
21
-9937.1726999999992
31
0
0
LINE
5
736
100
AcDbEntity
8
0
100
AcDbLine
10
19.671886999999998
20
-9935.6592999999993
30
0
11
19.757826999999999
21
-9935.5460000000003
31
0
0
LINE
5
737
100
AcDbEntity
8
0
100
AcDbLine
10
24.078134000000002
20
-9922.0867999999991
30
0
11
24.105474000000001
21
-9921.946100000001
31
0
0
LINE
5
738
100
AcDbEntity
8
0
100
AcDbLine
10
21.167982000000002
20
-9935.0845000000008
30
0
11
21.121112000000004
21
-9934.9865000000009
31
0
0
LINE
5
739
100
AcDbEntity
8
0
100
AcDbLine
10
4.746092
20
-9916.7963999999993
30
0
11
4.8085920000000009
21
-9916.8904000000002
31
0
0
LINE
5
740
100
AcDbEntity
8
0
100
AcDbLine
10
24.578133999999999
20
-9921.4501999999993
30
0
11
24.578133999999999
21
-9921.3251999999993
31
0
0
LINE
5
741
100
AcDbEntity
8
0
100
AcDbLine
10
19.863296999999999
20
-9916.5220000000008
30
0
11
19.757828000000003
21
-9916.4240000000027
31
0
0
LINE
5
742
100
AcDbEntity
8
0
100
AcDbLine
10
7.5468950000000001
20
-9936.3579000000009
30
0
11
7.6797070000000014
21
-9936.4089000000022
31
0
0
LINE
5
743
100
AcDbEntity
8
0
100
AcDbLine
10
13.386711
20
-9937.8116000000009
30
0
11
13.492180000000001
21
-9937.9056
31
0
0
LINE
5
744
100
AcDbEntity
8
0
100
AcDbLine
10
19.613296999999999
20
-9935.7882000000027
30
0
11
19.671886999999998
21
-9935.6592999999993
31
0
0
LINE
5
745
100
AcDbEntity
8
0
100
AcDbLine
10
3.5273379999999999
20
-9919.1064000000006
30
0
11
3.4296820000000006
21
-9919.2119000000002
31
0
0
LINE
5
746
100
AcDbEntity
8
0
100
AcDbLine
10
6.3632830000000009
20
-9915.8271999999997
30
0
11
6.3828139999999998
21
-9915.9366000000009
31
0
0
LINE
5
747
100
AcDbEntity
8
0
100
AcDbLine
10
6.2226550000000014
20
-9916.4249
30
0
11
6.1132800000000014
21
-9916.5228999999999
31
0
0
LINE
5
748
100
AcDbEntity
8
0
100
AcDbLine
10
24.726548000000005
20
-9924.5270999999993
30
0
11
24.640608000000004
21
-9924.4138000000003
31
0
0
LINE
5
749
100
AcDbEntity
8
0
100
AcDbLine
10
0.66406999999999994
20
-9926.6538999999993
30
0
11
0.56641000000000008
21
-9926.7129000000004
31
0
0
LINE
5
750
100
AcDbEntity
8
0
100
AcDbLine
10
9.8164219999999993
20
-9937.9207000000006
30
0
11
9.8437660000000005
21
-9938.0339000000004
31
0
0
LINE
5
751
100
AcDbEntity
8
0
100
AcDbLine
10
8.8281259999999993
20
-9914.8042999999998
30
0
11
8.7421880000000005
21
-9914.7343000000001
31
0
0
LINE
5
752
100
AcDbEntity
8
0
100
AcDbLine
10
2.2734259999999997
20
-9920.9658999999992
30
0
11
2.1406139999999998
21
-9921.0169000000005
31
0
0
LINE
5
753
100
AcDbEntity
8
0
100
AcDbLine
10
11.621107000000002
20
-9937.841800000002
30
0
11
11.667977
21
-9937.9434000000001
31
0
0
LINE
5
754
100
AcDbEntity
8
0
100
AcDbLine
10
22.378907000000005
20
-9918.9804999999997
30
0
11
22.332037000000003
21
-9918.8477000000021
31
0
0
LINE
5
755
100
AcDbEntity
8
0
100
AcDbLine
10
21.101572000000001
20
-9934.4943000000021
30
0
11
21.167982000000002
21
-9934.3693000000003
31
0
0
LINE
5
756
100
AcDbEntity
8
0
100
AcDbLine
10
15.425770000000004
20
-9937.7646000000004
30
0
11
15.488270000000002
21
-9937.8546000000006
31
0
0
LINE
5
757
100
AcDbEntity
8
0
100
AcDbLine
10
4.0976660000000003
20
-9934.0897999999997
30
0
11
4.2070410000000003
21
-9934.0668000000005
31
0
0
LINE
5
758
100
AcDbEntity
8
0
100
AcDbLine
10
11.160152
20
-9914.4364999999998
30
0
11
11.015621000000003
21
-9914.4465
31
0
0
LINE
5
759
100
AcDbEntity
8
0
100
AcDbLine
10
1.7382680000000001
20
-9930.2338999999993
30
0
11
1.6601380000000001
21
-9930.3119000000006
31
0
0
LINE
5
760
100
AcDbEntity
8
0
100
AcDbLine
10
23.035157999999999
20
-9919.3729999999996
30
0
11
22.925783000000003
21
-9919.3829999999998
31
0
0
LINE
5
761
100
AcDbEntity
8
0
100
AcDbLine
10
10.203141
20
-9938.1659
30
0
11
10.328141000000002
21
-9938.1458999999995
31
0
0
LINE
5
762
100
AcDbEntity
8
0
100
AcDbLine
10
9.3750160000000005
20
-9937.1155999999992
30
0
11
9.5039219999999993
21
-9937.1746000000003
31
0
0
LINE
5
763
100
AcDbEntity
8
0
100
AcDbLine
10
7.9023479999999999
20
-9915.3866999999991
30
0
11
7.8007860000000004
21
-9915.4847000000009
31
0
0
LINE
5
764
100
AcDbEntity
8
0
100
AcDbLine
10
21.062511999999998
20
-9934.6309999999994
30
0
11
21.101572000000001
21
-9934.4943000000021
31
0
0
LINE
5
765
100
AcDbEntity
8
0
100
AcDbLine
10
4.8086029999999997
20
-9934.3712000000014
30
0
11
4.8750099999999996
21
-9934.4961999999996
31
0
0
LINE
5
766
100
AcDbEntity
8
0
100
AcDbLine
10
8.5976570000000017
20
-9914.5663000000022
30
0
11
8.5429689999999994
21
-9914.4722999999994
31
0
0
LINE
5
767
100
AcDbEntity
8
0
100
AcDbLine
10
21.496104000000003
20
-9917.8701000000001
30
0
11
21.367198000000002
21
-9917.8040999999994
31
0
0
LINE
5
768
100
AcDbEntity
8
0
100
AcDbLine
10
21.167983
20
-9916.8894999999993
30
0
11
21.230483000000003
21
-9916.7955000000002
31
0
0
LINE
5
769
100
AcDbEntity
8
0
100
AcDbLine
10
2.7265570000000001
20
-9919.3238999999994
30
0
11
2.6249950000000006
21
-9919.2769000000008
31
0
0
LINE
5
770
100
AcDbEntity
8
0
100
AcDbLine
10
7.2656300000000007
20
-9915.6306999999997
30
0
11
7.1289110000000013
21
-9915.5917000000009
31
0
0
LINE
5
771
100
AcDbEntity
8
0
100
AcDbLine
10
25.312489000000006
20
-9926.652
30
0
11
25.203114000000006
21
-9926.6280000000006
31
0
0
LINE
5
772
100
AcDbEntity
8
0
100
AcDbLine
10
1.1679839999999999
20
-9926.3844000000026
30
0
11
1.0703240000000001
21
-9926.4899000000005
31
0
0
LINE
5
773
100
AcDbEntity
8
0
100
AcDbLine
10
8.0351719999999993
20
-9937.0571999999993
30
0
11
8.0195469999999993
21
-9937.1666000000005
31
0
0
LINE
5
774
100
AcDbEntity
8
0
100
AcDbLine
10
19.398428000000003
20
-9936.7099999999991
30
0
11
19.628896999999998
21
-9936.5694000000003
31
0
0
LINE
5
775
100
AcDbEntity
8
0
100
AcDbLine
10
17.023422
20
-9937.1097000000009
30
0
11
17.148422
21
-9937.1687000000002
31
0
0
LINE
5
776
100
AcDbEntity
8
0
100
AcDbLine
10
1.0624959999999999
20
-9922.8119000000006
30
0
11
0.94921399999999989
21
-9922.8389000000025
31
0
0
LINE
5
777
100
AcDbEntity
8
0
100
AcDbLine
10
24.578133999999999
20
-9930.6380000000008
30
0
11
24.578133999999999
21
-9930.5169000000005
31
0
0
LINE
5
778
100
AcDbEntity
8
0
100
AcDbLine
10
24.164069000000001
20
-9930.9570000000003
30
0
11
24.273444000000005
21
-9930.9840000000004
31
0
0
LINE
5
779
100
AcDbEntity
8
0
100
AcDbLine
10
8.4570319999999999
20
-9914.3942999999999
30
0
11
8.3320319999999999
21
-9914.3942999999999
31
0
0
LINE
5
780
100
AcDbEntity
8
0
100
AcDbLine
10
4.8085879999999994
20
-9917.6016999999993
30
0
11
4.7187450000000002
21
-9917.7150000000001
31
0
0
LINE
5
781
100
AcDbEntity
8
0
100
AcDbLine
10
22.925783000000003
20
-9919.3829999999998
30
0
11
22.785158000000003
21
-9919.3559999999998
31
0
0
LINE
5
782
100
AcDbEntity
8
0
100
AcDbLine
10
17.433592999999998
20
-9914.4714000000004
30
0
11
17.378903000000001
21
-9914.5653999999995
31
0
0
LINE
5
783
100
AcDbEntity
8
0
100
AcDbLine
10
0.87890400000000024
20
-9922.9369000000006
30
0
11
0.81249400000000005
21
-9923.1985999999997
31
0
0
LINE
5
784
100
AcDbEntity
8
0
100
AcDbLine
10
24.082034
20
-9922.2273999999998
30
0
11
24.078134000000002
21
-9922.0867999999991
31
0
0
LINE
5
785
100
AcDbEntity
8
0
100
AcDbLine
10
15.578111
20
-9913.9220000000005
30
0
11
15.539051000000001
21
-9914.0234999999993
31
0
0
LINE
5
786
100
AcDbEntity
8
0
100
AcDbLine
10
19.984390999999999
20
-9916.5920000000006
30
0
11
19.863296999999999
21
-9916.5220000000008
31
0
0
LINE
5
787
100
AcDbEntity
8
0
100
AcDbLine
10
17.148423000000001
20
-9914.8034000000007
30
0
11
17.023423000000001
21
-9914.8624
31
0
0
LINE
5
788
100
AcDbEntity
8
0
100
AcDbLine
10
1.2812410000000001
20
-9922.8238999999994
30
0
11
1.1718709999999999
21
-9922.8238999999994
31
0
0
LINE
5
789
100
AcDbEntity
8
0
100
AcDbLine
10
21.167982000000002
20
-9934.3693000000003
30
0
11
21.257822000000001
21
-9934.2598999999991
31
0
0
LINE
5
790
100
AcDbEntity
8
0
100
AcDbLine
10
23.355472000000002
20
-9920.5355000000018
30
0
11
23.332032000000002
21
-9920.3948999999993
31
0
0
LINE
5
791
100
AcDbEntity
8
0
100
AcDbLine
10
24.578133999999999
20
-9921.3251999999993
30
0
11
24.472664999999999
21
-9921.0791000000027
31
0
0
LINE
5
792
100
AcDbEntity
8
0
100
AcDbLine
10
22.398451999999999
20
-9917.7691000000013
30
0
11
22.285170999999998
21
-9917.7111000000004
31
0
0
LINE
5
793
100
AcDbEntity
8
0
100
AcDbLine
10
9.6211089999999988
20
-9937.2566000000006
30
0
11
9.7148589999999988
21
-9937.3621000000003
31
0
0
LINE
5
794
100
AcDbEntity
8
0
100
AcDbLine
10
17.312492000000002
20
-9937.3207000000002
30
0
11
17.378902
21
-9937.4066999999995
31
0
0
LINE
5
795
100
AcDbEntity
8
0
100
AcDbLine
10
23.578122
20
-9919.8554999999997
30
0
11
23.664062000000001
21
-9919.7855
31
0
0
LINE
5
796
100
AcDbEntity
8
0
100
AcDbLine
10
3.5976510000000008
20
-9918.9814000000006
30
0
11
3.5273379999999999
21
-9919.1064000000006
31
0
0
LINE
5
797
100
AcDbEntity
8
0
100
AcDbLine
10
23.484382
20
-9920.7855
30
0
11
23.410162
21
-9920.6682999999994
31
0
0
LINE
5
798
100
AcDbEntity
8
0
100
AcDbLine
10
23.945319000000001
20
-9930.9410000000007
30
0
11
24.054694000000005
21
-9930.9410000000007
31
0
0
LINE
5
799
100
AcDbEntity
8
0
100
AcDbLine
10
25.449209000000003
20
-9926.8281000000006
30
0
11
25.410149000000004
21
-9926.7109999999993
31
0
0
LINE
5
800
100
AcDbEntity
8
0
100
AcDbLine
10
1.2812460000000001
20
-9929.148000000001
30
0
11
1.3906209999999999
21
-9929.1640000000007
31
0
0
LINE
5
801
100
AcDbEntity
8
0
100
AcDbLine
10
16.742172000000004
20
-9937.0827000000008
30
0
11
16.882797
21
-9937.0827000000008
31
0
0
LINE
5
802
100
AcDbEntity
8
0
100
AcDbLine
10
17.433592000000001
20
-9937.5046999999995
30
0
11
17.519532000000002
21
-9937.5787
31
0
0
LINE
5
803
100
AcDbEntity
8
0
100
AcDbLine
10
0.97657400000000005
20
-9925.4231
30
0
11
1.0703240000000001
21
-9925.4820999999993
31
0
0
LINE
5
804
100
AcDbEntity
8
0
100
AcDbLine
10
18.570301000000001
20
-9915.6398000000008
30
0
11
18.429676000000001
21
-9915.6128000000008
31
0
0
LINE
5
805
100
AcDbEntity
8
0
100
AcDbLine
10
24.406254000000001
20
-9921.5912000000008
30
0
11
24.500004000000004
21
-9921.5362000000005
31
0
0
LINE
5
806
100
AcDbEntity
8
0
100
AcDbLine
10
7.0351760000000008
20
-9936.4388999999992
30
0
11
7.1289259999999999
21
-9936.3798999999999
31
0
0
LINE
5
807
100
AcDbEntity
8
0
100
AcDbLine
10
22.566417000000001
20
-9918.1949000000004
30
0
11
22.609387000000002
21
-9918.0895000000019
31
0
0
LINE
5
808
100
AcDbEntity
8
0
100
AcDbLine
10
23.499992000000006
20
-9919.9334999999992
30
0
11
23.578122
21
-9919.8554999999997
31
0
0
LINE
5
809
100
AcDbEntity
8
0
100
AcDbLine
10
12.710930000000003
20
-9937.7415999999994
30
0
11
12.847649000000001
21
-9937.6985999999997
31
0
0
LINE
5
810
100
AcDbEntity
8
0
100
AcDbLine
10
13.492180000000001
20
-9937.9056
30
0
11
13.550770000000004
21
-9938.0036
31
0
0
LINE
5
811
100
AcDbEntity
8
0
100
AcDbLine
10
24.273444000000005
20
-9930.9840000000004
30
0
11
24.386724999999998
21
-9930.974000000002
31
0
0
LINE
5
812
100
AcDbEntity
8
0
100
AcDbLine
10
25.046861000000003
20
-9927.2759999999998
30
0
11
25.152329000000005
21
-9927.260000000002
31
0
0
LINE
5
813
100
AcDbEntity
8
0
100
AcDbLine
10
23.433582000000005
20
-9920.0195000000003
30
0
11
23.499992000000006
21
-9919.9334999999992
31
0
0
LINE
5
814
100
AcDbEntity
8
0
100
AcDbLine
10
10.554701
20
-9937.7664000000004
30
0
11
10.625011000000002
21
-9937.6844000000001
31
0
0
LINE
5
815
100
AcDbEntity
8
0
100
AcDbLine
10
1.1679839999999999
20
-9925.5835999999999
30
0
11
1.238294
21
-9925.7085999999999
31
0
0
LINE
5
816
100
AcDbEntity
8
0
100
AcDbLine
10
16.164052999999999
20
-9937.5907000000007
30
0
11
16.191392999999998
21
-9937.4812999999995
31
0
0
LINE
5
817
100
AcDbEntity
8
0
100
AcDbLine
10
23.332032000000002
20
-9920.3948999999993
30
0
11
23.339832000000001
21
-9920.2541999999994
31
0
0
LINE
5
818
100
AcDbEntity
8
0
100
AcDbLine
10
17.519532999999999
20
-9914.3934000000008
30
0
11
17.433592999999998
21
-9914.4714000000004
31
0
0
LINE
5
819
100
AcDbEntity
8
0
100
AcDbLine
10
20.503920999999998
20
-9935.3780000000006
30
0
11
20.601581000000003
21
-9935.4290000000001
31
0
0
LINE
5
820
100
AcDbEntity
8
0
100
AcDbLine
10
24.835923000000001
20
-9924.6131000000023
30
0
11
24.726548000000005
21
-9924.5270999999993
31
0
0
LINE
5
821
100
AcDbEntity
8
0
100
AcDbLine
10
4.855467
20
-9916.9884000000002
30
0
11
4.8945300000000005
21
-9917.0938999999998
31
0
0
LINE
5
822
100
AcDbEntity
8
0
100
AcDbLine
10
9.8281259999999993
20
-9914.2810000000009
30
0
11
9.812501000000001
21
-9914.3904000000002
31
0
0
LINE
5
823
100
AcDbEntity
8
0
100
AcDbLine
10
6.3906240000000007
20
-9916.0460000000021
30
0
11
6.3632800000000014
21
-9916.1826999999994
31
0
0
LINE
5
824
100
AcDbEntity
8
0
100
AcDbLine
10
16.601548000000001
20
-9914.8624
30
0
11
16.472642
21
-9914.8073999999997
31
0
0
LINE
5
825
100
AcDbEntity
8
0
100
AcDbLine
10
18.941393999999999
20
-9936.4370000000017
30
0
11
19.031234000000001
21
-9936.5030000000006
31
0
0
LINE
5
826
100
AcDbEntity
8
0
100
AcDbLine
10
25.101557000000003
20
-9929.0329999999994
30
0
11
25.164057
21
-9928.7711999999992
31
0
0
LINE
5
827
100
AcDbEntity
8
0
100
AcDbLine
10
9.7148439999999994
20
-9914.6208999999999
30
0
11
9.6210939999999994
21
-9914.7263000000003
31
0
0
LINE
5
828
100
AcDbEntity
8
0
100
AcDbLine
10
16.191392999999998
20
-9937.4812999999995
30
0
11
16.261703000000001
21
-9937.3601999999992
31
0
0
LINE
5
829
100
AcDbEntity
8
0
100
AcDbLine
10
18.296864000000003
20
-9915.5617999999995
30
0
11
18.17577
21
-9915.4838
31
0
0
LINE
5
830
100
AcDbEntity
8
0
100
AcDbLine
10
6.3046860000000002
20
-9916.3116000000009
30
0
11
6.2226550000000014
21
-9916.4249
31
0
0
LINE
5
831
100
AcDbEntity
8
0
100
AcDbLine
10
23.035157000000002
20
-9932.5910999999996
30
0
11
23.144532000000005
21
-9932.6151000000009
31
0
0
LINE
5
832
100
AcDbEntity
8
0
100
AcDbLine
10
21.230482000000002
20
-9935.1785
30
0
11
21.167982000000002
21
-9935.0845000000008
31
0
0
LINE
5
833
100
AcDbEntity
8
0
100
AcDbLine
10
19.613288000000001
20
-9915.8263000000006
30
0
11
19.644538000000004
21
-9915.7209000000003
31
0
0
LINE
5
834
100
AcDbEntity
8
0
100
AcDbLine
10
18.296863000000002
20
-9936.4069999999992
30
0
11
18.429675
21
-9936.3559999999998
31
0
0
LINE
5
835
100
AcDbEntity
8
0
100
AcDbLine
10
4.777342
20
-9916.5737000000008
30
0
11
4.7187489999999999
21
-9916.6869999999999
31
0
0
LINE
5
836
100
AcDbEntity
8
0
100
AcDbLine
10
24.054694000000005
20
-9921.0260999999991
30
0
11
23.945319000000001
21
-9921.0260999999991
31
0
0
LINE
5
837
100
AcDbEntity
8
0
100
AcDbLine
10
22.566416
20
-9933.7790999999997
30
0
11
22.488285999999999
21
-9933.6970999999994
31
0
0
LINE
5
838
100
AcDbEntity
8
0
100
AcDbLine
10
24.679678000000003
20
-9928.3502000000008
30
0
11
24.601548000000001
21
-9928.2291000000005
31
0
0
LINE
5
839
100
AcDbEntity
8
0
100
AcDbLine
10
6.8672070000000005
20
-9936.5828999999994
30
0
11
6.9453320000000005
21
-9936.5048999999999
31
0
0
LINE
5
840
100
AcDbEntity
8
0
100
AcDbLine
10
2.5429760000000003
20
-9920.0203999999994
30
0
11
2.601566
21
-9920.1183999999994
31
0
0
LINE
5
841
100
AcDbEntity
8
0
100
AcDbLine
10
21.082052000000001
20
-9934.8810000000012
30
0
11
21.058612
21
-9934.7716
31
0
0
LINE
5
842
100
AcDbEntity
8
0
100
AcDbLine
10
3.5273529999999997
20
-9932.8703999999998
30
0
11
3.5976660000000003
21
-9932.9915000000001
31
0
0
LINE
5
843
100
AcDbEntity
8
0
100
AcDbLine
10
3.8007910000000007
20
-9934.2348000000002
30
0
11
3.8945410000000003
21
-9934.1758000000009
31
0
0
LINE
5
844
100
AcDbEntity
8
0
100
AcDbLine
10
24.238284
20
-9921.7312000000002
30
0
11
24.316414000000002
21
-9921.6571999999996
31
0
0
LINE
5
845
100
AcDbEntity
8
0
100
AcDbLine
10
17.949206000000004
20
-9936.8366000000024
30
0
11
17.999986
21
-9936.7037
31
0
0
LINE
5
846
100
AcDbEntity
8
0
100
AcDbLine
10
4.8750099999999996
20
-9934.4961999999996
30
0
11
4.9140720000000009
21
-9934.6329000000005
31
0
0
LINE
5
847
100
AcDbEntity
8
0
100
AcDbLine
10
19.398429
20
-9915.2638000000006
30
0
11
19.277335000000001
21
-9915.2438000000002
31
0
0
LINE
5
848
100
AcDbEntity
8
0
100
AcDbLine
10
24.855458000000002
20
-9928.4822000000004
30
0
11
24.761708000000002
21
-9928.4202000000005
31
0
0
LINE
5
849
100
AcDbEntity
8
0
100
AcDbLine
10
25.152329000000005
20
-9924.7070999999996
30
0
11
25.046861000000003
21
-9924.6870999999992
31
0
0
LINE
5
850
100
AcDbEntity
8
0
100
AcDbLine
10
21.167983
20
-9917.6008000000002
30
0
11
21.101573000000005
21
-9917.4758000000002
31
0
0
LINE
5
851
100
AcDbEntity
8
0
100
AcDbLine
10
12.847649000000001
20
-9937.6985999999997
30
0
11
12.988274000000002
21
-9937.6866000000009
31
0
0
LINE
5
852
100
AcDbEntity
8
0
100
AcDbLine
10
23.351562999999999
20
-9932.6931000000004
30
0
11
23.464843999999999
21
-9932.7031000000006
31
0
0
LINE
5
853
100
AcDbEntity
8
0
100
AcDbLine
10
13.128899000000001
20
-9937.6985999999997
30
0
11
13.265618000000002
21
-9937.7415999999994
31
0
0
LINE
5
854
100
AcDbEntity
8
0
100
AcDbLine
10
19.031235000000002
20
-9915.4698000000008
30
0
11
18.941395
21
-9915.5357999999997
31
0
0
LINE
5
855
100
AcDbEntity
8
0
100
AcDbLine
10
21.984385999999997
20
-9917.8471000000009
30
0
11
21.878917000000001
21
-9917.8860999999997
31
0
0
LINE
5
856
100
AcDbEntity
8
0
100
AcDbLine
10
16.191393999999999
20
-9914.4987999999994
30
0
11
16.164054
21
-9914.3894
31
0
0
LINE
5
857
100
AcDbEntity
8
0
100
AcDbLine
10
4.8749950000000002
20
-9917.4766999999993
30
0
11
4.8085879999999994
21
-9917.6016999999993
31
0
0
LINE
5
858
100
AcDbEntity
8
0
100
AcDbLine
10
24.164064
20
-9930.1458999999995
30
0
11
24.105474000000001
21
-9930.0169999999998
31
0
0
LINE
5
859
100
AcDbEntity
8
0
100
AcDbLine
10
3.414072
20
-9933.7810000000009
30
0
11
3.367197
21
-9933.8865000000005
31
0
0
LINE
5
860
100
AcDbEntity
8
0
100
AcDbLine
10
16.601547
20
-9937.1136999999999
30
0
11
16.742172000000004
21
-9937.0827000000008
31
0
0
LINE
5
861
100
AcDbEntity
8
0
100
AcDbLine
10
25.152329000000005
20
-9927.260000000002
30
0
11
25.265611000000003
21
-9927.25
31
0
0
LINE
5
862
100
AcDbEntity
8
0
100
AcDbLine
10
3.6445410000000007
20
-9933.1281999999992
30
0
11
3.6601660000000003
21
-9933.2649000000001
31
0
0
LINE
5
863
100
AcDbEntity
8
0
100
AcDbLine
10
1.402352
20
-9924.2916000000005
30
0
11
1.339852
21
-9924.4166000000005
31
0
0
LINE
5
864
100
AcDbEntity
8
0
100
AcDbLine
10
24.249994000000004
20
-9922.6141000000007
30
0
11
24.167964000000005
21
-9922.4969000000019
31
0
0
LINE
5
865
100
AcDbEntity
8
0
100
AcDbLine
10
24.109373999999999
20
-9929.5990999999995
30
0
11
24.167964000000005
21
-9929.4701999999997
31
0
0
LINE
5
866
100
AcDbEntity
8
0
100
AcDbLine
10
22.175795000000001
20
-9934.2329000000027
30
0
11
22.285170000000001
21
-9934.2598999999991
31
0
0
LINE
5
867
100
AcDbEntity
8
0
100
AcDbLine
10
10.488275999999999
20
-9914.1224999999995
30
0
11
10.437496000000001
21
-9914.0244999999995
31
0
0
LINE
5
868
100
AcDbEntity
8
0
100
AcDbLine
10
1.8085880000000001
20
-9929.4722000000002
30
0
11
1.867178
21
-9929.6010999999999
31
0
0
LINE
5
869
100
AcDbEntity
8
0
100
AcDbLine
10
25.140617000000006
20
-9928.6461999999992
30
0
11
25.054677000000002
21
-9928.5722000000005
31
0
0
LINE
5
870
100
AcDbEntity
8
0
100
AcDbLine
10
18.17577
20
-9915.4838
30
0
11
18.074207000000001
21
-9915.3858
31
0
0
LINE
5
871
100
AcDbEntity
8
0
100
AcDbLine
10
23.566407000000002
20
-9932.6291000000001
30
0
11
23.707032000000005
21
-9932.4025000000001
31
0
0
LINE
5
872
100
AcDbEntity
8
0
100
AcDbLine
10
6.5781300000000007
20
-9915.2646999999997
30
0
11
6.3476610000000013
21
-9915.4053000000004
31
0
0
LINE
5
873
100
AcDbEntity
8
0
100
AcDbLine
10
3.6015570000000001
20
-9918.4657999999999
30
0
11
3.6445260000000008
21
-9918.5673000000006
31
0
0
LINE
5
874
100
AcDbEntity
8
0
100
AcDbLine
10
5.4726700000000008
20
-9935.3798999999999
30
0
11
5.5781390000000011
21
-9935.3369000000002
31
0
0
LINE
5
875
100
AcDbEntity
8
0
100
AcDbLine
10
13.636710000000001
20
-9938.2070000000003
30
0
11
13.65624
21
-9938.3125
31
0
0
LINE
5
876
100
AcDbEntity
8
0
100
AcDbLine
10
3.6914010000000008
20
-9917.7119999999995
30
0
11
3.5781200000000002
21
-9917.7700000000004
31
0
0
LINE
5
877
100
AcDbEntity
8
0
100
AcDbLine
10
3.4062600000000005
20
-9934.0036999999993
30
0
11
3.5781350000000001
21
-9934.2067999999999
31
0
0
LINE
5
878
100
AcDbEntity
8
0
100
AcDbLine
10
3.5507760000000004
20
-9918.3678
30
0
11
3.6015570000000001
21
-9918.4657999999999
31
0
0
LINE
5
879
100
AcDbEntity
8
0
100
AcDbLine
10
24.804680999999999
20
-9929.1460000000006
30
0
11
24.914056000000002
21
-9929.1579999999994
31
0
0
LINE
5
880
100
AcDbEntity
8
0
100
AcDbLine
10
3.4882760000000008
20
-9918.2777999999998
30
0
11
3.5507760000000004
21
-9918.3678
31
0
0
LINE
5
881
100
AcDbEntity
8
0
100
AcDbLine
10
17.988267
20
-9914.6983
30
0
11
17.980467000000001
21
-9914.5849999999991
31
0
0
LINE
5
882
100
AcDbEntity
8
0
100
AcDbLine
10
15.578110000000001
20
-9938.0581000000002
30
0
11
15.652330000000001
21
-9938.1440999999995
31
0
0
LINE
5
883
100
AcDbEntity
8
0
100
AcDbLine
10
4.8945300000000005
20
-9917.0938999999998
30
0
11
4.917967
21
-9917.1993000000002
31
0
0
LINE
5
884
100
AcDbEntity
8
0
100
AcDbLine
10
19.691407000000002
20
-9936.3546000000006
30
0
11
19.644537
21
-9936.2530000000006
31
0
0
LINE
5
885
100
AcDbEntity
8
0
100
AcDbLine
10
22.332035999999999
20
-9933.4035999999996
30
0
11
22.316406000000001
21
-9933.2630000000026
31
0
0
LINE
5
886
100
AcDbEntity
8
0
100
AcDbLine
10
17.937486
20
-9936.9459000000006
30
0
11
17.949206000000004
21
-9936.8366000000024
31
0
0
LINE
5
887
100
AcDbEntity
8
0
100
AcDbLine
10
6.332033
20
-9915.7217000000001
30
0
11
6.3632830000000009
21
-9915.8271999999997
31
0
0
LINE
5
888
100
AcDbEntity
8
0
100
AcDbLine
10
5.2031239999999999
20
-9916.4058999999997
30
0
11
5.0976550000000014
21
-9916.3629000000001
31
0
0
LINE
5
889
100
AcDbEntity
8
0
100
AcDbLine
10
22.785157000000002
20
-9932.6180999999997
30
0
11
22.925782000000005
21
-9932.5910999999996
31
0
0
LINE
5
890
100
AcDbEntity
8
0
100
AcDbLine
10
7.265645000000001
20
-9936.3449000000001
30
0
11
7.4062700000000001
21
-9936.3348999999998
31
0
0
LINE
5
891
100
AcDbEntity
8
0
100
AcDbLine
10
25.027337000000003
20
-9929.1309999999994
30
0
11
25.101557000000003
21
-9929.0329999999994
31
0
0
LINE
5
892
100
AcDbEntity
8
0
100
AcDbLine
10
25.101557000000003
20
-9922.9341000000004
30
0
11
25.027337000000003
21
-9922.8361000000004
31
0
0
LINE
5
893
100
AcDbEntity
8
0
100
AcDbLine
10
11.699227
20
-9938.0488999999998
30
0
11
11.714857
21
-9938.1581999999999
31
0
0
LINE
5
894
100
AcDbEntity
8
0
100
AcDbLine
10
24.679678000000003
20
-9923.6169000000009
30
0
11
24.761708000000002
21
-9923.5429000000004
31
0
0
LINE
5
895
100
AcDbEntity
8
0
100
AcDbLine
10
12.320308000000002
20
-9938.3125
30
0
11
12.343748000000001
21
-9938.2070000000003
31
0
0
LINE
5
896
100
AcDbEntity
8
0
100
AcDbLine
10
9.9414069999999999
20
-9913.875
30
0
11
9.8437509999999993
21
-9913.9490000000005
31
0
0
LINE
5
897
100
AcDbEntity
8
0
100
AcDbLine
10
7.0351610000000004
20
-9915.5367000000006
30
0
11
6.9453170000000011
21
-9915.4707000000017
31
0
0
LINE
5
898
100
AcDbEntity
8
0
100
AcDbLine
10
24.601548000000001
20
-9928.2291000000005
30
0
11
24.550768000000001
21
-9928.1002000000008
31
0
0
LINE
5
899
100
AcDbEntity
8
0
100
AcDbLine
10
15.488270000000002
20
-9937.8546000000006
30
0
11
15.539050000000001
21
-9937.9526000000005
31
0
0
LINE
5
900
100
AcDbEntity
8
0
100
AcDbLine
10
12.140622
20
-9913.5259999999998
30
0
11
11.874997
21
-9913.5499999999993
31
0
0
LINE
5
901
100
AcDbEntity
8
0
100
AcDbLine
10
15.234363000000002
20
-9937.6046000000006
30
0
11
15.35155
21
-9937.6826000000001
31
0
0
LINE
5
902
100
AcDbEntity
8
0
100
AcDbLine
10
21.257822000000001
20
-9934.2598999999991
30
0
11
21.367197000000001
21
-9934.1699000000008
31
0
0
LINE
5
903
100
AcDbEntity
8
0
100
AcDbLine
10
19.593757999999998
20
-9915.9357
30
0
11
19.613288000000001
21
-9915.8263000000006
31
0
0
LINE
5
904
100
AcDbEntity
8
0
100
AcDbLine
10
24.738264999999998
20
-9926.2603999999992
30
0
11
24.699205000000003
21
-9926.1237000000001
31
0
0
LINE
5
905
100
AcDbEntity
8
0
100
AcDbLine
10
16.261703000000001
20
-9937.3601999999992
30
0
11
16.355453000000001
21
-9937.2546999999995
31
0
0
LINE
5
906
100
AcDbEntity
8
0
100
AcDbLine
10
19.644538000000004
20
-9915.7209000000003
30
0
11
19.691407999999999
21
-9915.6193000000003
31
0
0
LINE
5
907
100
AcDbEntity
8
0
100
AcDbLine
10
20.601581000000003
20
-9935.4290000000001
30
0
11
20.691421000000002
21
-9935.491
31
0
0
LINE
5
908
100
AcDbEntity
8
0
100
AcDbLine
10
14.210924
20
-9938.3750999999993
30
0
11
14.253894000000003
21
-9938.2656999999999
31
0
0
LINE
5
909
100
AcDbEntity
8
0
100
AcDbLine
10
6.2226699999999999
20
-9935.5478999999996
30
0
11
6.3047010000000014
21
-9935.6610999999994
31
0
0
LINE
5
910
100
AcDbEntity
8
0
100
AcDbLine
10
23.355472000000002
20
-9931.4334999999992
30
0
11
23.410162
21
-9931.3006999999998
31
0
0
LINE
5
911
100
AcDbEntity
8
0
100
AcDbLine
10
20.773451999999999
20
-9916.4050000000007
30
0
11
20.691421999999999
21
-9916.4830000000002
31
0
0
LINE
5
912
100
AcDbEntity
8
0
100
AcDbLine
10
9.8437509999999993
20
-9913.9490000000005
30
0
11
9.8164069999999999
21
-9914.0623000000014
31
0
0
LINE
5
913
100
AcDbEntity
8
0
100
AcDbLine
10
6.1132800000000014
20
-9916.5228999999999
30
0
11
5.9921860000000002
21
-9916.5928999999996
31
0
0
LINE
5
914
100
AcDbEntity
8
0
100
AcDbLine
10
17.519532000000002
20
-9937.5787
30
0
11
17.644532000000002
21
-9937.5787
31
0
0
LINE
5
915
100
AcDbEntity
8
0
100
AcDbLine
10
22.925782000000005
20
-9932.5910999999996
30
0
11
23.035157000000002
21
-9932.5910999999996
31
0
0
LINE
5
916
100
AcDbEntity
8
0
100
AcDbLine
10
7.9765670000000011
20
-9915.2695000000003
30
0
11
7.9023479999999999
21
-9915.3866999999991
31
0
0
LINE
5
917
100
AcDbEntity
8
0
100
AcDbLine
10
21.199233
20
-9916.5727999999999
30
0
11
20.996108000000003
21
-9916.4010000000017
31
0
0
LINE
5
918
100
AcDbEntity
8
0
100
AcDbLine
10
24.109373999999999
20
-9922.3680000000022
30
0
11
24.082034
21
-9922.2273999999998
31
0
0
LINE
5
919
100
AcDbEntity
8
0
100
AcDbLine
10
1.476548
20
-9930.4328999999998
30
0
11
1.4023280000000002
21
-9930.5188999999991
31
0
0
LINE
5
920
100
AcDbEntity
8
0
100
AcDbLine
10
4.9179820000000003
20
-9934.7734999999993
30
0
11
4.8945449999999999
21
-9934.8829000000005
31
0
0
LINE
5
921
100
AcDbEntity
8
0
100
AcDbLine
10
3.601572
20
-9933.5110000000004
30
0
11
3.5507910000000003
21
-9933.6090000000004
31
0
0
LINE
5
922
100
AcDbEntity
8
0
100
AcDbLine
10
24.550768000000001
20
-9928.1002000000008
30
0
11
24.531238000000002
21
-9927.9595000000008
31
0
0
LINE
5
923
100
AcDbEntity
8
0
100
AcDbLine
10
20.773451000000001
20
-9935.5650000000023
30
0
11
20.878920000000001
21
-9935.6119999999992
31
0
0
LINE
5
924
100
AcDbEntity
8
0
100
AcDbLine
10
14.355454000000002
20
-9937.8399000000009
30
0
11
14.441394000000001
21
-9937.7306000000008
31
0
0
LINE
5
925
100
AcDbEntity
8
0
100
AcDbLine
10
25.410149000000004
20
-9926.7109999999993
30
0
11
25.312489000000006
21
-9926.652
31
0
0
LINE
5
926
100
AcDbEntity
8
0
100
AcDbLine
10
24.105474000000001
20
-9921.946100000001
30
0
11
24.164064
21
-9921.8172000000013
31
0
0
LINE
5
927
100
AcDbEntity
8
0
100
AcDbLine
10
23.464843999999999
20
-9932.7031000000006
30
0
11
23.566407000000002
21
-9932.6291000000001
31
0
0
LINE
5
928
100
AcDbEntity
8
0
100
AcDbLine
10
11.874997
20
-9913.5499999999993
30
0
11
11.765622
21
-9913.6049999999996
31
0
0
LINE
5
929
100
AcDbEntity
8
0
100
AcDbLine
10
1.0703240000000001
20
-9926.4899000000005
30
0
11
0.97657400000000005
21
-9926.5488999999998
31
0
0
LINE
5
930
100
AcDbEntity
8
0
100
AcDbLine
10
24.164069000000001
20
-9921.0100999999995
30
0
11
24.054694000000005
21
-9921.0260999999991
31
0
0
LINE
5
931
100
AcDbEntity
8
0
100
AcDbLine
10
25.054677000000002
20
-9923.3909000000003
30
0
11
25.140617000000006
21
-9923.3168999999998
31
0
0
LINE
5
932
100
AcDbEntity
8
0
100
AcDbLine
10
24.683575000000001
20
-9925.9830999999995
30
0
11
24.699205000000003
21
-9925.8385999999991
31
0
0
LINE
5
933
100
AcDbEntity
8
0
100
AcDbLine
10
2.5664009999999999
20
-9931.3027000000002
30
0
11
2.6210909999999998
21
-9931.4354999999996
31
0
0
LINE
5
934
100
AcDbEntity
8
0
100
AcDbLine
10
15.351551000000001
20
-9914.2975000000006
30
0
11
15.234364000000003
21
-9914.3755000000019
31
0
0
LINE
5
935
100
AcDbEntity
8
0
100
AcDbLine
10
22.546876999999999
20
-9919.2109999999993
30
0
11
22.449217000000004
21
-9919.1055000000015
31
0
0
LINE
5
936
100
AcDbEntity
8
0
100
AcDbLine
10
4.917967
20
-9917.1993000000002
30
0
11
4.9140569999999997
21
-9917.3438999999998
31
0
0
LINE
5
937
100
AcDbEntity
8
0
100
AcDbLine
10
23.484382
20
-9931.1795999999995
30
0
11
23.585944000000005
21
-9931.0779999999995
31
0
0
LINE
5
938
100
AcDbEntity
8
0
100
AcDbLine
10
10.398436
20
-9913.9230000000007
30
0
11
10.328125999999999
21
-9913.8330000000005
31
0
0
LINE
5
939
100
AcDbEntity
8
0
100
AcDbLine
10
2.5429810000000002
20
-9931.9473999999991
30
0
11
2.4765709999999999
21
-9932.0373999999993
31
0
0
CIRCLE
5
940
100
AcDbEntity
8
0
100
AcDbCircle
10
12.989213804988092
20
-9925.9932428389257
30
0
40
1.5000000000000002
0
CIRCLE
5
941
100
AcDbEntity
8
0
100
AcDbCircle
10
12.989213804988092
20
-9925.9932428389257
30
0
40
14.568697562661345
0
LINE
5
942
100
AcDbEntity
8
0
100
AcDbLine
10
13.989213804988092
20
-9924.8752088501751
30
0
11
13.989213804988092
21
-9927.1112768276762
31
0
0
ENDSEC
0
SECTION
2
OBJECTS
0
DICTIONARY
5
C
100
AcDbDictionary
3
ACAD_GROUP
350
D
3
ACAD_MLINESTYLE
350
17
0
DICTIONARY
5
D
100
AcDbDictionary
0
DICTIONARY
5
1A
330
C
100
AcDbDictionary
0
DICTIONARY
5
17
100
AcDbDictionary
0
ENDSEC
0
EOF
