0
SECTION
2
HEADER
9
$INSUNITS
70
4
9
$ACADVER
1
AC1014
9
$HANDSEED
5
FFFF
0
ENDSEC
0
SECTION
2
TABLES
0
TABLE
2
VPORT
5
8
100
AcDbSymbolTable
0
ENDTAB
0
TABLE
2
LTYPE
5
5
100
AcDbSymbolTable
0
LTYPE
5
14
100
AcDbSymbolTableRecord
100
AcDbLinetypeTableRecord
2
BYBLOCK
70
0
0
LTYPE
5
15
100
AcDbSymbolTableRecord
100
AcDbLinetypeTableRecord
2
BYLAYER
70
0
0
ENDTAB
0
TABLE
2
LAYER
5
2
100
AcDbSymbolTable
70
2
0
LAYER
5
50
100
AcDbSymbolTableRecord
100
AcDbLayerTableRecord
2
0
70
0
6
CONTINUOUS
0
ENDTAB
0
TABLE
2
STYLE
5
3
100
AcDbSymbolTable
70
1
0
STYLE
5
11
100
AcDbSymbolTableRecord
100
AcDbTextStyleTableRecord
2
STANDARD
70
0
0
ENDTAB
0
TABLE
2
VIEW
5
6
100
AcDbSymbolTable
70
0
0
ENDTAB
0
TABLE
2
UCS
5
7
100
AcDbSymbolTable
70
0
0
ENDTAB
0
TABLE
2
APPID
5
9
100
AcDbSymbolTable
70
2
0
APPID
5
12
100
AcDbSymbolTableRecord
100
AcDbRegAppTableRecord
2
ACAD
70
0
0
ENDTAB
0
TABLE
2
DIMSTYLE
5
A
100
AcDbSymbolTable
70
1
0
ENDTAB
0
TABLE
2
BLOCK_RECORD
5
1
100
AcDbSymbolTable
70
1
0
BLOCK_RECORD
5
1F
100
AcDbSymbolTableRecord
100
AcDbBlockTableRecord
2
*MODEL_SPACE
0
BLOCK_RECORD
5
1B
100
AcDbSymbolTableRecord
100
AcDbBlockTableRecord
2
*PAPER_SPACE
0
ENDTAB
0
ENDSEC
0
SECTION
2
BLOCKS
0
BLOCK
5
20
100
AcDbEntity
100
AcDbBlockBegin
2
*MODEL_SPACE
0
ENDBLK
5
21
100
AcDbEntity
100
AcDbBlockEnd
0
BLOCK
5
1C
100
AcDbEntity
100
AcDbBlockBegin
2
*PAPER_SPACE
0
ENDBLK
5
1D
100
AcDbEntity
100
AcDbBlockEnd
0
ENDSEC
0
SECTION
2
ENTITIES
0
SPLINE
5
100
100
AcDbEntity
8
0
100
AcDbSpline
70
1064
71
3
72
10
73
6
74
0
42
0.000000001
43
0.0000000001
44
0.0000000001
40
0
40
0
40
0
40
0
40
0.029343594688635639
40
0.058319392592748424
40
0.08759101035539385
40
0.08759101035539385
40
0.08759101035539385
40
0.08759101035539385
10
7.2343750000000009
20
8.6509999999998399
30
0
10
7.1469516561431039
20
8.6049350962991866
30
0
10
6.9732007450410025
20
8.5133826729463635
30
0
10
6.6622648002559126
20
8.5237647600365563
30
0
10
6.4993107970463759
20
8.634400958144397
30
0
10
6.4174199999999999
20
8.6900000000002819
30
0
0
LINE
5
101
100
AcDbEntity
8
0
100
AcDbLine
10
3.5468830000000007
20
2.6105999999992946
30
0
11
3.5468750000000004
21
2.6133000000004358
31
0
0
SPLINE
5
102
100
AcDbEntity
8
0
100
AcDbSpline
70
1064
71
3
72
13
73
9
74
0
42
0.000000001
43
0.0000000001
44
0.0000000001
40
0
40
0
40
0
40
0
40
0.013256439181751711
40
0.025796227097925641
40
0.038537973271776667
40
0.0435923939359198
40
0.048641239415823392
40
0.053695660079966637
40
0.053695660079966637
40
0.053695660079966637
40
0.053695660079966637
10
3.3166269999999995
20
2.9858000000001539
30
0
10
3.304307380715251
20
2.943517424384936
30
0
10
3.2803341483507973
20
2.8612380952347394
30
0
10
3.2873767496492383
20
2.7246318594689001
30
0
10
3.3744065272843811
20
2.6508419677895745
30
0
10
3.4491775111635525
20
2.6364836418213144
30
0
10
3.4979683308571445
20
2.6232334776091193
30
0
10
3.530572113146091
20
2.6148127081194161
30
0
10
3.5468830000000007
20
2.6105999999992946
30
0
0
SPLINE
5
103
100
AcDbEntity
8
0
100
AcDbSpline
70
1064
71
3
72
10
73
6
74
0
42
0.000000001
43
0.0000000001
44
0.0000000001
40
0
40
0
40
0
40
0
40
0.013859134927184016
40
0.027170973757717765
40
0.040616133522094471
40
0.040616133522094471
40
0.040616133522094471
40
0.040616133522094471
10
7.9801880000000001
20
6.6231000000004769
30
0
10
8.0261120144099429
20
6.624685297480255
30
0
10
8.1161465076836983
20
6.6277932891716773
30
0
10
8.2497620096047708
20
6.7000419731039074
30
0
10
8.2596262864337984
20
6.7939912853159967
30
0
10
8.2645830000000018
20
6.8412000000000717
30
0
0
SPLINE
5
104
100
AcDbEntity
8
0
100
AcDbSpline
70
1064
71
3
72
10
73
6
74
0
42
0.000000001
43
0.0000000001
44
0.0000000001
40
0
40
0
40
0
40
0
40
0.03048676897896134
40
0.060679375345334088
40
0.091125181466544664
40
0.091125181466544664
40
0.091125181466544664
40
0.091125181466544664
10
3.7604280000000001
20
2.9009999999993852
30
0
10
3.8006937616489767
20
2.9959489559223584
30
0
10
3.8808367661880947
20
3.1849307184404552
30
0
10
4.1523106657106919
20
3.3656889959752334
30
0
10
4.3570599071774367
20
3.3701567801460897
30
0
10
4.4598620000000002
20
3.3723999999995158
30
0
0
SPLINE
5
105
100
AcDbEntity
8
0
100
AcDbSpline
70
1064
71
3
72
10
73
6
74
0
42
0.000000001
43
0.0000000001
44
0.0000000001
40
0
40
0
40
0
40
0
40
0.013042714204047092
40
0.025548161468847135
40
0.038721986093761332
40
0.038721986093761332
40
0.038721986093761332
40
0.038721986093761332
10
3.5468750000000004
20
2.6133000000004358
30
0
10
3.591099317133545
20
2.6250782890701885
30
0
10
3.6777262244859039
20
2.648149685583121
30
0
10
3.7349396160702564
20
2.7757000798635545
30
0
10
3.7517857158583352
20
2.8585148618412859
30
0
10
3.7604280000000001
20
2.9009999999993852
30
0
0
SPLINE
5
106
100
AcDbEntity
8
0
100
AcDbSpline
70
1064
71
3
72
10
73
6
74
0
42
0.000000001
43
0.0000000001
44
0.0000000001
40
0
40
0
40
0
40
0
40
0.013863197973369015
40
0.026982912788876892
40
0.040443608578468376
40
0.040443608578468376
40
0.040443608578468376
40
0.040443608578468376
10
1.746105
20
3.560299999999188
30
0
10
1.7779651719261258
20
3.5273337974410879
30
0
10
1.839976855101445
20
3.4631693694097976
30
0
10
1.9787212446030962
20
3.4057872162384228
30
0
10
2.0576814403436723
20
3.4565785502456947
30
0
10
2.0976680000000005
20
3.4822999999994408
30
0
0
SPLINE
5
107
100
AcDbEntity
8
0
100
AcDbSpline
70
1064
71
3
72
13
73
9
74
0
42
0.000000001
43
0.0000000001
44
0.0000000001
40
0
40
0
40
0
40
0
40
0.032679936419162475
40
0.065015727863620504
40
0.097546242961265975
40
0.11146964240606858
40
0.1248483437843123
40
0.13839280313175295
40
0.13839280313175295
40
0.13839280313175295
40
0.13839280313175295
10
1.7943810000000004
20
4.8070999999993091
30
0
10
1.8641787147454847
20
4.7210644837355176
30
0
10
2.0030391203836699
20
4.549899471653589
30
0
10
2.038499695225668
20
4.2071793774493926
30
0
10
1.9222650957765386
20
3.9553381853920655
30
0
10
1.7834369087108934
20
3.817506350998201
30
0
10
1.6990446409406015
20
3.6950938677694012
30
0
10
1.7303539595631223
20
3.6054153307009074
30
0
10
1.746105
20
3.560299999999188
30
0
0
SPLINE
5
108
100
AcDbEntity
8
0
100
AcDbSpline
70
1064
71
3
72
10
73
6
74
0
42
0.000000001
43
0.0000000001
44
0.0000000001
40
0
40
0
40
0
40
0
40
0.014564576363611597
40
0.028294470687046172
40
0.042402701971149155
40
0.042402701971149155
40
0.042402701971149155
40
0.042402701971149155
10
1.238286
20
8.7031000000001768
30
0
10
1.2081732197431052
20
8.6652758233105942
30
0
10
1.1496733940692947
20
8.5917951375802204
30
0
10
1.1196225692774122
20
8.4356622450025043
30
0
10
1.1897650966385074
20
8.3665339136075545
30
0
10
1.2253129999999999
20
8.3315000000004602
30
0
0
SPLINE
5
109
100
AcDbEntity
8
0
100
AcDbSpline
70
1064
71
3
72
10
73
6
74
0
42
0.000000001
43
0.0000000001
44
0.0000000001
40
0
40
0
40
0
40
0
40
0.033300169622388139
40
0.06633044407013379
40
0.099524676588622671
40
0.099524676588622671
40
0.099524676588622671
40
0.099524676588622671
10
2.4935230000000002
20
8.8292999999987387
30
0
10
2.4188650146506268
20
8.7451674803185142
30
0
10
2.2701541408694887
20
8.5775843282101505
30
0
10
1.92116583531948
20
8.4868106649184938
30
0
10
1.7138503683960435
20
8.5749308325864604
30
0
10
1.6099360000000003
20
8.619099999999662
30
0
0
SPLINE
5
110
100
AcDbEntity
8
0
100
AcDbSpline
70
1064
71
3
72
10
73
6
74
0
42
0.000000001
43
0.0000000001
44
0.0000000001
40
0
40
0
40
0
40
0
40
0.027780130224306126
40
0.055217495656159202
40
0.082978721338016564
40
0.082978721338016564
40
0.082978721338016564
40
0.082978721338016564
10
0.69762100000000005
20
6.6335999999989781
30
0
10
0.79018715502244086
20
6.6231727223760117
30
0
10
0.97417733871088497
20
6.602446823964101
30
0
10
1.2218135835343791
20
6.4466442490299869
30
0
10
1.3027721948416677
20
6.2782108262626934
30
0
10
1.3434889999999999
20
6.1934999999994034
30
0
0
SPLINE
5
111
100
AcDbEntity
8
0
100
AcDbSpline
70
1064
71
3
72
10
73
6
74
0
42
0.000000001
43
0.0000000001
44
0.0000000001
40
0
40
0
40
0
40
0
40
0.03020813447762322
40
0.060066178328105263
40
0.090153348386121615
40
0.090153348386121615
40
0.090153348386121615
40
0.090153348386121615
10
6.8456999999999999
20
4.6047999999984768
30
0
10
6.9010805681059972
20
4.6901614698174399
30
0
10
7.0111998832272491
20
4.8598951312033023
30
0
10
7.3015554294153802
20
5.001812649046542
30
0
10
7.5022967146609387
20
4.9684467274266808
30
0
10
7.6030510000000007
20
4.951699999999164
30
0
0
SPLINE
5
112
100
AcDbEntity
8
0
100
AcDbSpline
70
1064
71
3
72
10
73
6
74
0
42
0.000000001
43
0.0000000001
44
0.0000000001
40
0
40
0
40
0
40
0
40
0.014011457440644496
40
0.027261215465854222
40
0.040793608559833237
40
0.040793608559833237
40
0.040793608559833237
40
0.040793608559833237
10
0.72266800000000009
20
5.1141999999993004
30
0
10
0.73578222090635681
20
5.0698452125277527
30
0
10
0.76129773942464729
20
4.9835468796584337
30
0
10
0.85792287808807455
20
4.8659964885257523
30
0
10
0.95231624473920862
20
4.8766945302941167
30
0
10
1.0000110000000002
20
4.8821000000009462
30
0
0
SPLINE
5
113
100
AcDbEntity
8
0
100
AcDbSpline
70
1064
71
3
72
10
73
6
74
0
42
0.000000001
43
0.0000000001
44
0.0000000001
40
0
40
0
40
0
40
0
40
0.014083342496002727
40
0.027761974720014709
40
0.042177844503740056
40
0.042177844503740056
40
0.042177844503740056
40
0.042177844503740056
10
5.3271180000000005
20
2.6350000000002183
30
0
10
5.3743930780029858
20
2.6493807553799797
30
0
10
5.4675846992944566
20
2.6777290091729355
30
0
10
5.5196899817299094
20
2.8295005678285179
30
0
10
5.4886045682776512
20
2.9190502214510161
30
0
10
5.4726540000000004
20
2.9650000000003729
30
0
0
SPLINE
5
114
100
AcDbEntity
8
0
100
AcDbSpline
70
1064
71
3
72
10
73
6
74
0
42
0.000000001
43
0.0000000001
44
0.0000000001
40
0
40
0
40
0
40
0
40
0.013795957531439742
40
0.026877151979209531
40
0.040375769212116157
40
0.040375769212116157
40
0.040375769212116157
40
0.040375769212116157
10
6.28125
20
9.8313999999993484
30
0
10
6.2426441726753614
20
9.8558552659017096
30
0
10
6.1674326706159484
20
9.9034987800916952
30
0
10
6.0191170404090011
20
9.9238651406460576
30
0
10
5.9546266102304868
20
9.8559107767653131
30
0
10
5.921875
20
9.8214000000007218
30
0
0
SPLINE
5
115
100
AcDbEntity
8
0
100
AcDbSpline
70
1064
71
3
72
10
73
6
74
0
42
0.000000001
43
0.0000000001
44
0.0000000001
40
0
40
0
40
0
40
0
40
0.032121310183192218
40
0.063974685824322586
40
0.096201282679922659
40
0.096201282679922659
40
0.096201282679922659
40
0.096201282679922659
10
7.2490640000000006
20
7.4683999999990647
30
0
10
7.2175864534162768
20
7.5727594955742461
30
0
10
7.1548939249443855
20
7.7806079894310187
30
0
10
7.2678448074931801
20
8.1083059668219448
30
0
10
7.4388476117482778
20
8.2409777486941493
30
0
10
7.5248470000000012
20
8.3076999999991585
30
0
0
SPLINE
5
116
100
AcDbEntity
8
0
100
AcDbSpline
70
1064
71
3
72
10
73
6
74
0
42
0.000000001
43
0.0000000001
44
0.0000000001
40
0
40
0
40
0
40
0
40
0.013862010424177312
40
0.026979763848523811
40
0.040383475057682076
40
0.040383475057682076
40
0.040383475057682076
40
0.040383475057682076
10
4.4804750000000002
20
10.317900000000009
30
0
10
4.4348050707525131
20
10.321453051543585
30
0
10
4.3459172494068508
20
10.328368389846219
30
0
10
4.2037393797668692
20
10.279244936647274
30
0
10
4.1799778598263542
20
10.188408116905521
30
0
10
4.1679690000000003
20
10.142499999999472
30
0
0
SPLINE
5
117
100
AcDbEntity
8
0
100
AcDbSpline
70
1064
71
3
72
10
73
6
74
0
42
0.000000001
43
0.0000000001
44
0.0000000001
40
0
40
0
40
0
40
0
40
0.030227889571221286
40
0.06002643168365164
40
0.08996633075769149
40
0.08996633075769149
40
0.08996633075769149
40
0.08996633075769149
10
7.0273350000000008
20
3.7849000000005617
30
0
10
6.9602231231207394
20
3.8606064081216118
30
0
10
6.826952605403549
20
4.0109439142986503
30
0
10
6.7392010163050404
20
4.3186306633594995
30
0
10
6.8101443818423455
20
4.5092598614075996
30
0
10
6.8456999999999999
20
4.6047999999984768
30
0
0
SPLINE
5
118
100
AcDbEntity
8
0
100
AcDbSpline
70
1064
71
3
72
10
73
6
74
0
42
0.000000001
43
0.0000000001
44
0.0000000001
40
0
40
0
40
0
40
0
40
0.030272455591910621
40
0.060128610547602046
40
0.090190512851540713
40
0.090190512851540713
40
0.090190512851540713
40
0.090190512851540713
10
7.9492100000000008
20
5.3071999999986019
30
0
10
7.8537366309053365
20
5.3417063715130553
30
0
10
7.6641028230191166
20
5.410244589955937
30
0
10
7.4453695240271713
20
5.6453131187015515
30
0
10
7.4193136649834859
20
5.8473397990178455
30
0
10
7.4062410000000014
20
5.9487000000001444
30
0
0
SPLINE
5
119
100
AcDbEntity
8
0
100
AcDbSpline
70
1064
71
3
72
10
73
6
74
0
42
0.000000001
43
0.0000000001
44
0.0000000001
40
0
40
0
40
0
40
0
40
0.013189625334048983
40
0.025786736403302632
40
0.038720050475373725
40
0.038720050475373725
40
0.038720050475373725
40
0.038720050475373725
10
6.2501590000000009
20
9.4743999999991502
30
0
10
6.2714851457150536
20
9.5121441438004695
30
0
10
6.3131794079950314
20
9.585936860601123
30
0
10
6.35659028778635
20
9.7191272160318931
30
0
10
6.3065829401703555
20
9.7936486215201057
30
0
10
6.28125
20
9.8313999999993484
30
0
0
SPLINE
5
120
100
AcDbEntity
8
0
100
AcDbSpline
70
1064
71
3
72
10
73
6
74
0
42
0.000000001
43
0.0000000001
44
0.0000000001
40
0
40
0
40
0
40
0
40
0.034664768674938951
40
0.069111721714388022
40
0.10373388012673584
40
0.10373388012673584
40
0.10373388012673584
40
0.10373388012673584
10
2.8185689999999997
20
3.7815999999997985
30
0
10
2.9280688641016877
20
3.7392637456775901
30
0
10
3.1463805512940599
20
3.6548572563492598
30
0
10
3.3517832548715436
20
3.336991110084
30
0
10
3.3283655525989047
20
3.1030615039071563
30
0
10
3.3166269999999995
20
2.9858000000001539
30
0
0
SPLINE
5
121
100
AcDbEntity
8
0
100
AcDbSpline
70
1064
71
3
72
10
73
6
74
0
42
0.000000001
43
0.0000000001
44
0.0000000001
40
0
40
0
40
0
40
0
40
0.013911240591790157
40
0.027106073285197353
40
0.040779002560590256
40
0.040779002560590256
40
0.040779002560590256
40
0.040779002560590256
10
5.0436579999999998
20
2.8381999999999152
30
0
10
5.0521895736757578
20
2.7917680142923018
30
0
10
5.0688133578571373
20
2.7012952200766449
30
0
10
5.1892280200993204
20
2.6038543661104541
30
0
10
5.2806126276171987
20
2.6244956884966086
30
0
10
5.3271180000000005
20
2.6350000000002183
30
0
0
SPLINE
5
122
100
AcDbEntity
8
0
100
AcDbSpline
70
1064
71
3
72
10
73
6
74
0
42
0.000000001
43
0.0000000001
44
0.0000000001
40
0
40
0
40
0
40
0
40
0.01310947418096137
40
0.025658854087953563
40
0.038518101131621532
40
0.038518101131621532
40
0.038518101131621532
40
0.038518101131621532
10
2.9378790000000006
20
9.6816000000001168
30
0
10
2.9193607150614631
20
9.7205801108600554
30
0
10
2.8831153275929755
20
9.7968749311587544
30
0
10
2.7979487747852931
20
9.9065099485369501
30
0
10
2.7090556193537685
20
9.9097567840794909
30
0
10
2.6640670000000002
20
9.9114000000008673
30
0
0
SPLINE
5
123
100
AcDbEntity
8
0
100
AcDbSpline
70
1064
71
3
72
10
73
6
74
0
42
0.000000001
43
0.0000000001
44
0.0000000001
40
0
40
0
40
0
40
0
40
0.014329271644490204
40
0.027936677005424737
40
0.04217150620707176
40
0.04217150620707176
40
0.04217150620707176
40
0.04217150620707176
10
8.2645830000000018
20
6.8412000000000717
30
0
10
8.2616747295225998
20
6.8901130937410926
30
0
10
8.2560046986244924
20
6.985475184369534
30
0
10
8.1383114716648528
20
7.0940929846153722
30
0
10
8.0424829877996462
20
7.083642826197547
30
0
10
7.9934890000000003
20
7.0782999999994445
30
0
0
SPLINE
5
124
100
AcDbEntity
8
0
100
AcDbSpline
70
1064
71
3
72
10
73
6
74
0
42
0.000000001
43
0.0000000001
44
0.0000000001
40
0
40
0
40
0
40
0
40
0.028715572654828721
40
0.057141141047206301
40
0.085849627673295473
40
0.085849627673295473
40
0.085849627673295473
40
0.085849627673295473
10
6.4174199999999999
20
8.6900000000002819
30
0
10
6.3518788508961137
20
8.7611907889186114
30
0
10
6.2214584657497474
20
8.9028533968621559
30
0
10
6.1552183703480932
20
9.2003726958591869
30
0
10
6.2184078222690333
20
9.3827565206083818
30
0
10
6.2501590000000009
20
9.4743999999991502
30
0
0
SPLINE
5
125
100
AcDbEntity
8
0
100
AcDbSpline
70
1064
71
3
72
10
73
6
74
0
42
0.000000001
43
0.0000000001
44
0.0000000001
40
0
40
0
40
0
40
0
40
0.028253119376446943
40
0.056180199544056855
40
0.084517856459392221
40
0.084517856459392221
40
0.084517856459392221
40
0.084517856459392221
10
4.4598620000000002
20
3.3723999999995158
30
0
10
4.5536259413055706
20
3.3536210623788065
30
0
10
4.7400717939704453
20
3.3162798948910677
30
0
10
4.9559815940199297
20
3.1087280301460396
30
0
10
5.0142906996812471
20
2.9288136356444738
30
0
10
5.0436579999999998
20
2.8381999999999152
30
0
0
SPLINE
5
126
100
AcDbEntity
8
0
100
AcDbSpline
70
1064
71
3
72
10
73
6
74
0
42
0.000000001
43
0.0000000001
44
0.0000000001
40
0
40
0
40
0
40
0
40
0.013784228380279614
40
0.026933718129056705
40
0.040651826894423558
40
0.040651826894423558
40
0.040651826894423558
40
0.040651826894423558
10
7.5248470000000012
20
8.3076999999991585
30
0
10
7.5638927958204816
20
8.3343290371021794
30
0
10
7.6401863996219159
20
8.3863608926117195
30
0
10
7.6689735823429661
20
8.5378755606222967
30
0
10
7.6136627224347651
20
8.6122339528446901
30
0
10
7.5854220000000003
20
8.650199999999586
30
0
0
SPLINE
5
127
100
AcDbEntity
8
0
100
AcDbSpline
70
1064
71
3
72
13
73
9
74
0
42
0.000000001
43
0.0000000001
44
0.0000000001
40
0
40
0
40
0
40
0
40
0.014084648330644638
40
0.027846544959416106
40
0.041320996076197235
40
0.055550534694930861
40
0.069336106715075854
40
0.083337753494175701
40
0.083337753494175701
40
0.083337753494175701
40
0.083337753494175701
10
7.6030510000000007
20
4.951699999999164
30
0
10
7.646955322559772
20
4.936758869539517
30
0
10
7.7337578939390905
20
4.9072189867285942
30
0
10
7.8701902714256287
20
4.8549713185832388
30
0
10
8.0042902634452489
20
4.9343231945488242
30
0
10
8.058690291686192
20
5.0632386184554434
30
0
10
8.0673065429301136
20
5.2178882545410943
30
0
10
7.9887790588164016
20
5.2772754855163839
30
0
10
7.9492100000000008
20
5.3071999999986019
30
0
0
SPLINE
5
128
100
AcDbEntity
8
0
100
AcDbSpline
70
1064
71
3
72
10
73
6
74
0
42
0.000000001
43
0.0000000001
44
0.0000000001
40
0
40
0
40
0
40
0
40
0.027843088630747196
40
0.055270890633941847
40
0.082875404422248361
40
0.082875404422248361
40
0.082875404422248361
40
0.082875404422248361
10
2.4648479999999999
20
9.6105999999997493
30
0
10
2.5090176537588373
20
9.5288110736021281
30
0
10
2.5966981598485175
20
9.3664531230922421
30
0
10
2.6280541347162165
20
9.0760439076063903
30
0
10
2.5384626060099791
20
8.9117238494407047
30
0
10
2.4935230000000002
20
8.8292999999987387
30
0
0
SPLINE
5
129
100
AcDbEntity
8
0
100
AcDbSpline
70
1064
71
3
72
10
73
6
74
0
42
0.000000001
43
0.0000000001
44
0.0000000001
40
0
40
0
40
0
40
0
40
0.027433752583638542
40
0.054442473381411727
40
0.081749961141575955
40
0.081749961141575955
40
0.081749961141575955
40
0.081749961141575955
10
5.4726540000000004
20
2.9650000000003729
30
0
10
5.4600589882109984
20
3.0562240903770999
30
0
10
5.4350640994523154
20
3.2372589341150615
30
0
10
5.5282475010220917
20
3.5103796628493456
30
0
10
5.6706394241752891
20
3.6265801668560016
30
0
10
5.7422269999999997
20
3.6849999999992633
30
0
0
SPLINE
5
130
100
AcDbEntity
8
0
100
AcDbSpline
70
1064
71
3
72
13
73
9
74
0
42
0.000000001
43
0.0000000001
44
0.0000000001
40
0
40
0
40
0
40
0
40
0.014025492055649668
40
0.027741423663837597
40
0.04125563709007992
40
0.055530872732519873
40
0.069394949044187498
40
0.083337966893970286
40
0.083337966893970286
40
0.083337966893970286
40
0.083337966893970286
10
6.5549660000000012
20
3.6290000000008149
30
0
10
6.5866659524842639
20
3.5953311391824627
30
0
10
6.6493661991850708
20
3.5287365321244124
30
0
10
6.7484413170578197
20
3.4230130690968963
30
0
10
6.9039527281558399
20
3.4291478003535758
30
0
10
7.0109357649875097
20
3.520009383685192
30
0
10
7.0943713535744575
20
3.6518421649964239
30
0
10
7.0497227021987765
20
3.740463525962241
30
0
10
7.0273350000000008
20
3.7849000000005617
30
0
0
SPLINE
5
131
100
AcDbEntity
8
0
100
AcDbSpline
70
1064
71
3
72
10
73
6
74
0
42
0.000000001
43
0.0000000001
44
0.0000000001
40
0
40
0
40
0
40
0
40
0.028495588013025402
40
0.056552412592077064
40
0.084825561958470685
40
0.084825561958470685
40
0.084825561958470685
40
0.084825561958470685
10
1.0000110000000002
20
4.8821000000009462
30
0
10
1.0884906387537516
20
4.9171874100704827
30
0
10
1.2640875428959952
20
4.9868219685924942
30
0
10
1.5636943611999392
20
4.9793107760444855
30
0
10
1.7172888367286154
20
4.8646503693350951
30
0
10
1.7943810000000004
20
4.8070999999993091
30
0
0
SPLINE
5
132
100
AcDbEntity
8
0
100
AcDbSpline
70
1064
71
3
72
10
73
6
74
0
42
0.000000001
43
0.0000000001
44
0.0000000001
40
0
40
0
40
0
40
0
40
0.027872074997684876
40
0.055350863150287935
40
0.082993386271133313
40
0.082993386271133313
40
0.082993386271133313
40
0.082993386271133313
10
4.1679690000000003
20
10.142499999999472
30
0
10
4.1688226729031257
20
10.049443978008412
30
0
10
4.1705179730212496
20
9.8646449941168157
30
0
10
4.062368903495301
20
9.592973354191372
30
0
10
3.9065246102687405
20
9.4888941719852937
30
0
10
3.8283709999999997
20
9.4366999999999734
30
0
0
SPLINE
5
133
100
AcDbEntity
8
0
100
AcDbSpline
70
1064
71
3
72
13
73
9
74
0
42
0.000000001
43
0.0000000001
44
0.0000000001
40
0
40
0
40
0
40
0
40
0.033204636321607875
40
0.066225296498018879
40
0.099432086328621924
40
0.11345524073173467
40
0.12690140714028908
40
0.14052638837513876
40
0.14052638837513876
40
0.14052638837513876
40
0.14052638837513876
10
5.2931550000000005
20
9.3515000000002146
30
0
10
5.1814351976041522
20
9.3663711218607659
30
0
10
4.9586145960862096
20
9.3960309695057731
30
0
10
4.6960553986515023
20
9.6312015369528581
30
0
10
4.613536194928888
20
9.9012936738188273
30
0
10
4.6240887130840544
20
10.099376891267866
30
0
10
4.6056046580969294
20
10.247622870762143
30
0
10
4.5223681552087944
20
10.294371359967727
30
0
10
4.4804750000000002
20
10.317900000000009
30
0
0
SPLINE
5
134
100
AcDbEntity
8
0
100
AcDbSpline
70
1064
71
3
72
10
73
6
74
0
42
0.000000001
43
0.0000000001
44
0.0000000001
40
0
40
0
40
0
40
0
40
0.03031715109917733
40
0.060222553187162325
40
0.090370344539942027
40
0.090370344539942027
40
0.090370344539942027
40
0.090370344539942027
10
7.9934890000000003
20
7.0782999999994445
30
0
10
7.8917963173515933
20
7.073012000645349
30
0
10
7.6897920798985222
20
7.0625078203090652
30
0
10
7.3989736612928958
20
7.2012287775544337
30
0
10
7.2991681668310875
20
7.379103610517177
30
0
10
7.2490640000000006
20
7.4683999999990647
30
0
0
SPLINE
5
135
100
AcDbEntity
8
0
100
AcDbSpline
70
1064
71
3
72
10
73
6
74
0
42
0.000000001
43
0.0000000001
44
0.0000000001
40
0
40
0
40
0
40
0
40
0.029345525894092211
40
0.058447775800582413
40
0.087694375900568292
40
0.087694375900568292
40
0.087694375900568292
40
0.087694375900568292
10
5.7422269999999997
20
3.6849999999992633
30
0
10
5.8300700303749373
20
3.7298019545391981
30
0
10
6.0050278676795923
20
3.8190344530039511
30
0
10
6.3178911300529457
20
3.8086683355186324
30
0
10
6.4758108166352182
20
3.6889881381205214
30
0
10
6.5549660000000012
20
3.6290000000008149
30
0
0
SPLINE
5
136
100
AcDbEntity
8
0
100
AcDbSpline
70
1064
71
3
72
10
73
6
74
0
42
0.000000001
43
0.0000000001
44
0.0000000001
40
0
40
0
40
0
40
0
40
0.013827912693578401
40
0.026969653746137558
40
0.040419621788371746
40
0.040419621788371746
40
0.040419621788371746
40
0.040419621788371746
10
2.6640670000000002
20
9.9114000000008673
30
0
10
2.6219370004993046
20
9.8934797383401474
30
0
10
2.5397675853433688
20
9.8585284580781263
30
0
10
2.4377192219002399
20
9.7489982265472008
30
0
10
2.4557354646479466
20
9.657087856085127
30
0
10
2.4648479999999999
20
9.6105999999997493
30
0
0
SPLINE
5
137
100
AcDbEntity
8
0
100
AcDbSpline
70
1064
71
3
72
10
73
6
74
0
42
0.000000001
43
0.0000000001
44
0.0000000001
40
0
40
0
40
0
40
0
40
0.01389514387290143
40
0.02726931109560126
40
0.040820507326543368
40
0.040820507326543368
40
0.040820507326543368
40
0.040820507326543368
10
1.6099360000000003
20
8.619099999999662
30
0
10
1.5721491029917187
20
8.6445932856770469
30
0
10
1.4979920694783182
20
8.6946240262261654
30
0
10
1.36756396560286
20
8.76316441202448
30
0
10
1.2815671260115211
20
8.723209036938897
30
0
10
1.238286
20
8.7031000000001768
30
0
0
SPLINE
5
138
100
AcDbEntity
8
0
100
AcDbSpline
70
1064
71
3
72
10
73
6
74
0
42
0.000000001
43
0.0000000001
44
0.0000000001
40
0
40
0
40
0
40
0
40
0.032220132544704246
40
0.064243961329222193
40
0.096504312080125665
40
0.096504312080125665
40
0.096504312080125665
40
0.096504312080125665
10
7.4062410000000014
20
5.9487000000001444
30
0
10
7.4171398946027303
20
6.0572464872757337
30
0
10
7.4388712814124354
20
6.2736781335877367
30
0
10
7.664396776628255
20
6.5387040737141433
30
0
10
7.8746663759388973
20
6.5948991047673644
30
0
10
7.9801880000000001
20
6.6231000000004769
30
0
0
SPLINE
5
139
100
AcDbEntity
8
0
100
AcDbSpline
70
1064
71
3
72
13
73
9
74
0
42
0.000000001
43
0.0000000001
44
0.0000000001
40
0
40
0
40
0
40
0
40
0.030152891133309843
40
0.060015363962767521
40
0.090206104219497762
40
0.10341226407463661
40
0.11605276604765043
40
0.1289557644174219
40
0.1289557644174219
40
0.1289557644174219
40
0.1289557644174219
10
1.5696700000000003
20
7.5491999999997006
30
0
10
1.5302975708853523
20
7.4547184041887249
30
0
10
1.4519319291640675
20
7.2666652143504962
30
0
10
1.1890604199160058
20
7.0894278572143321
30
0
10
0.93756159935930183
20
7.0563323448971005
30
0
10
0.75644557477952334
20
7.0868868854347511
30
0
10
0.61617381264342708
20
7.0784325874035403
30
0
10
0.56494674826463132
20
7.0047964351113023
30
0
10
0.53906999999999994
20
6.9675999999992655
30
0
0
SPLINE
5
140
100
AcDbEntity
8
0
100
AcDbSpline
70
1064
71
3
72
10
73
6
74
0
42
0.000000001
43
0.0000000001
44
0.0000000001
40
0
40
0
40
0
40
0
40
0.027824632889084305
40
0.055232131921324243
40
0.082822130941626854
40
0.082822130941626854
40
0.082822130941626854
40
0.082822130941626854
10
2.0976680000000005
20
3.4822999999994408
30
0
10
2.1586461546881579
20
3.5523509069696502
30
0
10
2.2796883081455173
20
3.6914025505404879
30
0
10
2.5405786567062987
20
3.8229633663536333
30
0
10
2.7257007866388201
20
3.7954182567273165
30
0
10
2.8185689999999997
20
3.7815999999997985
30
0
0
SPLINE
5
141
100
AcDbEntity
8
0
100
AcDbSpline
70
1064
71
3
72
10
73
6
74
0
42
0.000000001
43
0.0000000001
44
0.0000000001
40
0
40
0
40
0
40
0
40
0.027878380981314121
40
0.05534979865507654
40
0.083023132096849736
40
0.083023132096849736
40
0.083023132096849736
40
0.083023132096849736
10
5.921875
20
9.8214000000007218
30
0
10
5.8792676854783981
20
9.7385886048482462
30
0
10
5.7946750299154761
20
9.57417467955338
30
0
10
5.5723583988236296
20
9.3848942279430503
30
0
10
5.38644970483438
20
9.3626585484003044
30
0
10
5.2931550000000005
20
9.3515000000002146
30
0
0
SPLINE
5
142
100
AcDbEntity
8
0
100
AcDbSpline
70
1064
71
3
72
13
73
9
74
0
42
0.000000001
43
0.0000000001
44
0.0000000001
40
0
40
0
40
0
40
0
40
0.033343229221226733
40
0.066336145316934075
40
0.099531120391007075
40
0.11274563688237188
40
0.12537722719749411
40
0.13827135582459815
40
0.13827135582459815
40
0.13827135582459815
40
0.13827135582459815
10
1.3434889999999999
20
6.1934999999994034
30
0
10
1.3659773264187853
20
6.082635908477414
30
0
10
1.4107177107215005
20
5.8620724940317359
30
0
10
1.2746112300756851
20
5.5360152540310992
30
0
10
1.0471130698506044
20
5.3740369816455313
30
0
10
0.86164404487697244
20
5.3192988877242442
30
0
10
0.74009704296506551
20
5.2481099298358913
30
0
10
0.72851738088141382
20
5.1591416634630605
30
0
10
0.72266800000000009
20
5.1141999999993004
30
0
0
SPLINE
5
143
100
AcDbEntity
8
0
100
AcDbSpline
70
1064
71
3
72
10
73
6
74
0
42
0.000000001
43
0.0000000001
44
0.0000000001
40
0
40
0
40
0
40
0
40
0.030905693781194937
40
0.061425376713597477
40
0.092098152570427722
40
0.092098152570427722
40
0.092098152570427722
40
0.092098152570427722
10
1.2253129999999999
20
8.3315000000004602
30
0
10
1.3099994856155075
20
8.2715174011752879
30
0
10
1.4783147261116909
20
8.1523013837227154
30
0
10
1.6232609282722976
20
7.8569173424102701
30
0
10
1.5875634124229783
20
7.6519433839075646
30
0
10
1.5696700000000003
20
7.5491999999997006
30
0
0
SPLINE
5
144
100
AcDbEntity
8
0
100
AcDbSpline
70
1064
71
3
72
10
73
6
74
0
42
0.000000001
43
0.0000000001
44
0.0000000001
40
0
40
0
40
0
40
0
40
0.013363974484453563
40
0.026623212264198937
40
0.040483642973672768
40
0.040483642973672768
40
0.040483642973672768
40
0.040483642973672768
10
7.5854220000000003
20
8.650199999999586
30
0
10
7.5543588438620564
20
8.6856678252854636
30
0
10
7.4924759810641293
20
8.7563255059205858
30
0
10
7.3405646613154651
20
8.7371901188635093
30
0
10
7.270290834063486
20
8.6801515197316803
30
0
10
7.2343750000000009
20
8.6509999999998399
30
0
0
SPLINE
5
145
100
AcDbEntity
8
0
100
AcDbSpline
70
1064
71
3
72
10
73
6
74
0
42
0.000000001
43
0.0000000001
44
0.0000000001
40
0
40
0
40
0
40
0
40
0.014544669865290747
40
0.028239001098605037
40
0.042267140050415306
40
0.042267140050415306
40
0.042267140050415306
40
0.042267140050415306
10
0.53906999999999994
20
6.9675999999992655
30
0
10
0.53002235387997854
20
6.9202992962948429
30
0
10
0.51245602263358936
20
6.8284632741449514
30
0
10
0.55526803630467714
20
6.6753218139729142
30
0
10
0.6497906282712822
20
6.6476184638224822
30
0
10
0.69762100000000005
20
6.6335999999989781
30
0
0
SPLINE
5
146
100
AcDbEntity
8
0
100
AcDbSpline
70
1064
71
3
72
10
73
6
74
0
42
0.000000001
43
0.0000000001
44
0.0000000001
40
0
40
0
40
0
40
0
40
0.03393116862736676
40
0.067615581552623094
40
0.10148881971993701
40
0.10148881971993701
40
0.10148881971993701
40
0.10148881971993701
10
3.8283709999999997
20
9.4366999999999734
30
0
10
3.7207909155721977
20
9.3965846308935852
30
0
10
3.5064130952280035
20
9.3166456213896254
30
0
10
3.1497667170026524
20
9.4096036341181843
30
0
10
3.008639723435734
20
9.5907657605539498
30
0
10
2.9378790000000006
20
9.6816000000001168
30
0
0
CIRCLE
5
147
100
AcDbEntity
8
0
100
AcDbCircle
10
4.39487437455199
20
6.4133163576150309
30
0
40
1.1406642658802959
0
CIRCLE
5
148
100
AcDbEntity
8
0
100
AcDbCircle
10
4.39487437455199
20
6.4133163576150309
30
0
40
6.5000000000000888
0
ENDSEC
0
SECTION
2
OBJECTS
0
DICTIONARY
5
C
100
AcDbDictionary
3
ACAD_GROUP
350
D
3
ACAD_MLINESTYLE
350
17
0
DICTIONARY
5
D
100
AcDbDictionary
0
DICTIONARY
5
1A
330
C
100
AcDbDictionary
0
DICTIONARY
5
17
100
AcDbDictionary
0
ENDSEC
0
EOF
